<svg xmlns="http://www.w3.org/2000/svg" width="209.215" height="47.294" viewBox="0 0 209.21535 47.293846" xmlns:osb="http://www.openswatchbook.org/uri/2009/osb" xmlns:xlink="http://www.w3.org/1999/xlink" class="footer-logo"><defs><linearGradient id="a" osb:paint="solid"><stop offset="0" stop-color="#2c4a80"></stop></linearGradient><linearGradient xlink:href="#a" id="b" x1="50.592" y1="1032.06" x2="176.842" y2="1032.06" gradientUnits="userSpaceOnUse" gradientTransform="matrix(1.2997 0 0 1 -21.29 -1004.751)"></linearGradient></defs><path d="M200.865 44.302l1.207-4.643h-5.135l.48-1.971h8.197l-1.995 7.801q-2.058.867-4.486 1.342-2.428.463-4.888.463-4.346 0-6.805-1.852-2.444-1.853-2.444-5.154 0-2.742 1.485-5.212 1.5-2.482 4.13-4.132 1.654-1.033 3.619-1.532 1.964-.51 4.362-.51 2.165 0 4.145.427 1.995.416 3.805 1.259l-.634 2.552q-1.392-1.116-3.264-1.698-1.871-.593-3.99-.593-2.46 0-4.331.724-1.872.712-3.341 2.22-1.253 1.283-1.98 3.028-.712 1.734-.712 3.539 0 2.481 1.655 3.74 1.655 1.247 4.934 1.247 1.64 0 3.171-.262 1.532-.273 2.815-.783zm-35.637-15.08h4.207l6.373 15.198 3.867-15.198h3.047L178.22 46.95h-4.223l-6.357-15.293-3.867 15.293h-3.047zm-9.343 0h3.14l-4.5 17.727h-3.14zm-19.396 1.971l-1.578 6.293h4.022q2.367 0 3.82-.997 1.47-1.01 1.47-2.624 0-1.295-.99-1.983-.975-.689-2.815-.689zm5.739 7.243q.99.178 1.64.879.664.7 1.53 2.79l1.965 4.844h-3.295l-1.81-4.547q-.696-1.757-1.608-2.351-.913-.594-2.8-.594h-3.45l-1.902 7.492h-3.14l4.502-17.727h7.037q3.202 0 4.904 1.116 1.716 1.104 1.716 3.194 0 1.852-1.453 3.206-1.454 1.354-3.836 1.698zm-24.207-7.587q-2.568 0-4.532.962-1.965.95-3.419 2.909-.928 1.246-1.423 2.647-.48 1.402-.48 2.826 0 2.47 1.532 3.812 1.547 1.342 4.362 1.342 2.537 0 4.517-.962 1.995-.974 3.402-2.886.944-1.282 1.439-2.683.495-1.413.495-2.814 0-2.458-1.547-3.8-1.547-1.353-4.346-1.353zm-4.053 16.445q-4.253 0-6.697-1.936-2.429-1.935-2.429-5.295 0-1.924.944-3.93.959-2.007 2.63-3.574 1.964-1.84 4.377-2.743 2.413-.915 5.32-.915 4.239 0 6.682 1.924 2.444 1.912 2.444 5.224 0 2.043-.928 4.014-.928 1.97-2.66 3.574-1.98 1.852-4.377 2.754-2.382.903-5.306.903zM93.087 30.849q-2.568 0-4.532.962-1.965.95-3.419 2.909-.928 1.246-1.423 2.647-.48 1.402-.48 2.826 0 2.47 1.532 3.812 1.547 1.342 4.362 1.342 2.537 0 4.517-.962 1.995-.974 3.403-2.886.943-1.282 1.438-2.683.495-1.413.495-2.814 0-2.458-1.547-3.8-1.547-1.353-4.346-1.353zm-4.053 16.445q-4.253 0-6.697-1.936-2.429-1.935-2.429-5.295 0-1.924.944-3.93.959-2.007 2.63-3.574 1.964-1.84 4.377-2.743 2.413-.915 5.32-.915 4.239 0 6.683 1.924 2.444 1.912 2.444 5.224 0 2.043-.929 4.014-.928 1.97-2.66 3.574-1.98 1.852-4.377 2.754-2.382.903-5.306.903zM67.318 29.222h3.14l-3.96 15.733h11.245l-.51 1.994H62.847zm-18.221 0h13.24l-.51 2.019H51.695l-1.33 5.224h9.157l-.51 2.019h-9.157l-2.15 8.465h-3.11z" style="line-height:1.25;-inkscape-font-specification:'AvantGardeITCTT Italic'" font-style="italic" font-weight="400" font-size="27.755" font-family="AvantGardeITCTT" letter-spacing="0" word-spacing="0"></path><path d="M44.465 26.12v2.379H208.55v-2.38zM189.298 2.225h10.356q4.618 0 7.082 1.973 2.48 1.958 2.48 5.594 0 3.652-2.48 5.625-2.464 1.958-7.082 1.958h-4.117v8.049h-6.24zm6.24 4.335v6.48h3.451q1.815 0 2.804-.84.988-.854.988-2.408 0-1.554-.988-2.393-.989-.84-2.804-.84zM162.33 2.225h6.24v13.907q0 2.874.972 4.118.988 1.227 3.209 1.227 2.236 0 3.209-1.227.988-1.244.988-4.118V2.225h6.24v13.907q0 4.926-2.577 7.334-2.577 2.409-7.86 2.409-5.267 0-7.844-2.409-2.577-2.408-2.577-7.334zM145.183 6.14q-2.852 0-4.424 2.02-1.572 2.02-1.572 5.688 0 3.651 1.572 5.671 1.572 2.02 4.424 2.02 2.869 0 4.441-2.02 1.572-2.02 1.572-5.671 0-3.668-1.572-5.688-1.572-2.02-4.44-2.02zm0-4.335q5.835 0 9.14 3.201 3.307 3.201 3.307 8.842 0 5.625-3.306 8.826-3.306 3.2-9.14 3.2-5.819 0-9.141-3.2-3.306-3.201-3.306-8.826 0-5.641 3.306-8.842 3.322-3.2 9.14-3.2zm-27.729 10.706q1.961 0 2.804-.699.859-.7.859-2.3 0-1.585-.86-2.268-.842-.684-2.803-.684h-2.625v5.951zm-2.625 4.134v8.779h-6.24v-23.2h9.53q4.78 0 7 1.539 2.237 1.538 2.237 4.864 0 2.3-1.167 3.775-1.15 1.477-3.484 2.176 1.28.28 2.285 1.274 1.021.979 2.058 2.984l3.388 6.588h-6.645l-2.95-5.765q-.891-1.74-1.815-2.377-.907-.637-2.43-.637zm-11.718 7.054q-2.333 1.088-4.845 1.632-2.512.544-5.187.544-6.045 0-9.578-3.232-3.533-3.248-3.533-8.795 0-5.61 3.598-8.826 3.598-3.217 9.854-3.217 2.415 0 4.619.435 2.22.435 4.181 1.29V8.33q-2.026-1.103-4.035-1.647-1.994-.544-4.003-.544-3.728 0-5.754 2.005-2.01 1.989-2.01 5.703 0 3.682 1.945 5.687 1.945 2.004 5.527 2.004.972 0 1.799-.108.842-.125 1.507-.373V16.55h-3.809v-4.009h9.724zM54.232 11.206q1.475 0 2.237-.622.762-.621.762-1.833 0-1.197-.762-1.818-.762-.637-2.237-.637H50.78v4.91zm.211 10.147q1.88 0 2.82-.762.956-.76.956-2.3 0-1.507-.94-2.252-.94-.762-2.836-.762H50.78v6.076zm5.802-8.344q2.01.559 3.112 2.066 1.102 1.507 1.102 3.698 0 3.357-2.366 5.004-2.367 1.647-7.196 1.647H44.54v-23.2h9.367q5.04 0 7.293 1.461 2.27 1.46 2.27 4.677 0 1.694-.827 2.89-.827 1.182-2.399 1.757zM43.58 42.999q-4.394 2.136-9.125 3.205-4.73 1.068-9.765 1.068-11.383 0-18.036-6.348Q0 34.546 0 23.651 0 12.634 6.775 6.317T25.33 0q4.547 0 8.697.855 4.181.854 7.874 2.532v9.43q-3.815-2.166-7.6-3.235-3.753-1.068-7.537-1.068-7.02 0-10.834 3.937-3.784 3.906-3.784 11.2 0 7.233 3.662 11.17 3.662 3.936 10.407 3.936 1.83 0 3.387-.213 1.587-.245 2.838-.733v-8.85H25.27v-7.873h18.31z" style="line-height:normal;font-variant-ligatures:normal;font-variant-position:normal;font-variant-caps:normal;font-variant-numeric:normal;font-variant-alternates:normal;font-feature-settings:normal;text-indent:0;text-align:start;text-decoration-line:none;text-decoration-style:solid;text-decoration-color:#000;text-transform:none;text-orientation:mixed;shape-padding:0;isolation:auto;mix-blend-mode:normal" color="#000" font-weight="400" font-family="sans-serif" white-space="normal" overflow="visible" fill="url(#b)" fill-rule="evenodd"></path></svg>