<svg xmlns="http://www.w3.org/2000/svg" height="845.542" width="509.68" id="svg-content" viewBox="164 174 509.68036 845.542" class="svg-map"><defs id="defs4"><style id="style2">.land{fill:#636c72;fill-opacity:1;stroke:#fff;stroke-opacity:1;stroke-width:.5}.on,circle:hover,path:hover{stroke:#3987ca!important;stroke-width:2px;stroke-linejoin:round;fill:#3987ca!important;cursor:pointer}</style></defs><g transform="translate(-118.588 -148.504)" id="g1277"><path id="GB-UKC" class="land" d="M597.56 665.15l1.82 2.23.26 1.09-.8.48.65.13 1.77 2.67 2.36 2.4 1.25.76 1.39 3.45.68.6.29.86 1.71.75.91-2.14.43 1.49.91 1.33-.31.83-.68.1.74 1.16 1.37-1.33 1.05.15.09.38 1.39.58 1.37 1.86 1.4.65-.31.73.91 1.51-.26.3-.34 1.13 1.05 1.05-.06.35.48.15-.4.58.14 1.48 1.2.68v3.18l.28.58-.31.88.74 1.13-.06 1.78-.6.25-.94 1.75.4 2.22 1 1.87.6.2 1 1.32.03.97-1.05 1.9-.06 1.35.6 2.04 1.37 1.72.31 1.59 1.25 1.64.17.97-.68.32v.72l-.63 1.09v.32l.29 1.19 1.2 1.96-.14 1.04.26 1.09 2.16 2.71v1.26l1.22 1.54.08 1.26 1.17.82-1.31.12-.06.52.54.45.63-.54-.34.82 1.74 1.14-.03.59 1.11.72.23.57.11.82-.8 1.83.11 1.14.31.79.46.79-.46.49-.06.79.94 3.7.91 1.06.71 2.44.23 2.86.51 1.21 2.9 3.81 3.27 2.09-.48.37-.23-.12-.4.25.23.37-.29.66.88 2.16 1.14.69-.48.2v.74l.06.05-.11.37-.94.02-.65.93 1.51.05.2.07.8-.71.77.07-.26-.91.17-.1.83.81 1.68.83 1.91.34.34.69 2.22 1.32 2.22.69 1.02-.29 1 .39 1.05 1.13 2.53.05 2.08 1.1 1.56.15-.49.89-1.35.59-.75.93-.43 1.25-.03 2.52-2.18-.76-2.65.81-1.17-.95-1.07-.22-2.72.66-2.32-1.1-2.04.61-4.48-.69-1.71.54-.68 1.08-4.01 2.22-.34-.46h-1.47l-.4-1.88-.63-.41-.31.41-1.04-.32-.43 1.29-.78-.3-.77-1.46-.64-.07-.38.39.01 1 1.05 2.79-.16.59-.57.24-.61-.56-1.17-2.71-1.57-.17.27 1.25-.63.12-2.32-2.15-.67-1.66-.48-.34-1.52.37-.63-1.32-1.03-.66-2.63-.08-.57.59-1.24-.49-.93.17-.01 1.3-1.02 2.84-1.91-1.86-.58-.15-.71.98-.06 1.13-4.08 2.27-1.31.02-2.61-1.59-1.98-.63-2.75 1.01-2.01 1.61-.83-.53.25-1.53-.4-1.1-.26-3.74-1.47-.29-.91-1.84-3.89-3.16-1.04-3.51 1-1.1.29-1.55-.53-.71-2.76-1.45-.47-.76 1.37-3.25 1.14-4.94-2.92-2.44-1.95-3.23-.63.15-.95 1.11-3.54 2.47-1.72-.25-1.54-1.38-.34-1.13.36-.94-.16-1.01-1.39-2.17 1.2-.91.56-2.03.91-.64-.8-1.29-.4-1.81-1.38-.79 1.24-1.73.04-1.76.36-.54 4-2.43-.65-1.69-.06-1.24.54-.67-1.03-.67-2.15.62-.4-.84-1.67-1.22-.53-1.84-2.21-.77-.68-.99-1.61-4.3 1.33-2.24 1.72-.62.4-1.87-.63-.97.11-.95 2.99-2.39.91-2.09 1.51-.9 1.34-1.75 1.72-1.45 1.81-.52 1.31.5.88 1.55 1.81-1.85.97-3.03 1.88-.42 1.07-1.5 2.93-.5 1.72-3.03-.21-.95-1.4-1.88-.16-1.73-2.09-3.61-1.05-3.64-1.18-1.36.1-.83-1.35-.75-.26-1.66 4.73-1.03 2.28-3.78.87-.81.24-1.51 1.75-1.59 1.11-.48 1.44-1.5.42-3.27z" fill="#636c72" stroke="#fff" stroke-width=".5"></path><path id="GB-UKD" class="land" d="M534.79 812.32l.17.24-.71.61.85 1.79.17 2.54.88.48.26 1.43.68.56.31 1.21.4.22.97-.53.2.34.03.36-1.82.02-2.59-4.16-.71-1.89-.2-2.42zm29.19-91.83l1.61 4.3.68.99 2.21.77.53 1.84 1.67 1.22.4.84 2.15-.62 1.03.67-.54.67.06 1.24.65 1.69-4 2.43-.36.54-.04 1.76-1.24 1.73 1.38.79.4 1.81.8 1.29-.91.64-.56 2.03-1.2.91 1.39 2.17.16 1.01-.36.94.34 1.13 1.54 1.38 1.72.25 3.54-2.47.95-1.11.63-.15 1.95 3.23 2.92 2.44-1.14 4.94-1.37 3.25.47.76 2.76 1.45.53.71-.29 1.55-1 1.1 1.04 3.51 3.89 3.16.91 1.84 1.47.29.26 3.74.4 1.1-.25 1.53-.67-.35-1.32 1.15-2.59-.12-1.64 1.1-.97 1.56.63 3.07-3.27 2.85.31.71 1.45 1.07.34.83-.27 3.43.57 1.41-.48 1.92-1.01.22-1.18-.85-1.55.78-.91 1.17-2.41-.17-.3 1.14-2.99 3.98-.37 1-1.47.8-.2 1.99.33 1.28 1.32 1.43 2.63 1.53.43.7.06 2.13.5.63 1.11.17 2.38-.65 1.32.27.46 1.79.46.34-.54 1.38.64.97 1.79.17.65 1.57.67.1 2.39-1.11.27 1.28 1.62.19.61.97.23 1.62 3.54 1.86.38 2.27 1.61 2.24 1.72 1.31-.75 2.01-2.48 1.2-1.28 1.66-.04 3.12-1.96 2.57.54 1.75-.11.75.47.21.54 1.03.7-.07 1 .96.9-.24.83-.77.95-.05.77 1.8-.19 1.41.57.65.36 1.8 1.48.33.57 1.79 4.08 5.24-1.11 2.77-.7.43-1.59.1-.97 4.37-1.37 1.41-.2.64.07.64 1.08.52.47.69-1.18 2.07-.63.32-.1.61.9 1.38.16.97.38 8.05 1.01.97-.31 1.96-1.47 1.82-1.28.12-1.94 1.61h-1.71l-1.2-.78-.67.1.37 1.37-.2.64-1.18.24-4.54 5.42-1.32.54-1.71-.14-1.54 1.96-1.55.33-.41 1.28.38 3.14-.63.91-2.3.93-.37 1.16-.95.68-1.51.24-1.74-.64-.74 1.23-1.58-.78-1.01.24-.6-1.98-1.71-.75-5.38 1.63-2.39-1.56-1.96.07-.75-1.53-1.69-1.67.18-.9-.38-1.79-1.51-4.3-2.28-1.75-1.07-1.92.08-.38 2.48-1.68-.17-1.28-4.56-4.53-1.84-1-2.25.05-1.13-1.75.57.14.26-.29-.71-.14.34-.4-.29-.21-.28-.26-.26-.26-.11-.55-.03-.14-.48-.78-.54-1.9.34.02-2.25-2.21-1.54-2.93 1.59-1.41 6.38-3.26.57.31 1 2.83-.85.1.54.5.51-.12.68 2.59 1.14 1.07.88 2.12 1.59 2.09.8.14 1.76 1.4 1.65-.26 1.65-1.09 1.85.19 1.22-.9-.57-1.24-.8-.02-.83.5-1.22-.88-.97.5-2.08-.45-2.5-2.38-2.79-1.88-1.05-2.45-.63-2.98-.03-.1-.26-.43.37-.38-.8.05-.74-.95.23-.38-1.2-2.65-.17-1.98-1.68-1.43-.31-.86.68-2.51 2.42-4.48 1.37-1.75.11-.12 1.08-.98-.03-1.05 1.08-1.44 1.03-.55.37-.79-.4-.46.77-.65-.23-.84-.46-.19-2.5-.17-1.28-.58-1.45-2.21-.17-5.39.51-3.95-.23-3.74.71-.58 1.62-.31v2.8l.63 1.04.77 1.25.08.77.23-.19.43-.84-1.42-1.88-.31-2.72 3.79-1.69 1.42.43 2.22-2.1-1.08-.51-1.54-4.3-.97-.85-.03-.29.91-.43-.03-.77.43-.07.54-1.45.51-.22-.1-.7 1.65-.15 1.54-1.07.29-1.53.77-.92.31-1.19-.43.29-.77-.53-.4-1.24.23-.48h-.51l-.37-.61-.2-1.33-1.37-.68v-.73l1.62-1.04h.6l1.77-2.26-.63-1.46-.71-.07.26.39.42.18-.19 1.3-1.48.63-.48 1.12-1.42.15-.77.39-.26.17-.77.39-.46.75-.14 1.53-.06.19-.06.46-.6.68-.4-.66-2.16.85-1.14-.95.37-1.38-1.96-1.75 1.05-.78-.94-2.02-.8-.12-.31.78.8.29.2.44-.26.8-.68.41.03.87-.54.68.11 1.65-.88.8-1.39 2.93-3.08 3.08.03.75.94.75-.48.24-.83-.77-.29-.12.26-.82-.63-.51-.11-.87-.77-.85-.57.27.17.53-.51.63-.97-.87-.37-2.3.46-2.3-.63-.07-.46-.75.2-.46 1.4-.07.48-.49.11-.68.06-.29.43-1.07-.34-.8.37-.02 1.02-2.36-.71.71-.14-1.02-.57-.63v-.66l-.74-.46.23-.51-.29-.29-.26.73.54.54-.09 1.09-1.48 2.16.68 1.12-.31.75-.91.51-.94-.61-.97.83-1.08-.19-5.01-8.21-.14-.97.37-.9-.48-2.07.11-1.05.63-.83.11 1.17.48.12.68-.58-.14-.22-.94.44-.2-1.54.51-.66-.65.07v.58l-.54-.19-.34.29-.54-.97v.68l1.05.68-.4.61-.54-.19-2.53-4.51-3.81-4.66-1.65-2.91-.66-.61-.65.02-1.03-2.15 1.48-.98 1.65-4.02-.17-1.69.66-1.52-.46-3.88.6.32.26-1.15 1.99-2.24.71-2.68.37.12.4-.89 1.71-1.25 1.31-1.77.28-2.09-.43-1.75 1.45-3.45.6-2.42 1.48-1.93 1.31-.81.54.1-.51.27.34.32 2.05.76.85.99-.17-1.41-.34-.27 1.42-.15.63-.79.09-.77 1.22.69.14-.3-1.37-.67-1.11.99h-.71l-.74-.37-.06-1.36.63-.99 2.88-1.63 1.42-.25.8.3.57.87 1 .27.26.49 1.96.49 2.25-1.01.34-.64 1.2.03-1.54-.79-.94.42-.08-.62 1-.96 1.08-1.58.21-1.47.75-1.34-.13-3.2.94.02 1.91 1.09 1.4-.05 1.14-2.75 2.26-.89.74-1.89 1.75-1.57.8-1.76 2.51-.57 1.28-.72 2.39-2.06z" fill="#636c72" stroke="#fff" stroke-width=".5"></path><path id="GB-UKE" class="land" d="M674 852.85zm-12.19-76.02l.54 1.03.74.27.37 1.3 1.85-.39.6.86 1.34.91.08.93 4.87 1.71 1.03 1.66 1.68 1.42-.54 1.39.31 1.17 1.05.88h.68l1.45 1.56.91 1.9.03.88.65.71.06.85.43.07.4.71-.31.75.29 1.36.48.29-.03 1.09 1.17.37-.11.49-.57.22.06.63 1.54 1.56.03.8.6.44.83-.22 1.37 1.24 2.79 1.19-1.08-.12-.4 1.07.14 1.02.91 1.43 2.13 1.55 2.56.56 2.11 1.38 1.71.46 1.22 1.24-.54.78-.97.44-1.96-.05-1.34.53-.94 1.55-.57.22-.88 2.83.14 3.48 2.9 8.91 1.11 2.27 13.24 19 1.11 4.43-1.05-1.48-2.25-1.51-2.56-.65-4.38 1.58-2.76-.6-3.05-3.04-.43-.93-2.65-2.23-.88-2.38-.28.22-1.59-.74-2.11.14-6.35 2.28-1.68-.31-3.19.74-.83-.14-1.96-1.58-2.25.02-1.99.94-1.11 1.99.2 1.1.6.29-.51-1.2.26-.53 3.59-1.39.6.1 2.5 2.61 1 .41 1.82-.19 1.68-1.56 3.13.05 2.28-.58.23-.1 3.02-.74.77.14 3.62 5.66.14.14.17.24.91.46.74.62.23.48.08.07 3.99 3.64.83.43.28-.65.34.1.34.05 2.96 3.23.97 1.92-2.09.81-1.04-.24-.71.48-1.76 4.15.1.62.91 1.05-1.48 1.29-.61.05-1.2-1.21-.27-.83-.84-.45-.33-.72-1.31-1.12.33-2.05-.7-2.94 1.41-1.89-.03-.62-1.94-.12-1.48-2.03-2.52-1.58-.21 2.15-1.88 2.15-1.28.19-3.29-.89-3.09 2.39.03.33 3.89.26.63.57.06.69-.61.57-3.06.53-.64 1.5.23 1.19-2.09.91-3.13.93-1.76-.14-.93-1.05.61-1.98-.33-1.48-6.35-.74-.38 2.34-1.96 2.99-6.13-.51-.26-.24.97-.55.01-.38-1.46-1.38-2.58 2.1-.4 2.46-1.4 1.91-.43.33-.83-.48-1.91.07-1.08.88-1.57 2.07.21 1.93-.37.9-1.21.67.5 1.02-1.59 1.66-.51 1.15-3.41.18-.97-.67-1.05-.07.24-1.19-.48-.31-1.27.26-1.08 1.28-1.37-.12-1.11-.57-.1-1.26-.55-.31-1.96.14-1.38 1.43-3.72 1.47-2.01-1.31-.87.24-1.39-.5 1.68-1.9-.54-.64-2.96-1.21.2-2.12-1.51-.9-.75-.02-.57-1.38-1.67-.62.16-2.6-2.88-2.36-.43-2.43-1.05-1.65-2.8-1.38-1.35-.07-4.08-5.24-.57-1.79-1.48-.33-.36-1.8-.57-.65.19-1.41-.77-1.8-.95.05-.83.77-.9.24-1-.96-.7.07-.54-1.03-.47-.21.11-.75-.54-1.75 1.96-2.57.04-3.12 1.28-1.66 2.48-1.2.75-2.01-1.72-1.31-1.61-2.24-.38-2.27-3.54-1.86-.23-1.62-.61-.97-1.62-.19-.27-1.28-2.39 1.11-.67-.1-.65-1.57-1.79-.17-.64-.97.54-1.38-.46-.34-.46-1.79-1.32-.27-2.38.65-1.11-.17-.5-.63-.06-2.13-.43-.7-2.63-1.53-1.32-1.43-.33-1.28.2-1.99 1.47-.8.37-1 2.99-3.98.3-1.14 2.41.17.91-1.17 1.55-.78 1.18.85 1.01-.22.48-1.92-.57-1.41.27-3.43-.34-.83-1.45-1.07-.31-.71 3.27-2.85-.63-3.07.97-1.56 1.64-1.1 2.59.12 1.32-1.15.67.35.83.53 2.01-1.61 2.78-1.03 1.98.63 2.61 1.59 1.31-.02 4.08-2.27.06-1.13.71-.98.58.15 1.91 1.86 1.02-2.84.01-1.3.93-.17 1.24.49.57-.59 2.63.08 1.03.66.63 1.32 1.52-.37.48.34.67 1.66 2.32 2.15.63-.12-.27-1.25 1.57.17 1.17 2.71.61.56.57-.24.16-.59-1.05-2.79-.01-1 .38-.39.64.07.77 1.46.78.3.43-1.29 1.04.32.31-.41.63.41.4 1.88h1.47l.34.46 4.01-2.22.68-1.08 1.71-.54 4.48.69 2.04-.61 2.32 1.1 2.72-.66 1.07.22 1.17.95 2.65-.81 2.18.76.03-2.52.43-1.25.75-.93 1.35-.59.49-.89h.07z" fill="#636c72" stroke="#fff" stroke-width=".5"></path><path id="GB-UKF" class="land" d="M604.38 866.03l1.35.07 2.8 1.38 1.05 1.65.43 2.43 2.88 2.36-.16 2.6 1.67.62.57 1.38.75.02 1.51.9-.2 2.12 2.96 1.21.54.64-1.68 1.9 1.39.5.87-.24 2.01 1.31 3.72-1.47 1.38-1.43 1.96-.14.55.31.1 1.26 1.11.57 1.37.12 1.08-1.28 1.27-.26.48.31-.24 1.19 1.05.07.97.67 3.41-.18.51-1.15 1.59-1.66-.5-1.02 1.21-.67.37-.9-.21-1.93 1.57-2.07 1.08-.88 1.91-.07.83.48.43-.33 1.4-1.91.4-2.46 2.58-2.1 1.46 1.38-.01.38-.97.55.26.24 6.13.51 1.96-2.99.38-2.34 6.35.74.33 1.48-.61 1.98.93 1.05 1.76.14 3.13-.93 2.09-.91-.23-1.19.64-1.5 3.06-.53.61-.57-.06-.69-.63-.57-3.89-.26-.03-.33 3.09-2.39 3.29.89 1.28-.19 1.88-2.15.21-2.15 2.52 1.58 1.48 2.03 1.94.12.03.62-1.41 1.89.7 2.94-.33 2.05 1.31 1.12.33.72.84.45.27.83 1.2 1.21.61-.05 1.48-1.29-.91-1.05-.1-.62 1.76-4.15.71-.48 1.04.24 2.09-.81.88 1.06 1.34-.19 1.17 1.65 1.34.6.37-.31.97 1.07 1.14.31.97 2.79 1.25 1.41.09.6.6.12.23 1.86 1.85 3.07 1.82 4.61 1.31 2.33 1.17 3.37.06 1.49.85 3.08-.57 6.2-.48 1.7-2.02.59-1.54 1.8-1.02.62-.06.42-.6.12-.63.87-1.85 1.18v.42l-.65.21-.29.69-.71.26.26.47-.91.31-.09.66-.48.14-.23.83-.46.09.23.47-1.62 1.96-.43 1.51-.48.71.2.54-.4.96.65-.16-.06.47.63.07.23.45 1.4-.38.68 1.04.4-.21.08.8.68.42.8-.17.65 1.06-.26.38 1.25 1.22.54 1.69.88.56.11-.31 1.39.45 1.27-.33-1.33 3.93.84 1.13-.13.52-3.93 2.93-2.58-.3-2.66 1.45-1.91.21-.38.42.23 2.53-.47 1.17-.81.73-1.65.04-2.63-.91-1.61.7-.95-.16-1.85 1.12-1.17-.49-1.17.21-.84-1.21-3.2.74-2.72-1.36-4.45 2.25-1.72.02-1.59-.56-1.23.57.82.97.44 1.33-.4 3.46.67.51 2.41-.34-.07 1.33.86 1.08-.45 2.15 3.03 1.83.64 2.89-2.42 3.63-1.72 1.37-.48 1.12-3 1.42-.06 1.42 1.24 2.09.14 1.24-2.27.48-1.14 1.65-.34 2.81-.47.33-.9-.19-.97-1.3-.67-.21-2.6.58.36 3.59-1.02 1.97-3.82 2.57-1.69-.07-.73 1.3-1.57-.44-.98 2.06-2.69.95.03.83 2.56 2.82.01.65-1.45.48-.03 1.5-1.73 1.7-.58.12-2.01-4.43-.48-.16-2.09.9-1.67-.14-.68.92-3.07.81-1.14.74-1.17 1.43 1.72.71-1.55 1.62-1.22.14-1.1.81-2.59-.16-1.13.32-.46-.28-1.62-4.91.14-2.7-.66-.51 1.69-.88 1.54-.21.33-.46-4.3-5.45.93-1.63 2.79-1.18.17-.88-1.03-1.25-.03-.58 2.96-1.85-.04-1.88-.78-.83 1.11-1.58-.28-.42-1.72-.39-.4-.72.83-.65 2.68-.91.81-.81-.1-.91-2.28-4.77-1.51-.86-2.68-4.47-5.25-2.78-1.1-1.91-3.99-1.78-1.17-1.52-1.44-.54.19-1.68-.85-1.75 1.14-.7.14-.98-2.36-2.97-.16-.68-.85-.05-.41-.7-.73.87-.92-.12-.3-1.83-1.82-.68-.97-.97 1.43-2.71 2.22-1.17.73-2.18 1.24-1.08-.9-1.67-1.14-.89-4.63-.35-1.75-1.76-1.68-.05-.63-.59-1.22-.17-.16-1.27-.71-1.2.03-1.67.84-.05.36-.42.24-2.66 2.79-1.79.63-1.49-.1-1.89-.84-.83-.27-.83-.36-2.48.23-1.65-1.42-2.41-.21-2.56-1.05-1.23-1.67-1.14-3.87-1.59-1.04-1.61-1.25.56.31-1.96-1.01-.97-.38-8.05-.16-.97-.9-1.38.1-.61.63-.32 1.18-2.07-.47-.69-1.08-.52-.07-.64.2-.64 1.37-1.41.97-4.37 1.59-.1.7-.43z" fill="#636c72" stroke="#fff" stroke-width=".5"></path><path id="GB-UKG" class="land" d="M600.3 893.93l1.24-.55 1.04 1.61 3.88 1.59 1.66 1.13 1.05 1.24.22 2.55 1.42 2.42-.23 1.65.36 2.48.27.83.84.82.1 1.89-.63 1.49-2.79 1.79-.24 2.66-.36.43-.84.04-.02 1.67.71 1.21.15 1.27 1.23.16.63.59 1.68.05 1.75 1.76 4.62.35 1.14.9.9 1.66-1.24 1.08-.73 2.19-2.22 1.17-1.43 2.71.98.97 1.82.68.3 1.83.92.12.73-.87.41.7.86.05.15.68 2.37 2.97-.15.98-1.14.71.86 1.75-.19 1.68 1.44.54 1.17 1.52 3.98 1.77 1.1 1.92 5.25 2.77 2.68 4.48 1.51.86 2.28 4.77.09.9-.81.82-2.67.9-.83.65.4.72 1.72.4.29.42-1.11 1.58.78.83.04 1.88-2.96 1.85.03.58 1.03 1.25-.18.89-2.79 1.18-.93 1.62-.63.78-.4 1.48-1.65 1.35 1.15 1.15-.34.76-1.11.28-1.44-1.32-.95-.09-.59.12-.15 1.38-1.53.19-.24.99-1.04 1.32-.74 5.19-.42.83-1.41.3-.22 1.29-1.86.16-.37.95-.54.07-2.49-2.41 2.06-3.54-.45-.32-1.86.3-.88-.35-1.65-2.84-.47-1.64-1.08-.37-1.07-1.36-1.05.57-1.82 2.5-1.5-.35-1.04.86-.04.37.8.41 1.07 1.57.12 1.25-.34.94-.6.03-1.8-1.69-3.25-.18-1.47.34-3.07 2.17-2.09-.64h-1.75l-1.24 1.03-.68-.91 1.45-2.98-2.55.13-.6 2.76.85 1.03-.76.6-1.71-.26-1.34 2.22-.9.11-2.87-.9-1.74-3.43-1.39.23-1.26 1.45-1.01.44-.84-.42-.61-1.56-.99-.54-1.06 5.12 1.08.86.29 1.47 1.07 1.2-.03 1.56-1.84 1.15-1.82.23-.71 1.75-1.58-.23-1.44.6-.35.8-.65-.16-1.12.74-.48-1.31h-.35l-.58 2.59-.56.61-.33-.72-.89-.19-.8-1.12h-2.02l-1.51-2.23-.61-1.61-2.16-1.31-2.34-2.26-1.49.21-2.48 1.63-.88-.25-.33-.81-1.09-.5-.29-1.48-1.76-1.65-1.16-1.66-1.81-3.23.39-1.13-.16-.9-1.55-1.9-.76-.09.59-2.3.81-1.19-1.39-.6-.13-.6 2.77-1.76-.02-.81-1.46.3-.47-.99 2.67-4.08.34-1.34 1.34-.93.81-1.11 3.03-.49-.26-.77-1.61-.44-.55-.95.45-1.93 1.81-1.2.19-.63-.21-.76-.93-.43-2.38.51-2.35-.39-1.85-1.98-1.86-1.28-1.34-1.65-1.52-.56-.93-1.77v-1.65l.93-1.35 2.39-.93 2.09-1.36 4.06-.21.5-1.4 1.45-.46.87-1.92-1.87-2.33-2.93 1.98-.94 1.45-1.21.26-.47-.26.58-1.4-.88-1.73.04-1.35 2.24-1.59.85-3.14 1.78-1.26-.18-2.44 1.11-2.48 2.16-.37.66-.9-.06-.51-1.8-1.06-.45-1.05-2.96-.68-.85-1.32-1.97-.26-.91-.37-.47-.64-.77-2.16.23-1.01 1.65-1.88-.64-2.3 1.79-.92.37-1.6 1.25-1.09.32.12 3.33-2.47 1.6.07 1.76 1.7 2.52-.78 1.31.19 3.6 3.48 1.71-1.36 1.55-.21.14-2.45-.55-1.74 5.38-1.64 1.7.76.6 1.98 1.01-.24 1.58.78.74-1.22 1.74.63 1.51-.23.95-.69.37-1.15 2.3-.94.63-.9-.38-3.14.41-1.28 1.56-.33 1.53-1.96 1.71.14 1.32-.54 4.55-5.42 1.18-.24.2-.64-.37-1.37.67-.09 1.19.78h1.71l1.93-1.61 1.29-.12z" fill="#636c72" stroke="#fff" stroke-width=".5"></path><path id="GB-UKH" class="land" d="M751.23 1011.41l1.96.73-.09.3-2.96 1.79-2.48-.07.2-.99L749 1012zm-14.29-98.82l2.79.59.34.99.08-.68 1.03-.26 2.16.33-.11.54.57-.45 1 .02.11.4-.37.28.65.85-.03-.57 1.05-1.41.6.33-.14.49 1.48-.21.43.47.43-.19.37.54.85-.12.65.33.31-.35 2.99-.09-.57-.35-1.48.14-.48-.26.91-.52 6.89 2.33 4.19.35 4.53 1.06 6.49 4.1 2.51 2.56 7.86 6.67 3.59 4.62 2.42 7.96-.63 6.12 1.59 6.25-1.39 2.31-.48 4.84-1.79 3.58-.51 2.3-.4.88-1.42 1.37-.71 1.72-.46 7.37-.71 1.58-1.59 7.08-5.41 2.91-1.54 1.99-.68 1.84-1.85 1.43-.2-.99-1.28-.83-.11-1.11-1-.83.43-.51v-.65l-.54-.55.11-.97L769 989l-.11.02 1.14 1.59-.03.88.68.53-.37 1.04.91.81.23 1.29.8.37.66 1.06-1.05 1.98-1.39.6-1.28 2.05-.06-1.52-1.79-1.52.03-2-4.84-1.82-.94-1.22-.54-.16-.23.02 1.31 1.78.97.23.57.81 2.93.78.48 2.54-.51.21-1.14-.51-1.42.67-1.59-.23-.48-.83-.8-.14-1.65 1.11-1.54-.02-.74-.37-.94.8 2.71.72 2.5-.69 1.14.65 1.39-.35.54.21 1.4-.51 1.05.78.06-.51.77-.35-.03 1.01-1.05.69-1.28 3.29-.65.21-.14.14-.94.39.65-.02-.06.55.43-.69 1.4-.14.31 1.75.31-.28-.43-1.56 1.45 1.01-.14.97-2.36 3.15-1.71 1.47-2.65 1.47-.29.14-1.91 1.1-3.53.25-.68-.64-.03-.78.26-.28-.97-.94 1.31-.12 1.08-.94-1.22.71-1.59-.09-1.34-1.72.06-.76.34-.12-.68-.87-.03.21-.14 1.38.37.96-.8-.34-.14-.02-.66-.09 2.08 1.33-1.14-.5-2.25.46-.34.69-1.14 1.35-.14.71-.63-.69-1.65-.16-.17.23 1.62.16.94 1.12-.63.23-1.14-.37-.2-.09-.09.12.23.23-.2.28 1.39.3-1.59 1.35-1.99.28-1-.44-.11.23-.14.32-1.31-.32-1.37.94-1.03-.6-.46 1.03-.71-.85-.14.6.43.05.65.94 2.93.53-.85.66.06.48-.83.46.74.07.71-1.17.28-.14 1.11-.39-.03-.73.66.16.63-.41.85.5 1.25-.25.77-.34 1.11-1.81 1.77-.28.91 1.05.11 1.05-.46 1.58.43 1.63-.65 3.85-.37.53.51.82 1.05-.07-.2.55-1.94 2.33-2.76 2.26-1.11-.16.43.59-3.22 2.58-1.25-.52-5.01-.89-1.22-.14.17.3-.88.43-1.39-.32.31.53.71-.05.71.66-.94.62-1.37.27-.29-.32-.48.55-1.11-.18-.4-.57.03-.11-.91.04-.51-.98-.54-.04.46.25.23.96.94.34-1.51.53-2.88-.02-.68 1.12-.26 2.39-1.25.61.14.42-2.46.55-1.27-.25-1.5-1.57-2.39.73-2.15-1.37-.36-.37.11-.66 1.2-1.07.29-1.73 1.28.27.37-.84 2.88-1.07-1.42-3.2-1.22-.41-.71-.8-1.15-2.79-.85-.14-2.39.8-3.71.32-.85 1.05-.6.14-2.72-1.65-.48-1.3-1.75-1.07.3-1.33-.22-.92-7.01-.98-1.3 1.88-1.39.34-.87.66-1.07-1.49-.81 2.31-3.42.8-2.72 1.65-2.97-.07-1.38.37-.57-.55-.58.11-.62 2.07-1.29-1.38-.36-1.42.09-1.33 1.38-2.84-.5-.3-1.57.34-.11-1.53-.58-1.24.13-.64 1.27-.99-.16-.55-.75-.34-1.2.57-1.24-1.4-2.18.02-1.57-.8-.6-.89-.24-2.18-.94-1.01-.67-.09-1.04-1.54.87-1.7.6-.12 1.38.55-.1 1.15 1.15 1.47 2.05.14 1.76.69 1.41-1.68.94.18-.03-.62-1.38-2.3-2.15-2.09-1.15.3-1.82-1.66-1.38-.53.91-2.76 1.47-2.14-.64-2.17 1.01-1.36.23-1.98-.41-.72-1.04-.16.94-1.41 1.28-.58-.17-.95 2.29-1.87-.74-1.78-2.23-2.37.53-2.37-1.7-1.47 1.02-1.97-.36-3.59 2.6-.58.67.21.97 1.3.9.19.47-.33.34-2.81 1.14-1.65 2.27-.48-.14-1.24-1.24-2.09.06-1.42 3-1.42.48-1.12 1.72-1.37 2.42-3.63-.64-2.89-3.03-1.83.45-2.15-.86-1.08.07-1.33-2.41.34-.67-.51.4-3.46-.44-1.33-.82-.97 1.23-.57 1.59.56 1.72-.02 4.46-2.25 2.72 1.36 3.2-.74.84 1.21 1.17-.21 1.17.49 1.85-1.12.95.16 1.61-.7 2.63.91 1.65-.04.81-.73.47-1.17-.23-2.53.38-.42 1.91-.21 2.66-1.45 2.58.3 3.93-2.93.13-.52-.84-1.13 1.33-3.93 2.26.28-.43.23 1.42.96.31-.82.48.16 1.96-2.21 1.03-.12.26-.68.51.21.37-1.03-.11-1.46 1.25-2.5.91-3.72 2.08-2.26 1.91.02.31.33.88-.45 2.08.21 1.17-.54 1.08.31-.26.71 1.59-.99-1.05.33.03-.78-1.05.38-.11-.57z" fill="#636c72" stroke="#fff" stroke-width=".5"></path><path id="GB-UKI" class="land" d="M676.31 1029.36l.62-2.06.58-.12.57.55 1.38-.36 2.98.06 2.72-1.64 3.41-.8.81-2.31 1.07 1.48.87-.66 1.39-.34 1.3-1.88 7.01.98.22.92-.3 1.33 1.75 1.07.49 1.31 2.72 1.64.59-.14.86-1.05 3.71-.32 2.4-.8.85.14 1.15 2.79.71.8 1.23.41 1.42 3.2-2.87 1.07-.37.84-1.29-.27-.28 1.73-1.2 1.08-.11.66.36.36-.63 1.35-1.55 1.57-1.04 1.68.43 2.35-.72 2.77-3 3.57-.14 1.86-1.28.48-1.06-1.02-1.32.43-.31-2.36-.84-.89-1.37-.11-1.02 1.25-.97-.07-.98.43-.89 1.5-1.33.29-1.19-1.13-1.39-2.96-.53-.04-1.58.93.07-2.02-1.28-1.68-1.29.97-1.28 2.68-.97.39-.14-1.88.86-1.91-.69-1.8-1.63-.14-1.62-1.05-1.29-1.47-1.61-.44-.44-.63-.06-1.3-1.65-.41-1.21-1.56.65-1.36.67-4.56z" fill="#636c72" stroke="#fff" stroke-width=".5"></path><path id="GB-UKJ" class="land" d="M634.8 1096.49l.63.61.83-.54 1.88 1.86 1.25.38-.08.34 2.65.11.28-.02 2.51.94.65 1.3.03.96.2-.2 1.14.67.03.43-1.37.99-.08.54-1.79.16-1.54 1.23-.6 1.99.06 1.23-.57.83-3.3 1.32-2.56.45-4.67-4.25-2.76-1.14-2.08-1.99-1.37-.27-3.02.9-1.17-.27 1.22-.31-.03-.65 1.14-.4.71-1.25-.09-.49.63-.58 2.76-.2 2.25-1.37.66.13-.08.79.51-.45.51.36-.17-.74h-.6l2.82-1.05.46-.99 1.14-1.1zm18.02-4.92l.14.61.17 1.42-.48-.07-.31-.52-.34.38 1.17.72-.57.07.31.22-.51.29.74.27.14-.07.4.4-.11.43-4.44-.81-.08-.76 1.14.18.68-.7.31-1.46-.37-.4 1.14-.72zm87-50.52l1.05.62 1.22.11 1.74 1.16 3.99.71.46.89 1.37 1.21.65 1.39-.23.66-.43-.14-.88.86-1.31.3-2.16-.86-2.79-.32-.43-.39-.6.46-.63-.18.08-1.16-1.88-1.37-.48-1.05.51.36.57-.27-.37-1.14zm-71.76-61.5l1.7 1.47-.53 2.37 2.23 2.37.74 1.78-2.29 1.87.17.95-1.28.58-.94 1.41 1.04.16.41.72-.23 1.98-1.01 1.36.64 2.17-1.47 2.14-.91 2.76 1.38.53 1.82 1.66 1.15-.3 2.15 2.09 1.38 2.3.03.62-.94-.18-1.41 1.68-1.76-.69-2.05-.14-1.15-1.47.1-1.15-1.38-.55-.6.12-.87 1.7 1.04 1.54.67.09.94 1.01.24 2.18.6.89 1.57.8 2.18-.02 1.24 1.4 1.2-.57.75.34.16.55-1.27.99-.13.64.58 1.24.11 1.53 1.57-.34.5.3-1.38 2.84-.09 1.33.36 1.42 1.29 1.38 1.13 3.37-.67 4.56-.65 1.36 1.21 1.56 1.65.41.06 1.3.44.64 1.61.43 1.3 1.47 1.62 1.05 1.62.14.7 1.8-.87 1.91.14 1.89.97-.39 1.28-2.68 1.3-.98 1.28 1.68-.07 2.02 1.58-.93.53.05 1.39 2.95 1.18 1.14 1.34-.29.88-1.5.98-.43.97.07 1.02-1.25 1.37.11.84.89.31 2.36 1.32-.43 1.05 1.02 1.28-.48.14-1.86 3-3.57.71-2.77-.43-2.34 1.04-1.68 1.55-1.57.63-1.34 2.15 1.37 2.39-.73 1.5 1.57 1.27.25 2.46-.55.23.47 2.02-.8-.23-.89.23-.14.14-.64 1.05-1.07 2.11.25 1.31-.25.29.46.88-.23.68.34.11-.32 1.42.75 1.62-.3 1.34.59.6-.3.88.21 1.14 1.48.03.93-.43.59-2.08.3.03-.55-.97-.84-.31.43.57.59-.8.11-.17-.14-.28-.27-.66.27-.29.66.31.41-.97.64v.46l-.46-.46-1.03.05-.65.52-1.28-.34-.48.27.85.11.37.75 1.2.71 1.31.02-.14.25.68.73.46-.27-.2-.52.85-.02-.48 1.05.8-.91v-.68l.43-.14 1.28 1.73.65-1.3.85-.02-.37.8 1.17-.5-.48-.09.11-.25-.65-.55-.14-1.66 1.62-.3.23.66-.66-.11-.14.34.51 1.12 1.91 1.21-.2 1.05.26.7 2.19.21.29.48 3.25.02 1.05.79-.06.23 1.02-.32 4.33-.2 1.59-1.48 6.43-.59 2.53-.61 3.62.25.6-.41 1.34.16.94-.46 2.28-.07.4-.48 2.05-.09.85.59.37 1.09-.31 1.96-1.2 1.64.2.41-2.42-.34-.74.7.46.5.29 2.07 1.4 4.4.08 5.05-.37 1.16-1.2 1.58-1.62.66v.61l-1.45.11.06.7.37.25-1.11-.23-1.68.97-2.25.18-1.99 1.58.28.29-6.01 1.04-1.48.79-2.05 1.81-1.42 2.12-.71 3 .97 4.06-.2.52-1.74.09-8.65-1.76v.5l-1.22.29-1.82 1.35-2.53 2.84-3.56 1.39-3.7.43-2.5.99-3.08.47-2.79 1.24-.97.9-.54 1.24.03.11-.2.25-1.14.56-1.82 2.09-.51 1.1-1.02.36-1.71-.34-2.93-1.64-.6.25-1-.22-2.45-1.86-1.02-.02.28.47-7.63-2.9-.85.22-.34-.49-1.08-.31-.08-.02-1.05-.29-4.21-.61-.26-.04-.31.07.08.32-1.71-.04-5.58 1.66-7.63.31-7.83 1.84-2.33.99-2.56 3.61-2.93-2.62-3.64-2.04.06-.79.37.18-.06.45.77-.81.48-1.3.83-.07 1.28.7.91-.38.63-.83.11-1.24-.51 1.28-1.08.81-.43-.04-1.05-.63-.09-.04-1.34.67-.08-.56.57-.22-.37-1.1.2-.72-1.03-.16.37 1.42-.28 1.5-1.68-1.21.57-2.07-.94.05-.14.65-.97-.56-.28.58-1.03-.63-1.03-.04.17.54-.4.22-.06.58h-.4l-.23-.65-.63.16.46.67.11 2.4.37-.2.17.7-3.19.9-1.02-1.06-.17-.9.37-.74.2-.16.17-.65-.09-.52.57-.25-.91-.63.17-.72-.54.02.17.7-.31.2-2.25-.72-.71.43 1.34.25-.06.67.65 1.06.83.56-.17.52.37.09.03.11.26.72-1.51 1.37-.91-.85-1.65-.52-1.71-1.91-1.22-.31-.68-.67-2.13-.97-.14-1.12-.28.27-.66-.31-.06-.11-3.05-2.99-.06-1.04.71-.63-.23-.43-.54.07.54.43-.63.45-.23 1.8-1.02-1.37-1.34-.7-.4.34-.54-.13-.83-1.17-.26.34.71.99 1.17.11.08.32 1.08.29 1.03 1.89.8.07-.23.38.48.61 2.65 1.6h-.17l-.28.29.68.72v.61l.65.27-1.62 2.36-1.82.07-1.11.47.11.13.8-.18-1.74 1.03-3.53.88-.23.07-.8.13-.68.27-.17.22-.85.25.28.65-1.68 1.12.2.81-.8-.29-.48-.25-4.42-1.3-.26-1.54h-2.95l-.04-1.91-2.64.75-.68-1.11-.5-1.59.14-1.37.54-1.01-.49-2.92-1.39.15-.33-2.07 1.42-1.15.33-1.94-1.64-.34-1.31.88-.88-.16-1.41-1.55-2.19-3.61 1.21-.91 2.95-.51.01.79.56.11.54-1.02.5-.16 1.37 1.33 2.26.5 1.34.7 2.18.25 1.39 1.65.81.36 2.28-.77.56-1.4-1.11-1.44.3-.86.97-.99-.31-.72-.98-.63.09-1.63-.57-2.6.48-1.81-.36-.72-1.22-.75.26-1.92-.37-1.74-1.55-2.76-.57-2.56.81-.27 2.69.48.68-.36.75-1.13 1.04-.43 2.12 1.04.54-.61-.58-1.88.98-2.2-.34-2.23 2.04-.23.06-.93-.57-.86-.06-.96-1.81-.93-1.54-2.84.51-.66 1.61-.46-.33-2.1-1.14-.82-1.32-2.26-.41-2.34-.94-.23-2.25-3.97-1.11.04-.36-.39-.13-2.22.92-.94.27-1.71-1.51-1.53-.14-1.53.17-.78 1.75.4.26-.49-1.64-2.06-.84-4.77-.85-1.03 1.54-1.84.17-4.8.92-2.3 1.04-.9-.44-1.34 1.71-1.79-.31-1.11-1.95-1.17.23-2.06 2.49 2.41.54-.07.37-.94 1.86-.16.21-1.29 1.41-.3.43-.83.74-5.19 1.04-1.32.24-.99 1.52-.18.16-1.39.58-.12.95.09 1.44 1.32 1.11-.28.34-.76-1.15-1.16 1.65-1.34.4-1.48.64-.78 4.3 5.45-.33.46-1.54.21-1.69.88.66.51-.14 2.7 1.62 4.91.46.28 1.13-.32 2.59.16 1.1-.81 1.22-.14 1.55-1.62-1.72-.71 1.17-1.43 1.14-.74 3.07-.81.68-.92 1.67.14 2.09-.9.48.16 2.01 4.43.58-.12 1.73-1.7.03-1.5 1.45-.48-.01-.65-2.56-2.82-.03-.83 2.69-.95.98-2.06 1.57.44.73-1.3 1.69.07z" fill="#636c72" stroke="#fff" stroke-width=".5"></path><path id="GB-UKK" class="land" d="M376.18 1166.04l1.15.33-.07.48-.46-.33-.04.77-.36-.53-.37.18.17-.53-.13-.11zm2.79-3.03l1.01.62-.24.18.31.46-.19.53-.07.11-.34.33-.83-.18-.06.68-.56-.86-.33.44-.34-.4.95-.31-.26-.77.21-.57zm-3.23-2.4l.57.99-.11.77-.63.26-.1-.44-.1-.33zm.64-.09l1.14.75.34 1.3-1.05.35.19-.49-.44-.64.24-.15-.7-.88zm2.28-.9l.78 1.15 1.14-.18.17.4-1.18.55-.27-.49-.8-.15.34-.49zm187.27-149.33l.58-2.6h.34l.48 1.31 1.13-.73.65.16.35-.81 1.44-.6 1.58.23.71-1.75 1.82-.23 1.84-1.15.03-1.56-1.07-1.2-.29-1.47-1.08-.85 1.05-5.12 1 .53.61 1.57.84.42 1.01-.44 1.25-1.45 1.39-.23 1.74 3.44 2.88.9.9-.11 1.34-2.21 1.71.25.76-.6-.84-1.03.59-2.76 2.55-.14-1.45 2.98.68.92 1.24-1.04h1.75l2.09.65 3.07-2.17 1.47-.35 3.25.18 1.81 1.68.6-.02.34-.95-.13-1.25-1.07-1.57-.8-.42.04-.37 1.04-.86 1.5.35 1.82-2.5 1.05-.58 1.07 1.36 1.08.37.47 1.64 1.65 2.84.88.35 1.85-.3.46.32-2.07 3.54-.23 2.06 1.95 1.17.31 1.11-1.71 1.79.44 1.34-1.04.9-.92 2.3-.17 4.8-1.54 1.84.85 1.03.84 4.77 1.64 2.06-.26.49-1.75-.4-.17.78.14 1.53 1.51 1.53-.27 1.71-.92.94.13 2.22.36.39 1.11-.04 2.25 3.97.94.23.41 2.34 1.32 2.26 1.14.82.33 2.1-1.61.46-.51.66 1.54 2.84 1.81.93.06.96.57.86-.06.93-2.04.23.34 2.23-.98 2.2.58 1.88-.54.61-2.12-1.04-1.04.43-.75 1.13-.68.36-2.69-.48-.81.27.57 2.56 1.55 2.76.37 1.74-.26 1.92 1.22.75.36.72-.48 1.81.57 2.6-.09 1.63.98.63.31.72-.97.99-.3.86 1.11 1.44-.56 1.4-2.28.77-.81-.36-1.39-1.65-2.18-.25-1.34-.7-2.26-.5-1.37-1.33-.5.16-.54 1.02-.56-.11-.01-.79-2.95.51-1.21.91 2.19 3.61 1.41 1.55.88.16 1.31-.88 1.64.34-.33 1.94-1.42 1.15.33 2.07 1.39-.15.49 2.92-.54 1.01-.14 1.37.5 1.59.68 1.11 2.64-.75.04 1.91h2.95l.26 1.54-2.58.04-.91.83-.43 1.01-4.16-.72-2.88.56-1.54.83-1.54 1.7-.34-.34 1.05-.76-.8-.83-.06-.2-.68-.02.23-.49-.77.43-.74-.16-.31.43-2.48-1.03-.17.36-.91-.11-.37.61.4.18-.63.13-.34 1.41.83-.04.43-.9.8-.63.71-.04.43.43-.68.04.34 1.14-.09.29.23.22.54-.13.14.58.37.29.28.4.83-.78-.23.58.57.31-.26.34.46-.09-.06-.54 1.03-.78.43.54-.57 1.75.57.76.94-.02-.46.87-.83.34-.43.69.06.72.66.09-.37.29-.06.85-3.84.42-1.42.98-.43-.36-.06-1.01-2.65-.45-.97-1.1-.66.34-.54-.56-1.51.04.11-.29-.54-.31-2.48.51-.17-.29-3.96-.42-.68-.58-4.41-.31-1.48 1.79.09.36.4-.02-.26.67-.11.04-1.02 1.25.37.98.68.42.83-.36.57.22-.29.25.68 1.3-.14.63-1.96 2.35-.29-.27.2-2.1.46-1.32-2.28-2.53-6.63-5.46-5.95-3.58-2.76-1.26-6.04-1.28-.83.31-.46.87-3.79 1.59-3.47-.27-.74.58-.2.85-4.64.02-2.42.49-1.59.63-1.82 3.22-2.71.96-.26 1.01-.34-.27-1.14.22-2.02-.83.46-.29v-.81l-.83-1.19-.91-2.44-.48.04-.34-.49.03 1.63.77 1.01.37 3.54.94-.69-.06.6-1.88 1.99-.26 1.52-1.37 1.53-.28-.19-1.62-.13-2.59.6 3.93-.2.54.29-.8 2.19-.17 2.32.91.51-.2.33 1.02.8-1.85.65-1-.69-1.08 1.47-.14.6.4.67-.37.18.2 1.49.54.38.85-.2.77.49 1.62-.02-1.08.89.37.6-1 .65-.06 2.03-1.42 1-1.36-1.22-.38-2.03-.56-.74.58-.57-1.71-.02-1.17-.65.09.18.37.47.83.51.74-.38-.14.56.6 1.05.06.6.37 1.27.63.38.06.53-.4.8-2.08.62-1.48 1.96-.91 4.15.11.84.8.84-.88.22-1.25-.29-1.28 1.33-.8.27-.77-1.04-1.71-.58.43-1.2 1.57-.13-.17-.36-1 .27-.14-.91.51-.16.09-.6-.51.49.06-.51-.4-.02.08-.98-.28.13-.34-.4.34 1.18-.97.51 1.11.09.28 1.18-.51-.31-.65 1.09-.11 1.6-2.02-.58-.6-.8-1.76-.95-.11-.35.6.04.11-1.44-.6-.24-.74-1.04.2-.4.03-.2-.85.22-.06-.47-1.05-.64-1.42-.07-.14-.82-.68.29-1.62-.31-2.13 1.16-2.11-.96.68-.6-.4.02-.71-.49-1.39.18-.54-.75.06-.89-.37-.04.31-1.11-.54-.8 1.14-.07.54-1.47.77-.58-.88.36-.77 1.38-.79-.09-.14.31-1.59-.07-1.03-.29.09-1.02-1.03-1.63.6-1.98.71.13-.57-.51.85-.51.97-1.92-1.65 2.05-1.57-2.79-.54.45.06.45.54-.54.34 1.47.57.71-.29.65-.28.22.2 1.54-.31.67-1.37.49-.8.78-.71-.31-.23.85-.79-.78-.04-.67-.48.38-.23.09 1.34 1.14 1.62-.27.66-1.02 1-.22.54.36-.34.25.57.27-.31.22.46.13v.51l-2.02.6.85.09.17.62.37-.51.54.16v.56l.8-.65.51.18.23 1.04-1.71.96.57 1.29-1.03-.04-.8.58-.17-.71.4-.4-.37-.58-3.33-2.13-3.84-.11-1.03-.36-2.53.29-.85.73.11.62-1.14.47-.06.47-1.25-.31-.14.47-1.88.56-2.45-.69-.63.69-.29-.4-1.45.36.09-.85.08-1-.4-.02-.85 1.91-.74.04-.2.71-.66-.47.11-1.47-.43-.67-3.59 1.45-.23 1.25.54.51.08.69-.6-.18-1.02 1.11.34.58-.4 1.35 1.05.42-1.05.89.23.67-.88.53v.89l-.37.11-.43-.95-1.28-.16-.23-.4-1.57.51-2.39 2.84-.65-.95-.77.09-1.31 1.71.06 1.62-.6.51.14.49-.71.22-.68.8-.4-.11-.08-.75.4-.38.26.24.6-.8-.48-.58-.09-.16.03 1.11-.48-.15-.6.33-.17-.4.57-1.95-.43.15-.4-1.6-.77-.07-.91-.44-.51.16 1.08 1.33.03.82.43.24.08.35-.48.87-1.11-.18.63.84.74-.24.4 1-.65-.35-.77.55-.51-.29.34.82-1.08.69.26.09-.08.82.48.38-.88.8-.66-.33-.65.4-.85-.13-2.73.89.17.4 2.53-1.02.34.27 1.51-.11.63.53-.88.31 1.79-.13-.23 1.42.68.16.08.84.46.29-.57.35-.14 1.11-1.34.51.23.97-.31.07-.17.82-.65.11-.46-.49-2.08.22-.35 1.19-.78.91-.01 1.35-.61-.02-.04.35-1.04.22-.08-1.19-1.48-.4.13-.68-.58-.38.06-.6-.57-.22-.09-.57.54-.57.11-.75-.46-.4-.08-.77-.77-.4.31-.51-.85-1.37.51-.4-.08-1.06-.46.13.14.6-.43.38-1.79-1.55-1.51.16-1.34-1.17-.46.24-.66-.31-.91.58-.31-.91-1-.44-.37-.69-.71.02-.28-.35-.94-.16-1.57.38.03.64-.91.66.8 1.46-.51 1.39-.46.84-.65-.09-.68.88-2.36.13-.71.8-.74-.27-.08.46-1.25.2-.48-.26-.43-1.28-.83-.27-.34-.95 1.45-1.55-.48-.91-.11-1.55-.51-.67.37-.07-.06-.55.54-.2.08-1.02.94-1.22 2.19-.09.65-1 .57-.11-.14-.33.54-.67.46.33.74-.91.54.07 1.37-1.29.68.16 1.34-.47.68.38.63-.27-.26.47.57.53v.51l1.57.44.17.13.2-.47.91-.67 1.05-1.66-.2-1.02.94-.31.43.6 2.08-.49 1.34-1.62.43.11.97-1.11 1.45-.71.63-1.29v-1.51l1.77-.11.97-1.09-.03-.51 1.39-.62.37-2.14-.46-.31.26-.22-.37-.53.77-.47-.2-.89.37.11.23-.38.83.25.23-.2-.54-.36 1.22-.07.11-1 .68.78.65-.22 1.62-2-.06-1.58.57-.31-.43-.47.2-1.61-.51-.33 1-.96-.2-.98.29-.4.03-1.05-.8-.38.17-.4.6-.2.37.56.71-.13.14.51.88-.18.6-1.23.51-.13.46-.76h.48l-.23 1.05.71.51-.17.67.37.89.46-.11 1.14.42 1.05-.36 1.54.29-.03-.4-.54-.29-1.54.02-.34.45-.94-.58.08-.4-.71-.31.09-1.21-.29-.25.83-.89-1.03-1.03.88-.54.51.78 1.2.18.77-1.03.57.16.51-.42.37.38.83-.02 1.54-.36 1.2-1.9.17-1.68.37-.11.06-.63-.37-.29.17-1.17.88-.07.23-.45.43.38.48-1.1.94-.02.37-.67.88-.13v-.7l.68-.18.68-.74.28-1.23-.23-.7.68.11.28-.22-.23-.36 1-.45.37-.83 1.11-.36 1.51-1.28.2-3.82.31-.13-.43-3.94-.4-.47.34-.52-.43-1.04.77-1.78.43-.2-.17-.99.85-2.03-.14-1.06.31-.56-.28-1.85.43-.23.06-.92 1.14.32 1.71-.23 1.05.56 1.22.04 1.82 1.6 2.42.45 2.22-.88 2.08-3.16 1.17-.38.74-1.76.71.29-.03.68.48-.43.48.32v.79l-.65.88.17.16.97-1.36-.03-1.33 1.37-1.22 1.45.18.6-.99 1.79 1.08.74-.23h-.63l-2.16-1.22-.8.79-1.14-.04-1.45.77-.17.86-1.17-.7-.54-.97.03-2.51-1.2-.43.37-.84-1.31-.81.29-.43 1.76.23.37-.43.34-1.81-.29-.75-.8-.57 1-.18.46-.82 1.39.18 2.71-1.13.71.23 1.11-.66.68-.02 1.59.84.65-.7 3.64-.27 1.65-1.02 1.65.63 2.25-.88 2.14.25 1.14-1.16.8.68 7.09 1.16.68.54 1.51-.57.57-.66 1.74-.07 2.5.7 1.45 1.41 1.05-.16 1.88 2.08h4.16l.74.36 2.02-.11 3.81-1.79 1.05.18 1.28-.72 1.37-.16 1.51.2 1.05.59 1.11-.13 1.28-1.18.66-.11-.56 1.71-.78.24-.48.86 1.59-.93 1.22-3.33-1.05-2.7.46-4.25 1.02.02.46-2.2-.68-.75 1.48-.55.23-.84v-.64l-.97-.52 1.99-.82 1.42.11.71-.57.77-1.32-.03-.68.37-.02 1.34-2.14 1.54-1.16 1.05-1.39 1.05-.25.4-.52 2.05.02.6-.3-.09-.27.71.36-.31-.89 1.82-2.37.54-1.05.2-1.85 1.17-1.12.66-1.35-.8-.8-.48.39-.32-.78-.15.27-.57-1.98.27-1.24-.68-.11-.26-.48 1.51-1.08-.91-1.33.16-1.26-.65-1.19.07-.66.9-1.08-.83-2.11.36-1.99 1.44-1.87z" fill="#636c72" stroke="#fff" stroke-width=".5"></path><path id="GB-UKL" class="land" d="M456.18 931.2l.51.19-.03.68-.31.47-.4.19-.48.47.31-1.88zm7.29-46.83l1.03.31.48-.88-.08 1.07-.11.05.48.83.8-.24.57.36-.08.86-.77.43.51.52-.14.45.71.88.46.31.43.86.14.28-.94.74-.46-.43-.03.47-.48-.09-.91-.69.23-.67-.77-.97.43-1-1.74-.55-.83.45-.34-.31-.37.24-.4-.64.48-.83-1.08-.67.77-.45.23-1.12.97.43zm67.98-3.19l.54.21-.2.64.51 1 1.05.95.57.24.26.05.46.52 2.79 1.64 2.33 2.42 1.37.76.46.78 1.88.97-.03-.31 1-.26-1.74-.59.03-.38.66-.07.33.49 2.25-.05 1.84 1 4.56 4.53.17 1.28-2.48 1.68-.08.38 1.07 1.92 2.28 1.75 1.51 4.3.38 1.79-.18.9 1.69 1.67.75 1.53 1.96-.07 2.39 1.56.55 1.74-.14 2.45-1.55.21-1.71 1.37-3.6-3.49-1.31-.19-2.52.78-1.76-1.69-1.6-.07-3.33 2.47-.32-.13-1.24 1.09-.37 1.6-1.79.92.64 2.3-1.65 1.88-.23 1.01.77 2.16.47.63.91.38 1.97.25.85 1.32 2.96.68.46 1.05 1.79 1.06.06.51-.65.89-2.19.41-1.11 2.48.19 2.43-1.78 1.26-.85 3.13-2.23 1.59-.04 1.36.88 1.73-.58 1.4.47.26 1.21-.26.94-1.45 2.93-1.99 1.86 2.34-.87 1.91-1.45.47-.5 1.4-4.06.21-2.09 1.35-2.39.93-.93 1.35v1.65l.93 1.77 1.52.56 1.34 1.65 1.87 1.28 1.85 1.98 2.35.39 2.38-.51.93.43.2.76-.18.63-1.81 1.21-.46 1.93.55.95 1.61.44.26.77-3.03.49-.81 1.11-1.34.93-.34 1.34-2.66 4.08.47 1 1.45-.3.03.81-2.78 1.76.13.6 1.4.6-.81 1.19-.59 2.3.76.1 1.55 1.89.16.9-.38 1.13 1.81 3.23 1.15 1.66 1.77 1.66.28 1.47 1.1.51.33.81.88.25 2.48-1.63 1.49-.21 2.33 2.26 2.16 1.31.61 1.61 1.51 2.23h2.02l.79 1.12.89.19.33.72.56-.61-.06.83-1.44 1.87-.36 1.99.83 2.11-.9 1.08-.07.66.65 1.19-.16 1.26.91 1.33-1.51 1.08.26.48.68.11-.27 1.24.57 1.98-.1.43-1.45.85-.94 1.42-2.05.23-4.78 2.76-2.9 1.03-2.82-.27-1.62-.73-.94 1.32-3.9 2.46-1.85.66-.26.87-.65.62.2.39-1.11 1.32-.37-.16v-.8l-.43.39-.4-.34.03 1.05.74.66-.31 2.98-1 .48-1.79-.3-1.79.73-.23.59-.71-.23-.34.04-.2.27-1.11-.55-1.54.96h-3.27l-.43-.52-1.77-.02-3.79-1-.88.23-1.11-.34-1.91-3.25-.48-.05v-.36l-1.77-1.3-.43-1.3-1.2-.09-.43.48-.6-.46-.51.43-.83-.41-.83-1.64-.8-.46.17-.32-.8-2.62-1.34-2.51-.46.04-.37-.89-.68.09.57-.59-2.02-2.08.74-1.4-.97.82h-2.19l-1.2.78-.68-.39-1.25.07-1.4.59-.83 1.1-.06 1.21 1.51.87-.6.25-1.59-.3-.63.34-.51-.55-1.62 1.05-1.88-.64-.54-.75-.43.5-1.2-.05-.6.62-.17.52.77.8-.23.3-2.48-.53-.43.21.06.82-1.65-.53-2.22-1.55-1.34-.04.88-.8.03-1.03-.83-2.06-.57-.09.94-.46 1.05.02.46-.94.8-.43.34-1.28.68.41-.17.87.28-.11.14-.05.37-.05 1.02.64h.97l.6-.48h.23l.85-.23.57-.64 1-.11.68-.73 1.22-.53.68-.96-.46-1.05.4-.05.97-1.44-.8.41-.11.64-.71.09.23 1.83-1.57.62-2.16.3-1.08-.94-.51-1.14-1.34-.41-.85.11-.43.44-2.14-.02.48.46-.68.41-1.71-.43-2.56-2.61-.88-1.99.06-.32.63.39 1.45-.25.31.44.74.09-.68-.39.31-.37-2.05-.27-.74-.78.77-2.36-.26-.92 2.28-1.19-.11-.02-2.28.96-.26 1.06-1.45 1.67-2.31-.99.54-.92-.91-.83-.48.05.91.71-.6 1.15 1.74 1.54-.71.87-2.02.3-3.99-.69-1.14.71-1.79-.34-2.96.76-1.31 1.4.46 1.1.2.16-.63.96-.23.89.37.16-1.11 1.21.23.46-2.39-.11.08.75-1.05.14-.29.64-1.22-.32.03-.39-1.08.07v-.37h-1.88l-.23.39.31.32-.74.09-1.48 1.49.48.73-1.37.02-.2 1.17-1.11-.09-1.42-1.05-1.85.07-1.11-.75-1.34-.21-.2-.73.57-.41.06-.69-.66-1.56-1.88-.46-.74-.53-.17-.16-.37-.57.91-.28-.31-.5.51-.07 1.28.21.2.94 1.34.11.2-.57-.65-.3.37-.57 1.11-.02.06-.32.43.6 1.94.16-.14.39.48.87 1.85-.21.31-.3-.91.05-1.37-.69.83-.44.11-.5.8.27-.08-.3.57-.39.71.32.71-.62.74.02.34-.76.88.02.23-.23 1.51-.3-.65-.16-1.91.53-.03-1.08.57-.09-1.22-.69.48-2.2.85-.46-.11-.21-1.17.69-.65-.8-.77.28-.85.62-.03.11 1.34-.55.8.73-.23.25.26 1.06-.31.23.94 1.12-.43 1.67-.65-.07-.66.55-.63-.39-.68.46-.71-.21-1.54.64-1.65-.73-.06-.07-.65-.09-.8.25-.46-.32-.17.25-.68.07h-.08l-.43-.02-.48-1.19-.43-.23-.03.64-.48.48-.51-.55-.51.39h-1l-.77-.46.09.85.97.41-.37.12-.03 1.1-.68.07-.28.57-.66-.82.03-1.56-.83-.21.06-.5-.63-.48-.48-.02-.23.07-1.28-.83-.03-.48 2.25.34.37-1.74.88.05 1.31-1.45 1.28-.07.83.37.54-.5.28-.53-.06-2.59-.2-.94-.34-.05-.28-1.98-.91-1.24-1.08.39-.34-.41-.83.25.03-.53-1.57.02-.31-.48-1.42.05h-.43l-.26.3-.37-.23-1.22.6-.37-.05-.83.41-.34-.23.65-1.03-.46-.83.6-.12.46-.64-.48-.74-.46.09.34-.51.94-.53.23.23 1.39-.37 1.17-1.17 1.22-.23-.11-.48.71-.28.03-.3.09-.39 2.02.16.91-1.36 1.62.21.14-.55 1.08-.12-.2-.83.34-.48-.48-.05-.23-.58 1.08-.83-.46-.09.14-.51-.6-.28.97-.97-.37-.14.28-.25 1.88.21.77.23.34.07 1.45-.02.03.74.29.14-.51 1.01.8.07.26-.05.63.12 1.59-1.01.29-.21.63-.46-.43-.53.48-.67.8.32.03.62.37.23 1.54-.23 1.51.32-1.08-1.41.09-.49 1.31-1.13 1.68-.35 2.19-2.93-.26-.72.68-.39.28-.76 2.02 1.25.57 1.41.29-1.11-.34-.42-.2-.46-.37-.81.26-.83 4.19-.97 1.08.3.83-.58.63.16.51.67 1.48-.09 2.31-2.08.28-1.04.57.46 1.2-.72 2.82-3.27.65-.32.74.81.77-.46.48.19 3.36-2.9 1.31-.33 1.42-1.09.97-1.42.08-.79.85-.37.34-1.02 1.17-1.32 1.59-4.56 1.14-1.7-.28-.7.63-2.12.06-1.61.8-2.14.57-.33-.31-4.06.37-.19.34.51h1.25l1.74-1-.14-.37.43-.16.06-.51.57.37.68-.91.68-.19.08-.16-1.08-.02-2.48 1.05-3.1.4-1.94-4.18-1.14-1.54.6-2.43 1.11-2.43 2.02-1.57-.14-1.62h.43l.63-.12 1.2-1.03.91-.23 1.25-1.27 1.2-1.08v-.17l-1.03.42-.8.75-1.99.59-.63.98-.77.19-5.21-8.03 1.34-1.48.48-1.65-1.25-2.56-.08-1.18 1.76-.57 1.59.05 1.2-1.95-.03-.07-1.05.14-1.28 1.15-.54-.24.57-.97-.17-.35-.57.28-.46-.42-.48 1.34-1.02.24.14.35-3.93-1.08-.2.35-1.62.42-2.73.14-.37.31-.11 1.11-2.88-.4-.8.28-.23.75-2.02.66-1.2.73.06.38-.65.49.37.87-1.25.71-.46.87.31.26-.26.99.91.49-.11 1.15-.23.3-.37-.35-.85.19-.17.94-.54.38-.8-.73.23-1.43-1.79-1.36-1.42-.49-.51.17-.57 1.1-1.08.89-.91-.54-1.37 1.01-.37-.59-1.11-.23-.71 1.88-1.31-.56-.6-.84.85-.63.06-.92.68-1.22.77-.4-.2-1.58 1.54-.45.34-1.29 1.14-.42v-.73l.91-1.55.91.05.66-1.37 1.14-.33.97-1.11.43-.05.09-.75.51.9 1.99-.21 1.42-1.3.46-.89.63-.14.54-1.3 1.14-1.37 1.4.14 1.05-1.44 1.74-1.49.83-1.75.23-2.22-.63-3.07.54-.73.97.12-.8.64.63 1.4.31-.17.37-.5-.06-2.08 1.59-.8 1.08-1.92 2.31-1.75.14-1.66.85-.97 1.54-.47 1.99-1.57.46.47.43-.07.85-.26.37.62 1.96-.5 1.76-.9 1.37-1.28 2.7-.81 2.53-1.76.71.21.85-.86.68.07-.34-1.97-1.77-1.12-.08-.52.51-.36 1.96.43.11 1.02.54.26 2.25-.48.6.86 1.22.33.09.97 1.11.74h4.27l1.2.38 5.1-2.3.14.19.85-.88.94-.43 1.22.02 3.7-1.78zm-56.68-6.31l1.11.29.11.45.34-.38 1.42.12.51.81 1.08-.41 2.31.64.34.5.6.36.26 1-.6 1.21.85.79-.06.62 1.79.24-.28.62.4.55-.29.31.48.19.23 1.62.83.45-.57 1.21.4.38 3.22-.83.4-.83.83-.4 2.39.57.85-.21.85.4-.94.76v.52l-.48.19-.97 1.57-.06 1.07-3.64 2.61-.14.88-.83-.17-.31.5-1.34.64-.46 2.11-1.34.54-2.76 2.63-1.34.33.09-.31-.94-.07.11.69-1.08.59 1.65.38v.28l-1.57-.43-2.05-1.21-.71 1.02-.26-.12.51-.9-.48-1.37 1.08-.69.43.12.37-1.16-.28-.85-2.9 3.2-.31-.83-.34.12-.14-1.54-.4-.26-1.11.62-.06-.83-1.02-.09.14-1.09.48-.64-.46.12.2-.47-1.2-1.21.14-.74-1.71-1.28-.2-1.21-.34-.83-.34.19-.57-.45 1.02-2 .06-1.4-1.17-1.24.77-.5.23-1.36-.31-.12.57-.48.28-1.19-.65-.91-.37-1.76.57-.33.37.29 1.39-.21.06-.43.46.05.4-.5.26.71.34-.41.66.12-.09-.6.63-.31.43.69 1.08.05-.26-.36-.08-.33z" fill="#636c72" stroke="#fff" stroke-width=".5"></path><g id="g1199" fill="#636c72" stroke="#fff" stroke-width=".5"><path d="M432.04 672.68l2.88 1.56 2.25 2.29 1.2 3.3.48 2.87-.23.93-1.11.93.06.83 2.28.8 1.34 1.81-1.62.98-.74.93.14.58 2.39 1.4-.74 1.03.03 1.23.71 1.78-.31 1.08-1.05 1.1-2.65-.13-.85.68-.63.05-3.3-.45-3.36-2.35-.68-2.23.17-.58-.68-.65-.88-.23.26-.65-.2-1.25.66-1.66-.29-2.18-1.17-1.33-1.28-2.34v-1.61l.48-.68.28-1.99.85-2.04 1.68-.76.65-1.61.85-.23.88.25-.57-.66.46-.58z" id="path1136"></path><path d="M408.36 671.88l.63.76-1 1.03-.11.43.6.58-.4.23-.28 1.18.51-.33.37.03-.03.3-.97.68-.03.71.37-.28.06.4-.31.81h-.4l-1.14 1.21-.29-.86.51-1.16h-.57l-.26-.66 1.42-2.49-.11-.48.66-.05.14-1.29-.31.4-.2-.3z" id="path1134"></path><path d="M450.35 666.17l.29.15-.09 2 .31.33-.31 1.11-.68.88-.23-.93-.71.23-.83.88-.2-1.11 1.03-2.73.43-.53z" id="path1132"></path><path d="M435.86 653.97l1.42.51 2.28 2.63 1.79.96.23.71-.83 1.04 1.48.28.14 1.9 1.2-.56.63.2.09 3.09 1.02 3.87-1.2.38-.4.73 1.25 1.11.06 1.41-.63-.03-.6.5-1.2-1.08.26-.35-.65-.88-.06-1.36-.48.1-.26-.56-.77-.35-.03-.73-.51-.05-.63.76-.28-.08-.43-1.59.11-1.74-.31-.03-.23.68-.34-1.04.23-2.1.63-.63-.6-.73-.88.43-.71-.51-2.11-2.83-.11-1.27-.46-.41.57-.86.71-.33z" id="path1130"></path><path d="M387.77 652.96l.17 1.7-.57 2.71.28.61h.35l.91 3.39-.09 3.01.97 2.7 1.22.78.74.98-.28 2.07 1.17 1.39-.57 1.92.48.35-.23.63.63-.03-.31 1.03h.48l-1.4 1.34-.31-.08-.11.35.43.1-.51.63-.51-.03-.23-.55-.34.35.37.73-.31.96-.77.25.06-.48.31.03-.11-.53-1.48 1.28-.65.03-1.05.8-.83-.45-.97.65-.29-.1-.03-.2v-.55l-1.31.23-.2.4.46.53-1.05 1.33-.37 1.13-1.02.4-.43.85-1.48-.08-.37-.35-.54.2.03-.63-1.28-.2.51-1.79-.34-.88 1.68-2.82h1.62l.51-.6-.03-.81-.48-1.06.14-.53-1-1.69-1.4-1.26-.71.3-.71-.23.06-1.29.65-1.31 3.42-1.82.46-1.14-.74-.61-2.02.1-.91-.4-1.17.23-1.51 4.24-1.88 2.88-3.87 3.2-1.05-.53-.85-1.59 1.79-1.81-.97-.4.65-1.67.83-.98 1-.38-.51-.46.8-1.46v-.99l-.2-.3h-1.28l-.17-.53 1.59-1.57-.11-1.44-.34-.25.43-.23.11-2 1.45-.76.6.86.34-.43.83-.13 1.11-1.54.65-.05 1.2-1.42.48-.03.17.68-.8 1.52.06 1.27-.48 1.57.54 1.09.48-.03-.17-.96 1.14-2.3-.28-1.24 1.71-.28.6-.63-.03-.53 1.34-.76 2.31-2.61 1.2.08.6-.74 1.02.1.31-.43z" id="path1128"></path><path d="M382.53 644.68l.85.08-.14.48-.88.31-.28 1.07-.91.63-.28-.48.31-.84-1.42-.08 1.08-.18-.71-.18.23-.46z" id="path1126"></path><path d="M386.63 635.16l.71 1.12-1.57 2.75-.23 1.2-.8.53.11.53-.77.38.8.92-.34.28.06.66-1.45 1.22-.34-.13-.03-.97-.83.71-.94-.23.77-.69-.26-.25-1 .81-.65.08-.09-.36.51-.15.03-.38.65-.33-.09-.46.51-.2-.68-.23.77-.48-.83-.1 1.05-.74-.57-.15.37-1.04 1.82-1.48-.17-.36.48-.31.8.54.48-.2.06-.84-.26-.08.28-.48.43.05.08-.38.88-.46-.09-.36z" id="path1124"></path><path d="M409.07 633.63l.6.54.48 1.33-.31.54.26 1.27-2.59 4.17-1.88 4.35-.88.33-1.48 3.81-.34.3-.4-.28-.11 1.55-.63 1.37.31-.08-1.59 3.12-.11 1.09.31.3-.71 1.01.17-1.11-.74.13v2l-1.31-.38-.71.46-.74 2.91.57.88-.68.86-.51 2.15-2.56-.5-1.14.2-.31-.53-1.2-.38-1.17-2.3.03-2.99-.51-.68.48-2.53.68-.58 1.57-3.14.88-.68h.83l.46-.51 1.22.33.88-.63 1.08.1.48-.43.66.33 1.22-.86.48-.79-.26-.03-.2-.2-.14.25-1.08.05-.09.84-.54.3-.09-.25-1.05.18-.43-.56-.46.3-.31-.61-.57.08-.4-.46-.74.2.48-.79-.23-.56 1.45-2.31.51-.2.03-1.17.51-.69 2.5-1.81.2-.74 2.9-1.79.34-.56.8-.03-.06-.66 1-.66.08-.66.37-.2.48.54.31-.92 1.62-1.02.09-.87.68-.36.71.28-.31-.69z" id="path1122"></path><path d="M410.06 628.91l.74.79-.23.66.46 1.51-.68-.03-.85.87-2.31-.1-.34-.66.2-.77.83-.46.31-.89z" id="path1120"></path><path d="M414.16 626.25l.91.56.14 1.69-1.17.87-.37-1.46.4-1.2-.23-.23z" id="path1118"></path><path d="M409.98 625.74l-.11 2.38.4.74-.74-.08-.2-1-.4.49-.26-.23z" id="path1116"></path><path d="M412.74 622.44l.4 1.69.91-1.2.26.54-.29.84-.6-.05.34.79-.88 2.17.31.23-.09 1.07-.28-.1.37.74-.4 1.1-.74-1.05-.31-1.76-.48-.18.11-1.35.48-.54-.37-.1.17-.56.17.36.17-.28-.2-.97z" id="path1114"></path><path d="M374.34 615.01l.28.21-.2 1.1-1.11 2.1-.71.77-.4-.23h-.28l-.65-.74.6-.1.65-.79-.74-.64 1.71-1.23-.09-.38.51.33z" id="path1112"></path><path d="M419.8 608.16l.57.44-.46.05-.03.72-1.51 1.57-.08.56-.43.13-.6 1.36-.54.28.2-.69-1.77-.21.34-.95.46-.18-.06-.51h.46l.14-.98 1.08.03.57-.56.43.28z" id="path1110"></path><path d="M424.55 597.85l.31.23-.4.75-1.08.1.4-.72z" id="path1108"></path><path d="M355.49 596.04l.4 1 1.05.57v1.19l-2.11.28-.74-.39-1.02.28-.63 1.08.8.72-.77 1.54-1.02-.26-.71.31-.26-.44-1.28.36-1 1.42.26 2.65-.97.44-.94-.18-1.08-1.54-.71-.03-.4.62-.46.03-.09-.59.54-.77-.37-.95.23-1.03-.63-1.42.2-.31.77-1.29.71.03.11-.75.91-.08.54.36.63-.41.4.15-.28.52.51.15.4-.36.28.62.63.02.74-.67.06-.62 1.99-1.03.54.03.57.77 1.05-.21.11-.9.77-.08z" id="path1106"></path><path d="M423.47 595.58l-.29.95-2.73 3.09-.97 1.8-1.48.93-.88 1.21-1.82 1.29-.63.05 1.2-1.39.17-1.75-1.22.51.09-.26 2.7-1.11.68-.88.34.05 2.13-3.14.54-.08-.06-.98.48.67.51-.03.03-.33z" id="path1104"></path><path d="M387.66 586.78l.51.21.23.96 2.68.8.14.72-.6.59.74.75.46-.23.77.54.85 1.88 1.31.98.09 1.21.68.7.06.95.54.88-.43.72.46.05.43.9.63-.46.8.46.11.44 1.11-.54 2.28.05 1.42 1.26.23-.9 1.48.18.4.77.54.21.6 1.44 1.22.64 1.17-.33.6 1.36.57.05.94.9-.2.75.37-.13.51.41.6-.67.37.85-.06 2.13-.26.13-.94-.41.29-.44-.63-.33-.09-.44-.43.36-.03.28.6 1.28.37-.36.14.59.68.05-.74 2.49-.6.56-1.62-.28-.43-.38.34-2.05-.51-.1-.06.46-.43-.36-.68.21.68.72v.62l-.57.46-.6-.15-.68 1.69-1.31.8 1.88-.36 1.39-1.13 1.4-.15.63.41-.31.9-2.56 2.64-3.16 2-1.17.33-.17.51-2.11-.33-.74-.64 1.14-.92.34-.69-.23-.18.83-.23.08-.77-.8-.26-.46.41.17-.38-.34-.18-1.42.87-1.57 2.31-1.57.28-1.22-.38-.48.84-2.28 1.84-.83.05-1.2-.84-.34.44-2.05.05-.77 1.1-.14-.31-.8.23-.37-.41-.6.43-.23-.33-.23-.05-1.4-.05-.57.64-.94-.54-1 2.3-.46-.13.17-.61-.51-.1-.23.33-.43-.18-.14.41-.2-.67-.46.67-1.14-.49.26-1-1.28.1-.2-1.1-.4.87-1.4-.44.74-1.1 1.2.15.09-.56-.71.23-.06-.23-.14-.49-.46.1.31-.38.03-1.74 1-1.36.68-.1 1.62.59.54-.23.28.72.17-.31.51.26.46 1.2-1.17-.21.03.41 2.76.56-.14-1.38-.63.2.09-1.33.88-.05.94.82.6-.23.54.46.65-.21-.4-.26.34-.36 1.82.36.77-.44-.2-.44 1.51.38.03-.36.68-.05.06-.46 1.22-.41-.11-.41.51.33 1.91-.72.77-1.13-.34-.13-.17-.87.8.15.03.38.63-.26-.91-.74-.65.18-.34-.28-.91.49-.91 1.28h-.31l.26-.51-.48-.18-.57.92-.99.58-2.25.03-1.31.82-1.37-.05-.68-1.31.08-.85 1.17-1.67 1.68-1.18.71-1.7-.23-.75.51-.08.31-.95 2.53.18 1.17-.33.63-1.08 1.28-.46.28-.95.48.03.26-.39.06-.62-.46-.93-.4-.05-1.08 1.08-1.25.21-1.14.67-1.14-.03-.77.64-1.76-1 .6 1.08-.91.69-1.54-.23-.28.13.11.41-.63.03-.4-.41.2-.51-.34-.13-.54.1.28.31-1.17.15-.26-.67-1.11-.33-.37.41-.28-.95-.57.41-.43-.23-.51-1.6.37-.03.14.03 1.2-.03.34.64.31-.46.71.13.09-.28.88.28.06-.62h.54l1.17.67.46.72.6.23.43-.44.17-.21.77.44.63-.59-.57-.33.11-.41-1.31-.49-.31-.54-.34.18-2.16-1.85-1.76.59-1.2-.05-.51-.52-.77.05-1.54-.85.14-1.49 1.57-.52.63-1.11.8-.54-.31-.36-.97.46-.51-.15-.46-2.68.6.44.91-.52 1.05.34.8-1.03.57.54.8.1.34.26.43.03-.57-.88-.06-1.81.71-.1.34-.1h.37l.17-.67 1.59.1.97-1.06.8.23z" id="path1102"></path><path d="M370.18 583.49l.85.49-.06 1.09-2.7 5.4-1.02-1.08.09 1.47-.8.98-.4.03-.11.72-.88.05v.67l-.63.05-.34-.36-.83.62-.43.7h-.31l-.46-1.6-.68 1.88-.54-.18.08-.8-1.31-.08-.34.23-.2 1.47-.68.18-.17-.98-.57-.08v-.46l.74-.26.91-1.44.23.64.91-.21-.14-.67.65-.1.46-1.55.94-.18.23-.36-.2-.7.28-.59.65-.03.26-.62.57-.1v-.41l.6.13.26-.9.91-.08.77-1.47.43-.26.26.26.23-.54.63-.13-.14-.31.48-.03.17-.39.54.39z" id="path1100"></path><path d="M310.45 574.3l1.48.62-1.71.57-1.2-.6-.06-.49z" id="path1098"></path><path d="M311.16 570.41l.43.36-.63.44.31.42-.09.44-.43.13.31 1.01-1.82.86-.06-.57-.6-.08.68-1.01-.23-1.14 1.31-.16.14-.67z" id="path1096"></path><path d="M387.12 559.85l.94.83.34.99-.17 3.46-.2.31-.48-.26.14.83-.31-.21.17.39-.51.52-1.34-.05-2.33-1.56.11-1.74 1.14-.81 1.37.13.11-1.69-.28-.36z" id="path1094"></path><path d="M313.81 559.35l2.33.44-.74.6 2.33.31.94.81-2.31-.57-.91.65.03.39h1.68l-.17.83-1.31-.03-.08.44h-.97l-.68-1.25h.94l.23-.47-2.16-.6.88-.73z" id="path1092"></path><path d="M325 554.45l.43.63-.8.24z" id="path1090"></path><path d="M323.97 554.38l.4 1.12-.83-.26-.14-.63z" id="path1088"></path><path d="M326.25 552.13l.28 1.17-.46.05-.06.73-1.77-.63.4-.57h.65l.46.83.11-.73-.83-.23z" id="path1086"></path><path d="M319.96 549.1l.34.1-.14.84 1.08.1.17.6-.34.5.14.44-1.25.55.03.47 1.71.97.23-.21.71.83.14-.34.46.23-.4.57-.63-.29.31.63 1.02.44.03 1.23-1.45-.57v.7l-.91.39.26.7-.48-.16.28.55-.94-.16.6.91-.37.42-.63-.18-.31.52-1.62.12.14-.96-.4-.13-.97.91-2.45-.57-.4-.42.46-.57-.11-.63 1.25-.7.77.34.2-.78-.65-.42.06-.37.85.08-.11-1.07.28-.47.23.21-1.37-1.02 2.25-.1 1.51-.99.37-1.54-.34-.31-.09-1.23z" id="path1084"></path><path d="M377.27 548.95l.28.42.77.16.14.52.65.08.4.71 1.34.39.65 1.57-1.45.34-.2.34 2.11.7-.6 1.28-.03 1.98-.77 1.23-1.17.6-.28.91-.88.65-.97-.05-.8-1.2-1.28-.44-.34-1.95-.88-.1-3.42-3.18.8-.18.4-.86 1.45-1.02.57-1.17 1.45-1.04.88.31.26-.52z" id="path1082"></path><path d="M323.01 548.79l.91.99-1.25.97-.43-.68.51-.47-.34-.44z" id="path1080"></path><path d="M328.64 545.99l.54.13v.6l-.54 1.02.09.76-.03.31-.34.73-.51.21-.85-.73.28-1.36-.48-.52.03-.94.65.26.31-.42z" id="path1078"></path><path d="M383.67 539.03l1.11.31.03 1.07-.83.39-.54-.34-.17.39.51 1-.83.65h-.71l-1-.92-.26-1.02 1.37-.81.71.47-.14-.94z" id="path1076"></path><path d="M394.21 523.96l2.59.66 1.22 1.05.26.81-.43.87.11.71-.8.63-2.11.16-1.88-2.34-.26-.55.23-1.32z" id="path1074"></path><path d="M333.23 515.79l-.28 1.05.34-.45.06.9-.83.71-.03.08-.51.21-1.08-.5 1.08-1.63z" id="path1072"></path><path d="M324.15 515.68l-.63 1.58.94-.58 1.05-.11 1.34 1.5 2.19.69.26.79-.43.24-.34-.39-.11.29 2.19 1.69.03.42-.6.29-.34-.37-.71.11 1.02.45 1.85-.76-.74 1.5-1.31.6-.43-.29.06.42-1.62-.95 1.31 1.29 1.05.08.03-.32h-.43l.54-.32.23.92.26-.47.54.08.34.42-.34.08.31 1.55 1.11-.34.34.71-.54.39.26.39-.31.97-.83.18-.37-.34-.43 1.08-.91.95.57.47-.37-.08.28.76-.83.81.26.37-.4.16.11.84-1.11.03-.11.34-1.14-.45v-.31l.28.05-.23-.58-.14.34-.37-.32-.28.37-.8.05-.54-.52v.68l.43.42 1.48-.58.03.47.51.26-.09.63h1.34l.17.58.51.16-.23 1.23.8 1.15.26 1.83-.6.47.09.47-.68.37-.91-.03-.8-.63-.03.81-1.08-.5-1.25.21 2.42.55-.51.29-.8-.29.11.55 2.25-.37 1.71.65-.26.79.65.39.51-.21.23.63.71.24-.23.65-.46.1.34.21-.8.29.26.78-3.73-1.36-.31.73-.83.03-.06-.34-.83.34-1.74-.18-.37-.65-.65-.29-.23-1.41h-.88l.51-.29.11-.65-.51-.97.23-1.28-.85-2.7.09-2.44-.54-.21-.09-1.65-.68-.37-.31.26-.26-.39 1.11-.05.4-.37.34-1.73v-.68l-.34-.26.54-.42-.11-.97.74-.37.54-.89-.28-.82.34-1.92-.4-2.53-1.45-2.58.31-.45.74.18.65-1.16 1 .13.43-1.48.48-.4z" id="path1070"></path><path d="M326.62 507.84l.43.34-1.37 1.03 1.37.03v-.66l.46-.13 1.22 1 .48 1.16.57-.08.03-1 .63.08.37 1.06.31-.53 1.51 1.03-.54.56-1.37-.5-.14.84.37-.29 1.17.45.03.42-.4-.34-.91.34-.46-.19-.43-.03.2.71h-.4l-.31-.37-.03.08-.23.4.54.03-.2.21.51.42.37-.16-.34-.29.31-.26h1.25l1.02 1.35-.48.16.51.37-.31.4.46.08-1.05.53-.8-.21-.06.77-.31.13-1.45-.55.2.63 1 .05.34.45-1.2.76-.37-.42.57-.63-.54.16-.83-.58-.11.34-.11-.45-.63-.16-.34.21.31.24-.14.34-1.37-1.08-1.42-.47.88-.37-1.54-.5-1.08.05-.14-1.77-.83-.85.03-.63.48-.19-.09-.4-.57-.03.17-.87 1.59-.29.65-1.61 1.14-.19.11.93.26-.11-.17-.53 1.02.16z" id="path1068"></path><path d="M332.4 507.08l1.94.11.48 1-.74.26.6.13.14.4-1.14 1.45-.77-.42.31-.87-.97-.77.17-.77 1.02.48.2-.24z" id="path1066"></path><path d="M329.24 506.33l.4.34-.06.66h.4l-.11-.57 1.17.17.34.63.14-.71.4.29-.28.08.28 1.14.74 1-.23.58-1.25-.4-.14-.58-.43.45-.48-.05-.74-1.06h-.37l.06.4-.46-.24.06-.37-.37-.13-1-.71.34-.26.06.34 1 .34v-.45l.51.16.17-.34-1.2-.61z" id="path1064"></path><path d="M393.95 505.81l1.31 2.27-.88 3.25-.68 1.03-.85.53-.31 1.27.48.82.23 3.01.85 1.74h.43l.03.98-1.45 2.58-1.65.42-.83-.5v-1.18l-.74-.55-.28.16.4-1.05-.26-.58.54-.98-.51-4.17.48-2.06 1.02-1.77 1.85.58.34-.63v-.29l-.88-.32.51-.37-.03-.5-.14.32-.43-.48-.14-1.08.51-.48.26.19.03 1.3.37-.9 1-.29-.28-.16.2-.71-.26-.5-.8-.66z" id="path1062"></path><path d="M322.21 503.11l.71.69.37-.79.74-.32.43.37-.23.34.57-.13.2.66.4-.08.26.37-.34.64-.77.24.48.64-.37 1 .11.95-.8-.4-.34-1.8-1.59-2.2z" id="path1060"></path><path d="M320.73 500.75l.54.87.97-.16-.08.58-.2-.26-.31.21.68.34-.48.29-.8-.21-.57-1.09z" id="path1058"></path><path d="M395.12 506.02l-.8-.61.48-.08-.6-.61.88-1.14-.71.45-.34-.85 1.11-.24-.54-2.15.48-.77.85.4-.48-.93.68-.13.46 1.51-1.14 3.55.31.37-.11.74z" id="path1056"></path><path d="M322.69 491.15l.97.21-.83.74-.14.66-.28-.64-1.08.45-.31-.27-.46.19-.28-.42.06-.24.94.16.43-.34-.2-.4.46.11-.06.32z" id="path1054"></path><path d="M333.06 488.51l.31.37-.37.43 1 .56.34-.19.26.27-.37.21.68.37.03 1.04-.63.45.46.13-.63.64.71-.16.6.42-.09-.58.94-.74.14.9-.65.61.37.58.09-.69 1.42.08-1.2-.98.54-.45.71.48-.11-.56.37-.32.51.64-.6.74.83.66.34-.27.65.88-1.94 3.13-1.71-1.64.88-.77-1.48.48-.11.42-.63-.05-.74-.24.11.58-.57.08 1.59.34-.34 1.35.26.48h-.57l.54.27-.06.48.83-.37.74.19.57-.56.65.24-.94 2.84-1.31.69-1.05.03-.4-.66-.4.56-1.22-.4-.09.4-.65.26-1.99.13.83.26 3.05-.16.83.45.02-.61h1.6l-.2 1.35.37.29-.31 1.06-.46.13-.11 1.43-1.51.13-.97-.34-.06.58-1.37-.34-1.02.24-1.14-.58-.68.05-.09-.29-.8.21-.37.56-.94-.19-.54-.69v-.45l.37.11-.17-.42.28-.29-.34-.42.26-.08-1.57-1.43.03-.53.43-.05-2.36-.9-2.19-2.17.37.74-.8.9-.74.03-.23.48-.85-.4-.48.19.31-.53-.63-1.19-.57.19.03-.45-.54-.4-.51.34-.31-1.11-.74.03-.09-.64.57-.8.37 1.06.68-.13-.31-.66h.31l.14-.8-.63-.08-.03-.29 1.45-.77-.28-.72.68-.8-.09-.48.31.13-.46-.9.77-.29 1.08.37.54-.4.6.9.51.29.48-.19-.09.56 1.14-.05-.65.29-.06.53 1.37.34.46-.42-.17-.56.48-.74-.43-.58 1.22-.29.8-.66.14-.58-.2-.29-.31.16-.06-.37.51.11.17-.64.34.19.57-.9.4.64-.83.53.11.77-.8 1.28 2.36.64-.06.98.4.03-.09-1.49-1.34-.29 1.05-.61.46.11.17.96.48.32h-.29l.09.42.43.05.06-.77v-.08l-.68-.64 1.77-.74 1-1.7.37-.11.37.53.4-1.06z" id="path1052"></path><path d="M376.16 487.5l1.02.8.88-.67.91-.05.28.8-.63.72h.77l1.94 1.75.8 3.43.65.27.85-.29.43.56.28-.13 2.02 4.35h.8l-.57 1.96.46 1.93-.43 4.68.57 2.38-.51 4.3-1.42 1.45-.68-.26-.2.61-.51-.05.23.66-.26.63.71-.29.2-.9.51.5.63-.37 1.22.13.71 1.74-.51 1.27-.6.29 1.51 2.77.51.29.09-.71.46.66-.63.32-.03.63.43.39-.23.58-1.34.18-1.42 1.68 2.05-1.45 1.68.29.77-.34.94.16.09 1.42.46.55-1.91 1.47.17.95 2.73-2.05 1.42 1.66 1.2.13 1.54.89.2-.42.85.24.8.79-.31 1.02.74.26.54-.34.37.26.26-.6 1.51-1.02.28.45-.46.42 1.28-.87.57.13 1.65-1.37 1.25-.39 2.25.34-1.05 1.05 3.56-.45.71.71-.97 2.02.23 1.02-.51 1.81-2.33 2.2-1.57.55-.8.76-.94.29-.97-.94-.26.1.54 1.28-.26 1.78.63-.81h.34l.11.68-.57.03.11.58-.91.05-.03.44h.46l-.34 1.13-.46.08-.08.55-.68.58-1.39-.16-.4 1.46-.43.76-.68.29-.6 1.28.23.71-.48-.21.08.65-.8.37-.37.94-1.59.68-.31.78-.74-.34-1.28 1.04-.51-.47-.37.68-.31-.13.11-1.15-.63-.52-.31-1.96.28-.03.51-1.31.88-.1-.31-.52.11-1.1.46-1.31.74-.24-.37-.76-.63.03.48-1.18 1.11-.45.2-.31-.31-.21.4-.42 1.34-.52.51-1.13.29.21.51-.84 2.59-.6 1.34-1.52-1.77 1.15-1.05-.29.26.76-.46-.26-.88.31-.97-.5-1.85.79-1.08-.1-.03-1.6-.46-1.29-.43-.63-.46.03-.74-1.89-.11 1.08.6 1.05-.17 1.86-1.08.58-.28 1.91-1.45 2.85-.8-.84-.77-.13.51-2.85-.48-2.12-.51-.13-.46.63-.71-.29-.2-.76-.8-.05-.17.03.43.63-.48 1.36-.8.16-1.28-.42-5.18 1.83-.57-.21.4-1.02.68-.37.88-1.42-.03-1.02-.46-.18-1.88 1.57-.65.1-.97-.71-1.37-2.44.48-.94 1.57-.24.23-1.92-.34.1-.46 1.42-2.28.29-1.17-.97-.11-.84-1.13-1.11-.51-1.66.23-.47-1.28-.53v-2l1.37-1.03.4.21.46-.61.57.34-.14-1.61 2.9 1.84 1.25 1.89 1.71.21-1.22-.5-1.02-1.87-1.54-1.42-.68-.08.4-.45-.63-.08.03-.71.77-.76-.68.21-.46.9-.71-.05-.4.42-.51-.24-.65.79-.23-.82.4-1.16-1.37-.63.6-.9-.83-.53.17-1.4-.34-.69-.48 1.74-1.25 1.55-.11-.55.43-.69-.37.11-.06-.4.43-.79-.68-.98v.82l-.57.4.28-.5-.31-.03-.4 1.08-.51-.5-.68.21.34.24.28 2.13-.31.4.23 2.11-.37.45h-.54l-.14-.42-.54-.05-1.51-1.21-1.34-.37-.17-.37-1.05.11-1.42-1.34h-.8l-1.14-1.74.48-.71-.77-1.98-.83-.4-.2-.61-.77.19-.17.58-.37-.19.31-.55-.11-1.24.43-.18-.34-.9.23-.63.83-.08 1.11.74 1.11.08-1.31-1.64-.17-2.72.83-1.19.85-.45.54.58.14 1.03.85.63.51 1.48.51.29.03 1.14.71.05.23.92 1.25 1.35.57-.4.11-.74.54.16.48.74v1.16l.34.03.31-.79-.68-.69-.17-1.27-.65-.45v.37l-.4.03-.6-.63.54.03.11-.61-.54-.58-.74-2.78 1 .05 1.08-.74 1.48 1.53.43-1.38-1.25-.82-.03-.58-.94-1.24-1.94-1.54-.48.21.11.69-.31-.16v-.93l.71-.58.34-4.58 1 .19 1.74 1.75.68 1.56.17 2.25.57.4.68-.37 1.91 1.3 2.16 2.86-.14.42.43-.11.09-.5 1.31-1.24.17.5-1.28 2.75.74 1.19-.09-1.72.77-.74.17-.74.94-.26-.34-1.4.43-.5.8.74.43 1.8.31-.26 1.02.79.2 1.37.14-.93.37.19.48 2.96.6.32-.65-2.83.88.03-2.93-2.94-.48-1.16.11-.69-.8-.69.28-.56-.4-.11-.4-.98.26-1.01.63.58 1.11-2.36-1.82.4.2-.72-.37-.34-.03-1.19.26-.5-1.65-2.6.28-.74.85-.24-.2-.96h1.57l1.57-1.51-.14-.74.37.03v-.29l-.71-1.01.46-.35-.46-.35z" id="path1050"></path><path d="M358.25 471.06l2.22.59.88 1.66-1.54.67-.03-.56-1.05.43-.37-.53.71-.56-.68-.61-.08.75-.29-.05.06-.64-.57-.67.77.21-.03-.4-.37.03z" id="path1048"></path><path d="M372.6 458.93l.43.8-2.02-.24.4-.54z" id="path1046"></path><path d="M336.16 455.77l.31.51.94.35.48 1.74-.2.7-.68.21-1-.8-1 .21-.68-1.21-.09-1.05z" id="path1044"></path><path d="M348.66 433.12l.71.13.17.41.8-.03-.23.51-.83.22 1.68.32-.09 1.32.37.81.17-.54.28.78.46.22-.37-.68.46-.46 1.05 1.89.26.13-.14-.84.43.38.17 2.35-1.2-.65-1.45.27-1.68-.27-.43-1.27.54.13.34-.32-.94-.7.09-.81-.77-.54-.11-1.76.46.43.2-.24z" id="path1042"></path><path d="M380.8 408.94l.63.63-.08.35 1.45.87.2.6-.48.46 1.17.68.06.44 1.14.92v.52l-.63.63.03 1.06.74.76-.06.38.77.49-.14 1.22-1.05.81-1.51 4.09 1.31 1.71 1.34.27.14.43-1.82.43-.48 1.16-.71.81-.54.08-.65 1 .46.24-.34.92-1.74.16-.34.59v.92l.43.14-.28.7-.85.27-1.25-.24-.31.92.6 1.43-.37.14-.11.62-.91-.14-.2.97.85.22.54.84.83.27.09.46.91.27 1.34-1.43 1.65-.59.4-1 .48-.05.2-.81 1.62-.54.46-.43-.09-.57.48-.11 1.11.49-.26.86h-.46l-.23.41.31.62-.88 1.03.6.78-.57.24.23.43-.88.97-1.65.59.14.86-2.22.92-.34-.03-.11-.59-.77-.19-.71-1.7-1.51.24-.46.46.4.27-.14.54-.83-.05-.43.46-.57-.32-.31-1.4-.51.4-.63-.32.34-.24-.85-.3.48 1.81.46-.43.34.24-.71 1.1.83 2.64-.37.54-2.16.46-.11.43 1.28-.59 1.31.11-.03 1.1-.88.32-.85-.59-.06.54-.6-.22-.37.24-3.27-1.21 1.88 1.56-.03-.59 1.14.46.03.56-1.25.67-.28.83-1.54.22-.23.4-.85-.4-.09.48-.6.32-.26-.21.28-.19-.48-.08.08.3-.6.4-4.58.65-.11.32.43.27-.03-.4.83-.21.14.35.17-.46 1.28-.16.57.54.26-.54 1.2.24.97-.22.4-.51 1.74.11.28-.38 1.48.08.65.38.4-.54-.8-.16.48-.54.63.03V449l.91-.32.09.75.17-.51.43.38-.57.27.17.3-.4.3.65-.16.23.48-.71.05-.09.48.34.19.77-.54-.14 1.16.6.21-.57.86.65.27-.23 1.61-3.36.03 1.28.19.6.48 2.22.16-.43 2.2-.71.21-.06.56-.4.11.11.7h-.71l-.51-.88-.51-.21-.28.27-.46-.51-.83.89-.8-1.23-.17.83-1.22-.29.23.32-.65.29-1.25-.78-.03.89-1.22-.19-1.2.29 2.7.46 1.85-.32 1.48.78.31.46-.31.48.43.59-.26.72.23.51-.6.59-.37-.13-.17 2.28-1.59-.27-.34.91-.6.37-.34-1.1-.74-.35-.17-.24-.26.46.51.78.17 1.31-1.51.35-.37-.91v1.39l-.28-.11.09-.54-.46.13-.85-1.1.37.08-.85-1.39v-1.04l-.4.27-1.28-1.39 1.02 2.14-.09.64.71.62.34.94-.97.05-.28-.75-.17.32-.65-.27v.64l-.6-.32-1.82-3.75-.4.05-.43-.78-.17-1.9.4-.78-.43-1.82 1.28-2.07.97-.46.2-1.37 1.65-.13.54.7 1.2-.46-1.96-.46-2.59.05.85.19.03 1.05-1.22.94-1.51 2.09-1.68.88.34.4-.31.59.94.21.88 2.63-.14 1.04-.94.08 1.11.11.65-.32 1.77 3.05.03.59-2.02.16 2.14 1.34.28 1.9-3.33-.24-.23-.35-.48.19-.6-.35-.14-.62-.31.24-.48-.53-.71.32-.8-.21.54.45.31 1.23-.54-.05-.23-.43-.57.35.43 1.31.97-.27.63.32.48.53-.17.85.63 1.01.51-.24.23.27.28 1.44-.8.53-.26-.69-.31.69-.4-.29.14-.43-.28.4-1.14-.88-.2.32.48 1.15-.34-.11.68.69-.26.72-.48-.08-.57-.91-.2.56-.57-.27.8.75-.94.19-.03-1.23-.88-1.57-.28.29-.28-.19 1.05 1.49-.63 1.17-.43-.99-.11.53-.37-.29.43 1.04-.28.24.23.77-1.08-.72-.03.45-.34-.11.68 1.84-1.25.08-.85-.83.31.64h-.71l.85.35-.2.19.46.56-2.13.83v1.44l-.57.08-.2.56-.09-.37-.28.21-.2-.59-.51-.13.63 1.2-.08.27-.48-.16-1.37-2.26-.88-.24-.31-1.28-2.02-1.57-1.02-2.19-.97-.03-.85-.8-.71-2.05 1.48-.4 1.25.85.26 1.92.11-1.15.85-.03.88-.83 1.17-.43.11-.56.51-.29.2-1.2.51-.19-.34-.35.29-.43.4-.03.06.61 1.05-.64.26.16.23-.59.28.72.46-.51.97.59.65-.32-2.76-1.71.03-.43.48-.27.09-1.02.48.21 1.2-.8 1.77.4.34.59.54-.21.68.32.31-.59 1.57.45-2.31-1.52-.37-.83 1.37-.24-.46-.48-.37.4-.63-.4-.54.32-.17-.46-1.68-.21.63-1.23-.88.94-1.2-.96-1.34.03-1.54-1.53.28 1.02-.48.29-.46-.38-.46.38-1.74-.88-.14-.8-.57.43-.57-.21v-1.29l-.34-.46.23-.21-.51-.78-.51.91-.65-.29.26-.7.97-.56-.06-.86.46-.94.68.21.71.89.63-1.61 2.59-1.5 1.42.03.26-.38 1.88-.62.91.21-.57-.35-3.27.54-2.96 1.37-.14-.43-.37.27-.26-.59-.4.03-.06-.59 2.11-.7-1.99-.08.31-.81 1.57-.73-.23-.91-.26-.05-.26.7-1.28.62-.06.67-1.22-.43.51-.32-1.14-.13-.14-2.5-.63-.56.26-.89-1.31-1.24.26-1.56.71.16.34-.67-.31-.62.48.11.43-.38-.17-.22.6-.75-.91-1.32.17-.65 1.2-.73.09.67 1.25.32-.11-.51.34.05-.03.75.31.16.97-1.05.57.35-.11-.75-.2.24-.09-.57-.43.11-.03.13-.43.38-.48-.16.06-.38-.94-.19.77-1.29-.37-.24.48-1.94.54-.19.03-.54.74-.54-.06 1.11 1.37-.14 1.2 1.43.48.05-.14-1.21.54-.38.6 1.21.37.08v.51l1.17.19.14-.24.34.35-.11 1.02-1.76-.05-.03.57-.71-.7-.14.22 1.45 1.32 2.11.35.31 1.46-.11 2.07.57 2.15.71 1.1-.11-1.56-.77-1.32-.06-1.7-.26-.03.17-.89h.68l-.51-.84.09-.78.28.11-.11.38.74.22-.4-.86.4.35-.14-.59.57-.16-.09-.46.6.22.11-.51.68-.19.26.35 1.48.19.2.48.37-.03-.06.38.26-.32 1 .65.4-.51.8 1.7-.03.67.34-.11-.23-.65.8.57-.4-1.29.8-.22-.6-.11-.65-1.08.17.86-.26.35-.26-.03.26-.49-.2-.62-.34.43-.34-.46-.2.27-.31-.62.23-.84.8-.11-.37-.57-.43.05-.8-1.94-.2.3-.57-.24-1.08-1.75.14-.59-.63-1.41 1.59-.32-1.62-.11-.48-.49 1.28-.89-.06-.49.34-.05-.34-.54 1.65-.62.94.38.14-.78.54.11-.06-.54.6-.22.34-.76h.54l.57-.87.74.54.03-.6.77-.46.2-.76.94-.46.6 1.06.4-.6.74.22-.2-.46.66.14 1.48-1.33 1.62-.08-.03-.73 1.48-2.33 1.05-.22.51-.92 1.68-1.06 1.2-1.71 3.99-2.25 1.14-1.85 1.11.14 1.02-1.3 1-.52-.48-.71.34-.38-.54-.14z" id="path1040"></path><path d="M451.26 671.93l.54-.03.31-1.26-.71-.76.26-.28.83.38.28-1.54-.88-2.12.06-.88-.85-1.29-.23-2.2.17-3.64-.48-1.57.8-.46.29-.63-.29-.63.4-.43-.2-2.03 3.25-1.88.2.48.48.05.11-.51.51-.08 1.48.61 1.05 1.04.85-.13.46.23-.2.18 2.59.86 2.42-.03 2.62.91 2.08.08.74-.3-.2-.53-2.31-.3-.03-.53-.94.25-3.56-1.93-.85.15-.88-1.17-.77.36-.08-.74.88-.18-.48-.23-.31-1.17-1.11-.76-1.96-.58-.23-.46-1.2-.23.09-.99-1.68-2.44-.03-.97.29-.1-.43-.13-.3-1.27h-.32l-.26 1.83.85 2.37.83 1.63.65.13.26.99 1.05.13.26 1.09-2.08.66-1.59-.08-.83-.58-.06-1.22-.74-1.12-.03-2.21-.6-.87-.06-.79 2.22-5.45.83-.48.48-1.76 1.57-3.11.66-1.1 1.05-.79.17-.71-.37-.08-1.85 2.07-1.79 3.54-.2 1.5-1.22 1.2-.46 1.27-1.17-.41-.46-1.96.43-.97-.06-.94-.8-2.12-.77.26.83 1.94-.46 3.13 1.62 1.5.17.74-1.94 3.51.68 2.49-.2.99.4 2.16-.48.35-1.82-1.12-.37.2-.46-.58.17.53-.4.46 2.36 1.14.34.91-.8 1.4.11.41-.54.2-.94 4.21-1.2 1.7-.34 1.72-2.45-.73-.57.13-.4-.43.17-.94-1.34-6.36-1.79-1.6-.94-3.43-.31 1.12.54 2.08 1.17 1.52.63 1.55.46 3.47-.26.28-1.45-.25-2.96-2.81-.68-.23-.57-1.17-.03-2.08.28-.36-.43-.63-.48 3.45.34.86-.6 1.5h-.48l-1.17 1.22-.08.89 1.42 3.22.34.1.14 2.73-.63.05-.51-1.06-1.17-.23-.6-1.11-.34-.03-.29.56-.88-.25-.06-.66-.63.46-.51-.08.43-.25-.65-.15.37-1.21-.57-.48.26-.13-.57-.05.17-.43-.68-.23-.11-.41-.4.2.03-.84-.34.08.46-.66-.37-.56.43-.91-.29-.76.97-2.87-.85-.81.4-1.63-.14-1.02 1.99-2.41.6-2.29 1.31-2.14 3.1-3.33-.28-.87.4-1.12 2.02-1.02.65.15 2.65-1.71.94-.97-.2-.79 1.2-2.91 1.45-1.43 2.85-1.38 2.36-2.15.29-.46-.29-.23-.8.92-2.16 1.3-2.62 1h-.37l.06-1.07-.4-.05-.94 1.1-.29 1.1-.57.38-.34 1.25-.46.23-.08 1.79-.68 1.33-1.05.92-2.73.82-2.16 1.86-.94 1.43-.11 1.5-1.37.74-.74 2.21-.94.64-.43-.23.03-.66-.57.05v.56l.46.33-.74.66.14 1.76-.54.92-.46-.31-.4.18-.85 1.65-.74-.2-.6.53-.03-.48-1.03-.58-.17-2.06-.54.1-.09 2.01-.34.51.37 3.02-.34.15 1.08 2.21.57 4.92.74.43-.4.05.83 1.75-.57-.13-.34.48 1.42.2 1.48 2.56.8.66 1.08 2.6.14 2.38-.54.88-1.22-.18-.68.73-1.54.63-2.73 3.66.06 1.64-.68.86-.43 2.87-.77.65.37.96.03 2.57.8 1.16.03.55h-.29l.31.9-.43.43-.26-.98-.74.28-.26.68.11 3.77-.63.18-.46 2.03.2.48-.34.25.2.85-1.11 1.03.03.43-.66.28.17.68-.74 2.03.2.43-.31-.1-1.17.95-1.22-.2 1 1.08.91-.1.06-.65.14.4.68.05.2.98.97 1.3.54 2.05-.2.85-2.02 2.62-.17.75-2.02 1.37-4.21-.05-1.99 1.45-1.28.25-.77.03-1.82-.82-.31-1.32.37-2.22-.4-1 .34-3.87 2.19-2.03.08-.98 1.25.08.54-.95.28-8 .4-.5.11-1.28-.71-3.11 1.14-.88.8-2.67.8-4.63-.68-1.41 2.28-1.51 3.13-6.03.91-.08 1.85-1.54.37-.91 1.59-.88.68-2.12.88-.91-.11-.89.71-1.11-.43.15-.88 1.95-.66.13-.34 1.21-.74.4-1.28 1.97-2.39 1.79-.34.13.2-.45-.37.03-.29.73-1.17.88-.51.08-.06-.81.8-.63-1-.38.68-1.19-1.62.63-1.37-1.24-.28-1.37 1-4.4 1.28-1.72.17-.53-.26.05.54-.48-.17-.48.91-1.6.88-.3.74-1.52-.43-.23-.74.74-.68.1-1.88 2.48-.6-.1-1.31 1.54-.23-1.19.31-.73-.51-.36 1.37-3.63 1.31-1.45 1.99-3.71 1.42-.89.4-1.25-.57.89-.91.61-.26-.28 1.59-2.14-1.14.81.17-.66-.6 1.19-.51.15.11-.51-.43.51h-.6l.74.58-1.31 2.46-.74.71-.34-.05 1.11-2.72-.8 1.07-1.08 2.06.06.46 1.08-.51-1.74 2.29.28.15-.83 2-.43-.08-.06-.61-.29.18.54-1.6.57-.23.31-.71-1.02.46-.57 1.01-.08-.28.34-1.32 2.56-4.55.14-.51-.43.1v-.51l.65-.41.71.15-.26-.56-.14-.23.03-.51 1.37-1.91 1.68-2.65.94.41.6-.36.4.59-.17.41 1.14.58-.31-.61.26-.31v-1.38l-.57-.43-.77.25.34-.74-.26-.18-.37.51-.4-.79 1.03-2.68 1.39-1.94.06-.92.94-.92-.08-.41-1.11.1-.06.46-2.71 2.47-.08.92-.85 1.17-.88.15.68-1.45.26-1.2-.26-.08.83-.69-.14-.61 1.57-2.58.06-1.02.26.23.37-.36-.23-1.35-.77-.13-.2-.43 1.17-.21.97-.92.71.23.08-.56.63-.44.71.08-.57-.41-.08-.74-.46-.05-.63.95-.31-.28-.63.44-1.28-.26-1.02 1.07-.77-.03.06-1.46.77-1.84-.29-.15-.26.46v-1.89l-.94.84.37.13.17 1.1-.66.26-.51 1.07-.8-.92.17-1.36-.91-.31.14-.41.4-1.31 1.2-.97.74.51.63-1.08.4-.03.23-.44 1.45-1.44.37.39.29-.46 1.22.64.66-.79 1.42-.13 1.42-.85-.37-.54-1.17 1.1-1.17-.18-.46.26-.69.49-.93-1.05 1.14-3.03 1.22-1.33.85-.41-.54-1.39.11-.87.26.23.51-.26.31-.9.97-.39-.06-.26.4-.15-.26.69.4.1.94-.67.26.41 1.17-.51 1.22.1.83-.49.63.77.48.1.51-.67 1.76.67.63-.18.2-.51.77 1.67.57.26.57-.69 2.02-.39.94-.77.68-1.29 1.11-.51-.4-.54 1.08-1.08.97-1.72.43-1.73 1.45-2.37-.37-.36-2.22 4.43-.74.82-1.11.28-1.59 3.81-2.28 1.21-1.45-1.54-1.57.28-1.62-.28-1.39-.72-.74.1-.17 1.03-2.28.05.48-1.47-.51-1.44-.85-.49.11-.59-1.57 2.47.17-1.18-1.14.54 1.34-1.8-.17-.49.63-1.11.65-.03.23-.64.48-.03.2.36.43-.33-.08.9 1.05.54.88-.62.26.28.34-.54 1-.1 1-.77 1.02-1.6 1.03.23 1.25-.49-.06-.83-1.99.98-1.14-.26-2.9 2.45-.31-.46-.43.46-.23-.31-.31-1.44-1.17.33.48-1-.77.23 1.59-2.01.28.18-.31.67.74-.52-.6-1.06.4-.26.91-2.19 3.19-3.12.03-.83-.83-.08-.11-.31.51-.83 1.65-1.09.66-.15.57.52.6-1.06 1.05-.8 1.74-.18 1.99 1.06.74-.47.83.18.48-1.01 2.88-1.29-2.36.44-3.36 1.4-.34-.62-.83.16-.14-.91-3.05-.31.88-2.37 1.11-1.05 2.31-3.94 2.85-3.68-.4.05.97-.57-.34.13-.23-.55.31-.31-.57-.39-1-.31-.85.36-1.2-1.19-.83-.29-4.67.05-2.59-.49-.11.39.65.52 3.76.68 3.42-.42 1.54.91 1.54.23-.14.81-1.57 2.31-3.36 3.37-.48-.18-.08 1.48-1.22 1.27-.11.7.65.96-1.57.7-.66 1.14-.03-.83-.85-.28-.8 1.29-1.76 1.32-.11.88-2.13 2.53-.54.44-.54-.41-.74.41-1.91 2.56h-.85l-.14.44-.37-.46-1.34-.18.2.44 1.34.62-3.39 5.67-1.4.93-.48.8-4.64 2.68-.4-1.29-1.94-.54-.71-.72-.46.62-.94-1.73-.65.44-.94-.13-2.05-.9-1.54-.23.11-.26-.63-.28-1.05.05-2.82-2.96-1-2.58-1.14-.83-.31-2.48.14-.34 1.65.03 1.17-.59 1.39.34.34-.44-1.79-.13.54-1.01.17.03h.6l.14.49.8.28.6.75-.06-.85.77-.85.57.83-.57.85-.65.1.08.98 1.14.13 2.05 1.55.09-.44-.88-.8-.97-.15-.54-.54-.2-.9 1.05-.72 1.02.05 4.78-3.78 1.25.39.83 1.37 1.08-.08 1.25.65 2.59-.08.37-.44 2.93-.16.17-.36h-1.03l-.6-.41-1.11.41-.2-.28-3.27.98-.2-.7-1-.21-.34-.8-1.31-1.01-.85-.21-1.88.29-.34-.75-.06.98-3.16 3.1-1.08-.78-1.77.7h-.34l-.26-.21h-1l-.06-.65-.57-.44.08.65-.4.21-.03-.72-.4.31-.4.16h-.51l.06.7-.28.1-.51-.49.06-.57-2.36.34-1.11-1.22-1.17.28-.4-.28-.63.54-.65-.44-.06-.26-.4-.16-1.3 1.29-2.28-.44-1.14-.85-.85-1.29.2-1.24-.26-.41h.74l.06-.62.63-.41.63.28.23-.28-.46-1.35 1.54.03.8-.8 1.54-.34 2.33.49.6-.05.31-.1.11-.44 1.45.21.34-.16.03-.62 1.71.28.57-.41.11-.91.43-.05 2.13 2.15.17.75.54.21.97-1.14.77.62-.14 1.22.8.05.17-.34.08-.05.4-.44-.54-.16.2-.57h-1l-.71-.8-.48-.57.31-.99.74.1.83.86.23-.39.8.05.34.67.29-1.17 1.17-.1.37-.67.77.7 1.34.21-.63-.6-4.92-1.76-.23-.49.34-1.58.26-.36 1.39-.13.6.42.46-.7 1.11.08 1.28-1.01 2.14.39 1.28-2.31 1.08-.23-.26-.78H410l-1.02 1.12-.48 1.53-.91-.39-.17.57-1.02-.86-1.48-.21.11-.55 1.76-1.48 1.42-.36-.94-.18.54-.29-.26-.44-3.47.73-1.02.73.17-.49-.37-.26-1.11.73-.77-.29-1.2.88-.94-.42v-.47l-.74.26-.14-1.04 1.36-.42-.14-.52.31-.21.46-.13.37.62.94.21.8-1.07-.34-.36-1.05.21-.57-.55-.06-.68.63-.55.37.23-.14-.91.34-.13-.14-.31.54-.05-.46-.5.51-.6-.43-.39.65-.1.08-.83.46-.13.85.7-.4-1.2-.51.29-.51-.29.2-1.59.6-.44-.03-1.1 1.31-.7 4.07-.37.88 2.45 1.99 1.36.8-.03 1.14.73-.08-.47.97-.16.37-.55 1.05.21 3.96-1.54-.74-.26.08-.34-4.9 1.93-.23-.39-.77.03v-.52l-1.17-.18-.88-1.43-.34-1.17.14-.44.65-.03-.11-.6-1.96-.68-1.48.5.37.29-.14.29h-.74l-.63-2.01-1.05.55-.8-2.01h.48v-.6l1.42-1.59 1.51-.86.43-1.86 2.25-.1 1.74-.81.54.44 2.16.34 1.31 2.22.34-.5.43.81 1.71.81.37-1.31 4.1-.71.54-.44 1.65.24-1.94-.71-2.85.97-.6-.03-1.34.5-1.68-1.12-.54-2.04-.71.24-.37-.78-1.77-.63-2.16.34-.94-.5-.51-.81-.23-.5.28-.55-.6.03 1-1.44 1.91-1.39.88-1.55-.31-.84-1.25-.42.14-1.08.71-1.05 1.54-.39.57-.53 1.08.11 2.42-1.29 2.5 3.36 2.36 2.02.85-.42v-.55l1-.45-.17-.31-.66.37-2.36-1.1-.85-1.31-1.99-1.81 1.51-2.13.83-1.34 1.57-.19-.14-.31-1.17.03-.91.5-1.54 1.95-.51.89-1.37.37-.54-.32-.57.58-1.11.29-.06-.63-.57-.1-.6.39-.57-.71-1.01-.39-.78.45-1.48-.1-.83.34-1.08-.24-.68.34.68-.79.37.05-.34-1.05.54-.58-.43-.18.34-1.05.91-.21.29-.84.97.16-.37-1.61 1.14.16.37-.68.57-.03-.23 1.24.63-.42 1.08.08 1.39-.55.6-.97 2.25.1 3.73-3.42.31-1.37.74-1-1.17-.45-.37.29-.48 1.21-1.37 1.05-.08.29.46.16-.94.4-1.74 2.4-1.59-.13-1.05.42-.48-.45.66-.53-1.85-.13-.17-.9.26-.37 1.99-.95-.09-.37-.97-.42.46-1.21-.34-.29-.57 1.56-3.3 1.87-2.08 2.21-3.02.74-.74-1-.2-1.71-.43.5.11.76-.43.03-.51-2.79.48.37.03-1.32.54.55.14-.34-.14-.66-.68-.5-.06-.74.97-1.93-.63-.4-1.85.08-.94-3.22.11-2.59.83-2.2v-2.25l.48-.5-.26-.69.54.4.2-.24-.34-1.35.26-.37.57-.03.09.29.31-.29-.14-.37.54-.24.6 1.03.94.13-.03.66.61.16.08.53.43-.19.88.79-.31.4.26.42.83-.26.74.32.17-.32-.37-.64.4-.24.6 1.01-.06 1.38 1.28.48 1.2 1.56.26-.37-.37-.58-.23-2.41.6.29-.03.61.8.24-.06 1.03.57.13-.26-.95.46.26.4-.66.66.45.83-.26.09-.21.91.34-.03-.56 1.31.79.66-.03.43-1.2-.43-.31.26-.34-3.76-.69-1.2.4-1.08-.32v.58l-.85-.24-.88.66-.14-.74-.68-.13-.37-.77h-.57l.06-.87 1.08.29-.23-.82-1.03-.08-1.2-.74-.4-.98.14-1.01-1.08-1.59-2.19-1.59-1.02.13-.09-.93.54-.45-.08-.98 1.22-1.99-.2-1.22.91-.03.66-.9 1.11-.19.63.21.14.58.08-.69.51-.03-.14.77.63.43.43-.13.14.51.48.19-.31-.98.77-.08-.26-1.14-.26.29-.57-.16.43-.64-.54-1.12-3.36-.21-1-1.09-1.65-.61.48-1.3-.37-.51.51-2.45-.71-2.64-.09-1.07.43-.77-.26-1.79.48-.35 1.28.32 1.05-1.07 1.08.45.65-.59.51.32.8-.43.06.43.48-.11.31.59-.48 1.95.68.05-.23.83.85.11-.17.53.46.4-.31 2.35 2.19 2.88 1.09.16.25-.72-.6-.08-.29-1.07-.4-.19.77-.75.46.19-.31.61 1.4-.4-.17-.59-.85-.24.68-1.49.11-2-.4-.37-.34.27-.37-1.12-1.56-.67-.46.16.26-.72-.48-.37.17-.37-.6-.91.66-.4-.66-.45.6-.77-.14-.45 1.51-2.22 1.08.05 1.05.91.71-.43.57.56-.43 1.12.57.19-.11 1.58.65.72-.08.64 2.65.75 1 .75.77.16.11-.96-.51-.13 1.03-.85.08-.88h.37l-.31-1.1.85-1.58 1.25.4 2.62 1.9 1.39 2.08 1.71.8 1.25.16.09.35 1.28.53h.71l-.08-.43-.94-.59-.17-1.04-3.39-1.12-.17-.96-1.25-1.79-2.39-.29-.54-.43-.48-1.74.43-.19 1.25.37-.03-.72.77-.16.37.62-.26.43 1.4 1.34 1.99.32 2.53-.7-.11.48 1.37.4 1.76 2.08.71.16.94 1.02 1.11.03 2.13 4.46.71.83.29-.77-1.74-4.03-1.79-1.02-.54-1.28-.43-.27-.68.32-.63-1.36-.8-.29-1.48-1.39.4-.43.88-.05v-.67l.37.11.6-.48.11-1.26-.34.72-.54.16-.06-1.2-1.57-.08-.77-.4-.34-.83-3.16-.7-.26-.35.34-.67-1.17-1.72-1.31-.05.4-.83-.65-1.18-.51-.32-.68.24-1.48-.54-.31.19-.29-.8.48-.38-.2-.59.37-.21-1.45-.73-.54-1.07-.4.13.06-.75.54-.24-.37-.3.37-1.4.51.03.03-.78.71-.08 2.19 1.83.06.62.6.27.63 1.96-.06-1.53.23-.51.63.16.11-.35.63 1.13.88-.08-.06.38.43.11.06-.56.83-.27-.29-.56.2-.86.29.16-.11-.86.51-.38-.37-.32.46-.27-.83-.16.34-.65-.83.05-.34-.65 1.96-.24v-.24l-1-.03-.83-1.24 1.96-.03-.11-.35.63-.16-.11-.4.57-.11-.08-.43-1.2.59-.57-.05-.17-.48-.74.3-.71-.46.34-.81-.46.13-.31-1 .66.22-.09-.73-.77-.43-.48.13-.6-.86.17-1.02-1-.32-.14-1.32-1-1.27-1.2-.49.48-2.02.97-.92.26-.03.26 1.13 1.62.03-.26.86.97.27.8 1.54.71-1.05 2.13-1.43h-1.25l.17-.4-.48-.35.91-1.03.4.76.43.16.31-.32.08.68.63-.24.71.22.03.65.54.24-.34-.51.28-.14.31.46 1-.3.23 1.16.37-1.84.77.49.11-.4.83-.4-.08-.43.85.11-.17-.38h.77l.17.57 2.31 1.62.4-.43.57.4.6-.27-.71-.81-.74.19-1.37-.62-1.57-1.51h-1.25l-.03-.81.34-.16.48.54-.03-.41-.43-.51-.51.22.23-.65-.65-.41.57-.87-.83.16-.09-.65 1.11-.62-.4-.32-.09.38-1.34.46.23.43-.26.08-.23-.57.54-.3-.31-.19v-.76l.57-.51-.53-.08-.44-.62h.48l-.74-.3.14-.38-.48-.22.26-.35 1.22.08-.8-.81 1.48-2.36-.28-.38-.66.11.11-.33.71-.05-.14-1.19.74-.87.74.35-.23.27.6.98 1.42-.19.28.33-.37.52.68-.41.65.43.11.6.26-.22.26.43.88.14-.54-.43.46-.6-1.4-.35.26-.73-.68.14.63-.76-.2-.22-.06-.24-.43 1.06-.46.11-.37-.14.23-.3-1.51-.62.4-.62.03-.22v-.3l-.4.27-.66-.84.85-.05-.03-.49 1.02-1.06.71-.11-.4-.22 1.14-.22 1.39.27 1.59 1.44.48-.49-1.14-.46-.35-.76-2.89-.38 1.14-.65-1.74-.71.2-.81-.66.05-.34-.02-.03-.38-1.48 1.01-.31-.44 1.37-.57-.6-.63v-.52l.91-3.35.51-.11.46-.95 1.34.25.6-.44 1.05-2.12-.14-.63.94-.87-.31-.03.08-1.09.46-.44-.23-2.43.51-.9.54.03 2.02 1.58.94-.33v-.29l2.56.49.68-.33 1.14 1.34 1.37.44-.08.33.57.41-.14 2.73 1.37 1.58-.11.57-1.42 1.33h.6v.6l1.42-1.8.2-.87.03-.38-.6-.08-.8-.9.34-1.77 1.62.33.06-.33-.54-1.28-.43-.05-.46-.71 1.22-.49.03.49.71.22-.37.19-.03.76.37-.11.2.52.68.11-.06 1.42 1.42-.03.37.24-.17.6.31.49 1.22.14-.06.41 1.37-.22-.34.54.31.14.14 1.2-2.9 3.37-1.88 4.05-.34-.08.03.65.54.27.77-1.52 1.2-.43.31-.92 1.57-.49.11-1.25-.37-.19 1.22-2.07.88-.49.77.16.94-1.17-.48-2.07.26-1.55.51-.82.71-.11.34.41 1.4-.55.97.44.48-.16.85.3.31.82 1.82.63.14 1.25.74-.79.34.52.51-.14-.31.63.23 1.09-.4.54 1.17.82-2.36 2.67.11 1.06-.46.63-.34 2.06-.65.6.31.57 1.62-2.91.91-.68.03-.68-.77-.41 1.02-.27 1.03-1.36.74-.16 1.37-2.58.74-.46 2.13-.3 1.82.71.34.73-.6.52.54.22.85-.33.74.41-.65-1.58 1.65.63-.66-.95.48-.05v-1.09l.71-.03 1.14.93.54-.27.06-.44.43.19.4-1.72.91.19.26-.52.6-.11.26.87.34-.44.54.74.31-.35.31 1.01.46.05-.03-1.23 1.14-.82-.2-.76.26.05.28-1.2 1.03-.19.11-.76.54 1.01.31 2.55 2.65-.94.46.68.57-.63.63 1.33.48.16.71-.93 1.96.38 3.07-.93.34.11.08.79.6.14.26-1.14 1.62-.85 1.65-1.72 1.85-.74.06-.57 1.05-.98.6.76.85.05 4.44-.79v.85l-.74.71 1.42 1.09 1.77-1.15 1.74-.38.4.3 1.03-.14-.37.68 2.13.11.8.74.63.03 1-1.55-.08-.63-1.28-.49-.06-.52-1.91-1.01-.14-.49.4-1.83 1.65-1.06.94.66.51 1.67 1.62.05.23.38.74-.14.91-.85 1.65-.05 1.05.44.11-.46 1.22-.11.51-.41.46.9.43-.05.51 1.28 2.99-.74 1.85.14.88-.3 1.37.46-.74 1.23.11 2.07-.37 1.15-1.51.52.63 1.09-.37 1.74-2.19 3.05-.6.19-.48 1.31-.06 1.69.57 2.01 1 .57 2.16-.57.54.27-.14 2.99-.54.03.28.49-1.51-.11.91 1.28-.83 1.03-1.14 4.64-1.85 1.49-3.93 4.84-1.88.84-.14-.22-1.62.46-.34.54-1.74.38.09.38-1.99.65-.77.62-1.57 2.19-.74.13-.48 1.51-.94 1-.97 2.29-.54.35-1.08 1.89-2.05 1.32-1.25 1.45-2.19 1.18-.66 1.15-1.51.54-2.39 2.61-1.37.67-.68 1.1-.74.11-.14.4-1.08-.16-1.05.67-.54 1.29-.88.4-.68 3.19-1.28.43-.94 1.34-2.42.54-2.33 1.23-1.2 3.45-1.31.03.85-1.47-1.74.46-.34-.94-1.37-.38.06 1.21.66.8 1.74.64.06.29 1.28-.45.29.56.57 2.27-.48.11-.65 1.15v2.81l-.4-.45-2.82-.13-1.31.8-.46 1.02-.37-.67-1.42.08-.2-.48-1.25-.08-.09-.77-2.96-.61-.11.29-1.88.16.17.75h-1.17l-.77-1.1-1.45-.72-1.4-2.49-.63-.43-.43.19-.85-.96.2.91.8.86.91-.16.71 1.26-.51.32.03.67 1.59 1.34 1.17.16.14.91.4.19.65-.48.74.53.71-.56 3.08-.56.17 1.17.37-.53.85 2.11 1.22.53 1.11-.08-1.05-1.28.17-.21 1.2.99.8-.24-.2.37 1.22.4 1.51 1.39 4.75-3.1 1.22 1.2.63-.32 1.2 1.09-.8-.21-2.16 1.52.68.11.09-.45.97-.08.48-.53 2.08.05 2.05-1.2.83-2.43.8-.51 1.37-.03-.94 2.72-4.19 6-2.31 2.18.06.72-.8 1.7-2.22 3.11-.74.32-2.39-.29.46-2.45.83-1.01-.03-.72-.34.19-.11-.27-.97.19-.48.59-1.28-.13-.57.32-4.38 4.17-1.88-.72-1.74.48-.71.9-1.74-.29-.63.5.06 1.62-1.82.74-1.59 2.31-2.53 2.04-.08.61.54.61-.83.85.63.29 2.22-1.99 2.08-2.79 4.13-3.42 1.08-.53 2.96-.37.37 1.78 3.79-.72 2.13-1.17.29-.66.77.42 1.2-.08.39.43-.46.77-2.08 1.83-3.59 5.17.26 1.19.83.82-2.53-.37-1.68 1.27-.03 1.09-.71.69-2.76-.58-.4.29 1.57.58.91-.16.4.74-2.11 3.39-1.96-.4-1.88.29-3.47-.95-1.99.71-.88 1.35 1.22-.79 1.79 1.77 2.45-.48.6.45.51-.34 1.05.19 1.05-.9.57.13.26-.55.52.24.96-.34 1.94 1.11 1.62-1.51v-1.59l1.82.16-.26-.45.74-1.38 2.68-1.69.54-.72.14-.79-.46-.74-.65-.5h-.85l.97-.98h1.99l.46-.21-.48-.34.77-.27.03-.24 3.64 1.64 3.27-.32 2.82-1.33 1.59-1.83h-.51l1.28-.56 1.17-.96-.17.56.37-.03 1.79-1.14.68-1.17 1-.4 2.11-.13.65.69-.26 1.04-.88.05-.26.37.71.16.23.16 2.02.48.37-.42-.06-.82-2.11-1.75 4.78-.05 1.74-1.41.43-1.54-.54-.9 2.02-.03 1.08-.74.65.05.29-.43.46.21 1.28-.64 2.59-.48 1.59.4 1.37-.43.03.69 4.16 2.37 3.53 1.41 5.52 1.41 4.44-2.21.59-1.04 3.54-.88.94 1.2 1.71-.16.48-.45.51.53 1.2.13.51.29v.98l1.51-1.09 1.88.77.83-.64 1.65.88 1.79-.11.8.37.54-.35.8 1.01 1.79-.05.54.69.94-.8 2.42.32.97-.37 1.65.48 1.79-.66.68.5 1.08-.72-.06-.93 1.34-.74h.43l.03.53 1.08.37.46.61.85-.27 1.62.29 1.31.66.83-.4.37-.64.43.08 1.82-1.7.68.29 1.51-.35 2.02.77 1.82-.56.43.58-.34.85.4.29 1.99.61.63-.8 1.25.8-.03.61.85.98.77 1.89 1 1.09 2.19 1.25-.08 3.39.51 1.4.85.71-.28.16-.09 2.28.46 1.24 1.59.95-.17.61-.88-.19-.14.61.54.24-.8.98 1.11.87.09.5-.29-.05-.11.84-1.85 2.35-.09 1.14-.54.34-.37.92-.37.16-.37-.37-.63.66.11 1.56-2.59 2.35.03.53-2.16 2.27-.03.42-1.08.63-3.42 7.26-1.68 5.64-.31 2.62.48 1.57 1.22.34-.68.68.57.42-1.96 3.98-.29 1.7-3.5 4.81-1.05 2.84.11.68-.54.1-.85.91-.06.57.31.1.06.63.28.78-.31 1.22.23 2.26-1.05 1.33.26.29-.4.49.29.29-.94 1.92-1.31 1.66-.85.26-.08 1.3-.66.18-1.59 2.75-2.39 1.32-.46.86-.68-.16-1 .49-.97 1.5-1.4 4.66 1.05.34-.37.34.14.72-.43.78-1.11.96-.74-.08-1.14 1.32-.06 2.3.94.18.43.57-1.25 2.4-.74.62-.11.98-.71.36-.17.98-.48.46-3.16 1.13-1.31 2.11-1.62.95-.28.72-2.05 1.06-1.11 3.01-.83-.05-2.79-1.34-1.42.36-2.13 1.21-.91-.51-2.25.26-2.57 1.34-2.95.03-.6-.67-.77.72-.63-.05-.91 1.16-1.28.82-2.65 3.47-1.4 1.15-1.57 1.05-1.31.13-1.28.87-.06.51 1.22.08 2.53-.85 3.3-2.08 4.41-1.98 1-1.03 2.65-.51 2.22-1.44.46-.95.74-.41 2.02-.18 1.03.62-.11.39.78.21 1.96-.54.06.36.43-.05-.48 4.96-1.14 1.44-2.42.49-.37.59 1.02.15.31-.28 1.37.9.91-1.28.77 2.21.71-.08.57.97 1.57.08 1.17.51.63-.15.46.33.68-.18.71.61.88.08 1.54 2.3 1.68.61.03.43.6.28-.43.97-.37.54-1.37.61-.94 1.35-1.37.87-.8 1-.77.03-.54.71-3.44 1.28-1.42 1.51-1-.54-.77.61-.63-.49-.71.15.08-.59-.71.25-.14-.25.4-.33-.8-.92-2.31-.49-1.11.21-1.39 1-1.65 2.25-2.25 1.38-1.14 1.78-.77.15-1.17 1.45-1.42.54-.48 1.27.03 1.76-.77 1.35.06.53-2.25-.08-.46.33.14.36-.77.25-.71-.69-1.62.43-.03.58-.63-.15-.74.71-.06.81-1.51-.38-.31.15.31.36-.85.69-1.02-.25-.31.33-.8-.05.51.23v1.45l-.77-.13-.34-.61-1.76-.71-.03.43-.46-.08-.31-.74-2.36-.64-.48-.56-1.57.05-1.51-1.68-.71-.08v1.15l-.83.13-.6-.94-2.42.79-1.11-.05-1.91-1.71-.46.94.51 2.47.8.25.54-.81.71-.18.26.99-.23.41.57.48-.11.43.65-.3.17.05 1.31.05-.06-.41.94.18.97-.46 3.56 1.47.6-.15.26.71 2.02-.13 2.11.63.91.08v-.31l1.14.53 1.91-1.04 1.51 1.52 1.79.48 1.2.03 1.79-.74.43.56 1.05.08.83-.71-.37.41.57.28.28-.36-.26-.48 3.56 3.22 2.28.86.45-.66 1.96.08 1.45-.58.88-1.12 2.53-.25 1.08-.74.26-.51-.31-.08.88-.89-.31-1.19.91-.33.4.33.8-.46-.97-.79.17-1.25 1.37-.25 1.31-2.16 2.22-.33.97.69.65-.36 2.02.53.54-.55 1.02.46.74-.1.4.48 1.25.25.71.89.28 1.25 1.14.46-.4.66 1.57 1.14 2.19-.3.51.71 1.62.28.46.76 1.03-.1.34.84 1.03.46-.17.28.8-.1.37.3.34 1.32 2.76 1.6.14.53 4.07.66 1.68-.73 2.51 1.42 1.94.05.48.86-.31.41.34.61-.37.38 1.42 1.19.8.05-.06.41.77.08.4 2.68.68.51.51 1.72.88.99-.11.37-2.56.91-.42 3.27-1.44 1.5-1.11.48-1.75 1.59-.24 1.51-.87.81-2.28 3.78-4.73 1.03.26 1.66 1.35.75-.1.83 1.18 1.36 1.05 3.64 2.09 3.61.16 1.73 1.4 1.88.21.95-1.72 3.03-2.93.5-1.07 1.5-1.88.42-.97 3.03-1.81 1.85-.88-1.55-1.31-.5-1.81.52-1.72 1.45-1.34 1.75-1.51.9-.91 2.09-2.99 2.39-.11.95.63.97-.4 1.87-1.72.62-1.33 2.24-.71 1.26-2.39 2.06-1.28.72-2.51.57-.8 1.76-1.75 1.57-.74 1.89-2.26.89-1.14 2.75-1.4.05-1.91-1.09-.94-.02.13 3.2-.75 1.34-.21 1.47-.74-.1-1.37.94-1.37-.08-1.65 1.21-3.08-1.16-1.71.67-.63-.32-.83.62-3.02-1.14-1.94.67-1.05-.15-.91-.35-1.59-1.46-.68.05.63.15.06.45-1.34 1.34-3.3.25-1.42-.97-1.05-2.33.06 2.18-.48.47.37 1.88-.46 1.98.06.37.65.27.51 1.75-.66 1.11-.97.59v1.21l-.71.07-.11-.32-1.48-.35-2.93-.12-.34-.4-1.25.35.08.44-.77.99-2.45.99-.08-.64-1.14-1.01-.26-.07-.54-.07.17 1.09.85.72.06.72-.85-.15-.91-1.36-.26.3v.39l.54.74-.91-.32-.34.42 1.28 1.55.4-.03.06.47-.66.62-1.05.12-.8 1.04-3.27 1.33-1.22 1.38-1.17.29-1-.34-2.11.22-1-.98.09-1.18.91-1.7-.51-.99-.23.91-.48.3-.11-.76.54-.59-.06-.96.71-.12-.06-.1-.65.02-1.37 2.27.03 2.83-.8.29.66.15.11.54-.11.39-.71-.1-.31-.86-.57-.02v-.84l-.6.89-1.28-.22-.2-.74-.51-.1-.54-.84.11-.81-.37.22.17-.25-1.22-.52-.01-.69-.53-.52.2-.74-.46-.39.88-2.15-.91-.02-.23.81-1.25.96-.31.86-2.16-.76-3.07-1.78-.57-1.26-.51-.05.11-.94-.91-1.26.14-1.26-.11.2-.34 1.29.48.59-1.2.74-.03 1.33-.03.3.54 3.43 2.96 1.38.63 1.28-.2.74-1.14-.47-.08.62.48.91-.63.32.83.62-.6 3.44.2.91.54.02.06 1.11-.4.84-.28.42-1.57 1.23-.65-.05-2.47-1.57-1.32-.27-1.79-1.11-.68-.91-.65-.05-.11-.93-1.37-.44-.74-2.51-.83-.96-3.47-1.95-1.99-2.24-2.31-.49-.48.22-.91-.44-1.45-2.54-1.99-.69-.11.94-4.38 2.29-1.28 2.56.63.59.6 1.92-.11.96.31.05.85 1.85-.17.49.83 2.31-.14.81.51.81.51.02.17.49.88.42-.77.98-.14 1.55.37 1.2 1.22.27-1.17.32-.46-.54-1.94-.32-2.25-2.04-.37-2.19 1.28-.93-.97-1.48.57-.88-1.88-.62.26-1.38-.83-.29-.17-.79.37-.05.03-.57-.74-.91.14-.25-.43.07-1.25-.91-.03-.99-1.68-1.06-.6-1.13-.88-.17-2.19-2.66.14-.96-2.02-3.8-.14-3.34.46-1.38-.43-.92 1.31-2.72 1.2-.05 1.31-.87.85-.07.54 1.54.54.42.51 2.3-.17.27-.26.77.66 3.07 1.71 1.61.77-.05 1.22-.99-.94-3.21-.63-1.41-.6-.27-1.57-4.9.6-2.53 1.11-2.26.68-.57.14-1.46.48-.37.31-2.83 2.73-2.16 1.62-3.08 2.56-2.49.03-2.34.71-1.82.46-.35.03-3.09-.46-1.2.85-.85.68-.1.54-1.42 1.68-.97.08-3.5 1.25-1.83 1.45-.7.31-.5 1.03.13 2.16-.9.43-1.25-.08-1.28.8-.65v-1.13l.46-.1-.23-1.6-1.34-1.63-.43-1.13-.71.05-.74-.5.14-.45.71.4.54-.2.23-2.21-.8-1.68-1.31-1.31-2.22-1.61-.6.05-.09-.75-1.31-.23-.94.28-.03-.65-.43-.23-.57.53-.34-.18-.03-.45.46-.18-.08-.73-2.33-2.14-.23-1.01-1.05-.78-.77-.05-.17-.38.06-2.87.37.28z" id="path1038"></path><path d="M544.29 376.46l.26.58-.88.03-.85.88-.68-.16.51.69 1.25-.38.03.58-.31.16.28 1.07-.68.03-.46-.47-.28.49-1.68-.14-.51-1.18.17-.55.71-.27.54-.74z" id="path1036"></path><path d="M530.26 368.13l.91.5v.96l.74.17-.23.96 1.57.17 3.76 2.81.06.39-.94.3.85.27-.03.99.85.58-.83 1.48.91-.22.26.66-.71.58 1.71.36.06.41-1.79.96v.52l-.46-.19-.6.44-1.08.08-.23 1.04-.4.3 1.11.3.6-.27.71-1.37 2.53-.06.63-.58.6.77-.85 1.23 1.11-.33v.44l-2.56.85h-1.03l-1.25-.61-.35.2.71.44-.54.55-.97-.9-2.19.47-1.59-2.14-.63-1.59.23-.41-2.02-1.84-.48-3.02-.43-.33-2.45-.17-.03-.74.37-.44-.2-.38.4-.17.63-2.53.85-.91.88.03 1.17-.94.8.33z" id="path1034"></path><path d="M558.02 352.84l.14 1.74-1.22 2.16.94 1.82-1.2 1.24h-.4l-.03-.75-.74.03-.37-.58-1.03-.25-.71.25-.48-.44-.48.63-1.31-.19.6-1.99.51-.3-.11-.91.68-.77.03-.75.74 1.6 1.71.55.91-1-.17-1.33.34.3.88-.28.17-.58z" id="path1032"></path><path d="M537.77 346.14l.85 1.05 1.2.44.48.61.77.08 1.94 1.47.6-.67.51.11.17 1 1.02.19.2.42.03.58-.83.17-.09.39.8.11 1 1.41 1.08.3.31 1.44-.31.41.26.55-.65.75.26.86-.57.06-.85-1.08-1.08-.03-.17.25.54.88-.57.66.08.69-1.2.08-.71.64-.09.63-.8.11.2.39 3.02 1.1-.14-.36.91-1.3 1.88.03.08.5 1.54.88-.2 1.3.34.14.23-.69.34.22.43-.47.09-1.63.88-.83-.11.91.83-.47.91.33-.8.28.28.61-.43.72.94.17.29-.58.17.39-.74.77-.85.11-.11.47.4.44-.23 1.02h1.34l.2.33.31-.17-.08-.72.2-.25.4.25.74-1.68.74.58 1.02-.06 1.25-1.16.29 2.9-.34-.5-1.11.19-1 .96-.28-.3-.09.44.06.5.57-.19.46.66-.26.77.4.36-.34 1.1.57-.61.83-.06-.11.77.97.58.4-1.13-.77.11v-.44l.43-1.05-1.37-.33.74-.61 1.03-.03 1.48-1.27.71-.03.83-.83.63-.06-.23.72.43.08-.34 1.1.2.66-.65.19.28 2.56-1.59-.44-1.03 1.13-.91-.36-.94 1.24-.11.91-1.03.91.29.33-.23.63-.57.44-.37-.36.34-.52-.74-.5.06-.36-1.91-1.1-.68.47.06.52.71.06-.92.88-.71 1.07 1.42-.44-.37 1.24.2.77 1.68.16-1.08.77-1.36.63.05.14.77.25-.08 1.04.71.38-.29.3-.4-.36-.46.19-.74.91.26.33-.46.6-.43-.08-.37.69.51.25.11.6-.31 1.04-.74.71 1.59 1.21-.74 2.14-1.25.03-.68.41-.26-1.2-.54.33-.06-.77-.8-.85.17-.66.43-.08.06-2.47-.68.05-.57-1.1h-.54l-.37-1.04.71-.58.54.58.03.69.77-.52.4-1.18-.51.69-.71-.69-.14-.82-1.2.93-.43.14-.2-.33 1.05-1.4 1.42.41.03-.38 1.31-.41.34.96.37-.77 1.94-.3.43-.49-.34-.22-1.17.36-1.74-.63.09-.47 1.25-.88 1.57.91-.46-1.37.2-.33-.54-.36-.03-.49 1.11-.36.17-1.1-.91-.16.14.5-.34.06-.68-.41.09-.93-2.05-3.69.14-2.12-.77.03-.54 1.05-1.34.99-2.31.5-.68-.61.14 1.21-1.82-.17-.74.5.54.63-.63.3-1.57-.25-.14.3-.51-.11-.31.55-.11-.47-.46-.14-.6.61-1.05-1.29-.74-1.68.28-2.51-1.05-.72.11-1.38.51.25 1.42-.19.17-.88.6.22-.51-.66.29-1.02-.94-.44.31-.39-.65-1.1.23-.41-.51-.58.34-.14-.03-1.02-.94-.61.31.69-.2.47-1.2-.3-.6.69.68.17.23.66.51.17.26-.36.37.44-.14.99-.4.17.57.22.11 1.08.92 1.09-.98-.21-.23-.61-1.48-1.05-1.51-.11 1.79 1.52.03.69-1.03-.08 1.33 1.4-.48 1.22.2.61-.74-.14-.51.36-.37-.74-.34.88.34.69-.71.25-1.2-.5-.11-.58-1.31-.52.28-.74-.43-.58-.37-1.96.43-1.1-.31-.5.31-.25-.08-1.35.57-.47-.43-1.1.43-.55.48.25.34-.41-.77-.8.11-1.52-.4-.75.43-1.36-.57-.61 1.94-2.46-.34-.61-.6.11-.14-.36.66-.11.63.36.29-.44 1.62-.19 1.99-1.16z" id="path1030"></path><path d="M566.78 345.5l.85.61-.48.19-.51-.33.54.64-.09.69.48-.25.6.44 1.34-.25.29.25-.11.33-1.42.19-.34.91.71 1.16.46.14.2-.44 2.05-.33.14.47-.6.5.28.78-.23.36 1.39.69-.94 1.11.37.41-.17.28-.43-.17-.11-.55-.94-.06-.71.83-.88-.69-.06 1.08-.34.14-.34-.5.46-1.33-.23-.94-1.37-.97-1.28.55.83 1.13-.14 1.52-2.22-.14v-1.02l.88-1.22.17-1.16 2.05-.03.43-.83-.11-.55-.88-.64-1.28-1.8-.6-.06.11-.5 1.05.28z" id="path1028"></path><path d="M551.44 344.5l.65.14.48.69-.6 3.91-.88-1.27-.29-1.3.03-1.58z" id="path1026"></path><path d="M543.92 341.59l.48.47 1.08-.03-.06 1.14.83.67 1.82-.08.91-.86.74.08.54 1-.34.5-.57.06-.31.89.63 2.74-1.65.78-2.25.06-2.68-1.94-.4-1.14-.77-.5-.17-1.25.68-.44.08-.72z" id="path1024"></path><path d="M560.21 336.48l.26.75-.43 1.25h.6l.91.78-1.34 3.58.26 3.02.74.17.17.94-.09.33-1.74-.11-1 .72-.23-2.27-1.05-1.3-.4.31-.23-.42v-1.8l.43-.33.03.72.91.42 1.11-.58.14-1.69-.74-.67.37-1.5-.4-.78z" id="path1022"></path><path d="M577.63 330.3l.14 2-.28.31 1.59 1.08.85-.22-.08.53-1.62-.28-.85.36-.26-.7-1-.14-1.65.81-1.71 3.2.17-1-.94-.31-.46.67.54.17.43-.34V338l.34.53.37-.08.06.92-1.28-1.31-.43.22-1.08-.47-.51.14.11 1.64-.28.06-.51-.58-.08-1.08-.4-.08-.68 1.03-.06-.94-1.22-.14-.46.56-.17 1.22-1.37 1.3-.23 1.64-.65-1.33-.03 1.89h-.48l-.34-2.03.34-1.64.65.11.09-.64.88-.28.28-1.19 1.48-1.28 1.48-.61-.06-.31-.43.06v-.56h.85l-1.11-1.33-.03-1.36-.4-.83.2-.56.63 2 .77-.56.54.25 1.22-1.34 1.68.19-.54 1.11-.94.25-.23.92-.77.7.17.72-.54.17.29.39.91.06.14-1.03.2.81.48.03-.06-.36h.57l2.33-2.42 1.79.08.14-1.48 1-.86h.51z" id="path1020"></path><path d="M549.96 325.54l.46.06-.03.61.37.22-.03.42-.71.08-.17.67-.37-.17.43.42.48-.17-.08 1.17-.94.39-.66-.25-.23 1.03.85-.31.54.28.26.75.71-.36.23.78.85-.19.26.78.65-.61.14.72.28-.06-.14.67.48.03.31.47.08 2 .46-.44.88.25.91 2.08-1.17-.36-1.22 2.33-.26-1 .57-.33-.23-.44.29-1.03-.4-.25-.43.5-.11-.95-1.05-1.5-.65-.31-.06-.47-1.82-.36.31 1.06.68.61-1.68.42-.31.95-1.28-1.5-.94-.36.37-.92-.2-1.78-.65-.78-1.25-.64-.71-1.5 2.16.94.43-.55.85.25.68-.7h.6l.23-1.92z" id="path1018"></path><path d="M554.2 322.86l.46 1.76-.23.5-.46-.08-.34 1.17.63 1.14-.29.42.29.42-.34.89-.29.11-.46-.58-.51.72-.31-2.81.74-1.14.4-2.18z" id="path1016"></path></g><path id="GB-UKN" class="land" d="M369.41 715l.8.13.66.95 1.91.2.54.62 1.88-1.37.51.47.57-.2.17.4.6.05.06-.32.26.65.8.45 1.2-.02.11.55 2.59 1.42.06.4 1.57-.72 1.28-.15.97-1.15.85-.15 1.51 1.69.71.03 1.37 1 .65-.12-.2.62.68 1.42 1.22 1.04.2 1.96-.88 1.04.4 1.17-.09 1.37-1.02 1.69.17.89-.37 1.07.71.74 2.88-.52 1.31.92-.68 3.79-.54.57-.23 1.39.48.54.91-.1.48.94.77-.15 1.08.77 1.2 2.13.88 2.72.97.77.8-.15.34 1.83.83.44 1.25 2.05-.17 1.13-.23-.47-.68-.17.26 1.43 1.65 1.21 1.08-.15.97.64-.17.37-.48-.25 1.62 3.4.14-1.16-.06-.37-.4-.34.2-.49-.54-1.28-.51-.17-.34-.91-1.96-1.65-.06-.81.31.2.09-.67.88.54.09-.64.28.02 1.74 1.01 1.79 3.8-.23 2.76.31.66-1.02 1.26v.57l-1.37.76-1.54 1.55-.71-.32-1.37.71-.03.47-1.51.25-3.1 2.92-.23 1.28-.74 1.28.83.47-.4.86 1.08-.71.28.2-1.62 1.54.83-.42-.74.98.94-.96-.14.93.4.12v-1.32l.66-.91.97.17 2.42-2.21 3.39-1.67.88.93 2.62.12.91-.44.17.49.8-.27-.2-.66.26-.44.94.15.17.39.8-.49.14.32.71-.05 1.37 1.92.77.05.09 1.08.26-.29.37.54-.48 1.37.14.74.6 1.81.74.37.23 1.08.66.27.48.81-.26 2.62.68.98.4 2.5 1.57.95-.48.9.37.59-.06 1.25-.68.37-.26 1.2-.37-.07-.94.76.91 1.61.14 2.24-.57.54-.14-.37-.54.17-.03.88-.46.68.54-.05.17.71-.2.32-.34-.29-.37 1.12.17.78-.63.37-.28-.9-.51.19-.34-.39v-1.34l-.68-.49-.34-1.32-.74-.93-.88-.19.29-.27-.29-.39.34-1.59-.23-.42 1.45-1.1.31.2.31-.07-.74-.46.88.05-.08-1.78-1.2.17 1.37-1.08-.34.12-.14-.98.6-.32-.68-.22.28-.83-.48-.1-.48-3.16-.63-.29-.66.29-.71-1.44-.48-.07-.46-.86-1.31-.22-.03-.37-2.28-1.52-.71 1.25.14 1.96-1.42.64 1.79.59.46.91 1.37.1.14.59 1.02-.2-.6.49-.2.98 1.42-.61-.03.44-1.48.49-.23-.32.29-1.17-.46.51-.14-.68-.31.81-.34-.32-.31.54.43 1 .51-.56.54.71-.31.46.51.39-.46.61.37.15-.51.49.2.2.37-.39.31.88-.37-.02.28.42-.48.05.68.12.48-1.05-.03.83-.74 1.39.31-.2.46.63-.2.56-.11-.61-.51.51.31.24-.6 1.32.43-.05v.98l-.51.24.23.42-.6.61.23.34h-.6l-1.03.88.94.76.54-.41.31.29.48-.78.26.27 1.02-.8.6.24.8-.71.8.12-.23 1 .48.63.2-1.02.68.58.06 2.12.57.68-.34.49.31.22-.2.93 1.03.39-.11.44-.46.22.14-.34-.4-.12-.11.49-.43.02-.54 1.85-1.76 2.24-.68-.44.31.85-.51.8-.34.07-.09-.68-.37-.19-.14-.24-.46-.41-.31.66.43.41.06.92-.34-.02-.29.85-.65.49-.34-.85-.37.07-.11-1.04-.77-.46-1.54.32-.26-.51-1.08.1-.4.56-1.02.05-.34-.1-1.96.29-.83-1.09 1.02-.24-.26-.95.23-1.19-.28.17-.91 2.19-1 .49.17.92.23-.75.71-.44.4 1.09-1.96 1.51-1.17 1.48.77 1.55.26 1.89-.91 2.84.2 1.09-.48 1.41-2.88 2.45-.65 1.4-1.77.56-.74 1.23-2.48 1.64-.4-.58-.71-.02-.17-.51-1.11-.48.74-.71.85.1-.45-.85-.4.07-.17-.53-.71.12-.94-.46-.34.56-1.62-.56-.83-.65-.43-1.77-.43-.29-3.19-.1-.74-.97-.24.01-1.85 1.29-.85-1.62-.83-.14-.43.64.4 2.21-1.25 1.44-3.53.97-.26-1.33-1.1-.72-.11 1.04-1.61.89-1.3-.3-1.96.8-.74-.28-.52.81-.59-.09-.84.76-.26-.17-1.3-2.03-1.02-.7.51-.85-.16-.82.7-.99-.74-1.38 1.3-1.62.53-1.87-.4-1.38-3.15-2.52-.58.12-1.31 1.46-3.12-2.45-.74-1.19-.91-3.26-1.58-1.22.36-.96-1.25-5.06-1.44-.46-.3-1.49-.87-1.02-2.43-1.98-2.6-1.27-.86.02-3.09 3.94.11 1.1-.44.47-2.07 1.35-1.24.11-.12 1.39-1 .87-.36 1.13 1.47 1.04-.11.88 1.32.29.38 3.96-.99.74-1.79-.02-2.11 1.37.52.61-1.08.51.52 1.57-.64.81-.08 1.36-1.1 2.04-.56.26-.69-.4.43-1.16-.31-.53.68-1.14-.04-.56-.99-.1-1.12 1.5.01.52.94.85.06 1.08-.4.73-1.54-.29-1.07-.87-1.52.7-.13-1.7-1.41.1.47-1.29-2.51.87v.92l-.5.38-2.55-.73-1.6.55-1.39-1.46-1.14.27-.84-.39-.23-1.77-1.29-.83-.36-.75-.95.2-1.11-1.77-5.28-.05-1.05.34-1.58-1.14-.83-1.04-.54-5.69-3.25-.9-.59-.63.41-.27-1.3-2.66-1.71-2-.86.39-1.15-.62-2.52-3.79-2.86-2.53.49-1.54-1.2-.25-.44-.78 1.66-.38 1.21.16.35-.67 2.81-1.14.38-1.89 2.15-3.08 1.66.14 2.22.76 5.04-.78.39-.37.11-1.2 1.36-.95.28-.71 1.14-.37 1.34-1.29 1.7-.56-.25-2.1-1.37.9-.95.04-1.17-1.09-1.74-.85-.79.57-1.38.05-.36-1.64-1.42-.28-1.22-1.29.45-1.57-1.09-.62.06-.56 2.11-.12.67-.39 1.17-2.23.7-.46 4.29 2.92.57-.07.23-.65 2.58-1.44 1.85-1.73 3.91-.08.58.56 1.22-.07-.82-1.62.04-2.53 1.68-2.09 1.89-1.3.29-1.44.98-1.04.72-2.19-.24-1.66.29-2.97 1.45-.83 1.11-.18-.03-2.4-.37-.9.64-.83-.25-.94.49-.67.17-1.34 1.39-2.08.58-.24 1.85.29.61-.66 1.01-.12.7-.85.73.41-.37 1.36-.51-.15-.03.52 1.34-.42.26.4-.11-.92.4-.72.68.4 1.54-.37 1.59.2.28.15v.89l.71.42 4.07-.59.17-.74 1.88-1.71-.51-1.07.26-1.32.54-.4 1.14.07-.6-.47.23-.22 1.59-4.47-.06-2.66.54.1 1.79 1.62 2.16.67 4.53.03.65-.15-.03-.3h.17l.28.47 1.82-.32.57-1.22-.11-.55 2.25-.85 1.08-.02-.34-1.15.94.82.77-.42 1.25.2 1.17-.35 1.39-.92.48.35V718l.51.15.37-.4-.17-.82zm12.36-5.39l3.76 1.12-.63 3.02-.48.75-.57-.97-.03-.75.63-.7-.37-.67-1.62-.27-1.68.55-1.31-.4.83-1.17z" fill="#636c72" stroke="#fff" stroke-width=".5"></path></g></svg>