<?xml version="1.0" encoding="UTF-8"?>
<svg xmlns="http://www.w3.org/2000/svg" viewBox="236 500 460 535" role="img" aria-labelledby="warehouse-region-map-title warehouse-region-map-desc">
  <title id="warehouse-region-map-title">Warehouse Flooring Regions</title>
  <desc id="warehouse-region-map-desc">A custom England region map matching the warehouse flooring location hub page structure.</desc>
  <defs>
    <style>
      .region-shape {
        stroke: #ffffff;
        stroke-width: 1.35;
        stroke-linejoin: round;
        vector-effect: non-scaling-stroke;
        transition: fill 180ms ease, stroke 180ms ease, opacity 180ms ease, filter 180ms ease;
      }
    </style>
  </defs>
  <g transform="translate(-118.588 -148.504)">
  <g id="north-east-england" data-region-key="north-east-england" aria-label="North East England">
    <path id="GB-UKC" class="region-shape" d="M597.56 665.15l1.82 2.23.26 1.09-.8.48.65.13 1.77 2.67 2.36 2.4 1.25.76 1.39 3.45.68.6.29.86 1.71.75.91-2.14.43 1.49.91 1.33-.31.83-.68.1.74 1.16 1.37-1.33 1.05.15.09.38 1.39.58 1.37 1.86 1.4.65-.31.73.91 1.51-.26.3-.34 1.13 1.05 1.05-.06.35.48.15-.4.58.14 1.48 1.2.68v3.18l.28.58-.31.88.74 1.13-.06 1.78-.6.25-.94 1.75.4 2.22 1 1.87.6.2 1 1.32.03.97-1.05 1.9-.06 1.35.6 2.04 1.37 1.72.31 1.59 1.25 1.64.17.97-.68.32v.72l-.63 1.09v.32l.29 1.19 1.2 1.96-.14 1.04.26 1.09 2.16 2.71v1.26l1.22 1.54.08 1.26 1.17.82-1.31.12-.06.52.54.45.63-.54-.34.82 1.74 1.14-.03.59 1.11.72.23.57.11.82-.8 1.83.11 1.14.31.79.46.79-.46.49-.06.79.94 3.7.91 1.06.71 2.44.23 2.86.51 1.21 2.9 3.81 3.27 2.09-.48.37-.23-.12-.4.25.23.37-.29.66.88 2.16 1.14.69-.48.2v.74l.06.05-.11.37-.94.02-.65.93 1.51.05.2.07.8-.71.77.07-.26-.91.17-.1.83.81 1.68.83 1.91.34.34.69 2.22 1.32 2.22.69 1.02-.29 1 .39 1.05 1.13 2.53.05 2.08 1.1 1.56.15-.49.89-1.35.59-.75.93-.43 1.25-.03 2.52-2.18-.76-2.65.81-1.17-.95-1.07-.22-2.72.66-2.32-1.1-2.04.61-4.48-.69-1.71.54-.68 1.08-4.01 2.22-.34-.46h-1.47l-.4-1.88-.63-.41-.31.41-1.04-.32-.43 1.29-.78-.3-.77-1.46-.64-.07-.38.39.01 1 1.05 2.79-.16.59-.57.24-.61-.56-1.17-2.71-1.57-.17.27 1.25-.63.12-2.32-2.15-.67-1.66-.48-.34-1.52.37-.63-1.32-1.03-.66-2.63-.08-.57.59-1.24-.49-.93.17-.01 1.3-1.02 2.84-1.91-1.86-.58-.15-.71.98-.06 1.13-4.08 2.27-1.31.02-2.61-1.59-1.98-.63-2.75 1.01-2.01 1.61-.83-.53.25-1.53-.4-1.1-.26-3.74-1.47-.29-.91-1.84-3.89-3.16-1.04-3.51 1-1.1.29-1.55-.53-.71-2.76-1.45-.47-.76 1.37-3.25 1.14-4.94-2.92-2.44-1.95-3.23-.63.15-.95 1.11-3.54 2.47-1.72-.25-1.54-1.38-.34-1.13.36-.94-.16-1.01-1.39-2.17 1.2-.91.56-2.03.91-.64-.8-1.29-.4-1.81-1.38-.79 1.24-1.73.04-1.76.36-.54 4-2.43-.65-1.69-.06-1.24.54-.67-1.03-.67-2.15.62-.4-.84-1.67-1.22-.53-1.84-2.21-.77-.68-.99-1.61-4.3 1.33-2.24 1.72-.62.4-1.87-.63-.97.11-.95 2.99-2.39.91-2.09 1.51-.9 1.34-1.75 1.72-1.45 1.81-.52 1.31.5.88 1.55 1.81-1.85.97-3.03 1.88-.42 1.07-1.5 2.93-.5 1.72-3.03-.21-.95-1.4-1.88-.16-1.73-2.09-3.61-1.05-3.64-1.18-1.36.1-.83-1.35-.75-.26-1.66 4.73-1.03 2.28-3.78.87-.81.24-1.51 1.75-1.59 1.11-.48 1.44-1.5.42-3.27z" fill="#045a8d" />
    <path id="GB-UKE" class="region-shape" d="M674 852.85zm-12.19-76.02l.54 1.03.74.27.37 1.3 1.85-.39.6.86 1.34.91.08.93 4.87 1.71 1.03 1.66 1.68 1.42-.54 1.39.31 1.17 1.05.88h.68l1.45 1.56.91 1.9.03.88.65.71.06.85.43.07.4.71-.31.75.29 1.36.48.29-.03 1.09 1.17.37-.11.49-.57.22.06.63 1.54 1.56.03.8.6.44.83-.22 1.37 1.24 2.79 1.19-1.08-.12-.4 1.07.14 1.02.91 1.43 2.13 1.55 2.56.56 2.11 1.38 1.71.46 1.22 1.24-.54.78-.97.44-1.96-.05-1.34.53-.94 1.55-.57.22-.88 2.83.14 3.48 2.9 8.91 1.11 2.27 13.24 19 1.11 4.43-1.05-1.48-2.25-1.51-2.56-.65-4.38 1.58-2.76-.6-3.05-3.04-.43-.93-2.65-2.23-.88-2.38-.28.22-1.59-.74-2.11.14-6.35 2.28-1.68-.31-3.19.74-.83-.14-1.96-1.58-2.25.02-1.99.94-1.11 1.99.2 1.1.6.29-.51-1.2.26-.53 3.59-1.39.6.1 2.5 2.61 1 .41 1.82-.19 1.68-1.56 3.13.05 2.28-.58.23-.1 3.02-.74.77.14 3.62 5.66.14.14.17.24.91.46.74.62.23.48.08.07 3.99 3.64.83.43.28-.65.34.1.34.05 2.96 3.23.97 1.92-2.09.81-1.04-.24-.71.48-1.76 4.15.1.62.91 1.05-1.48 1.29-.61.05-1.2-1.21-.27-.83-.84-.45-.33-.72-1.31-1.12.33-2.05-.7-2.94 1.41-1.89-.03-.62-1.94-.12-1.48-2.03-2.52-1.58-.21 2.15-1.88 2.15-1.28.19-3.29-.89-3.09 2.39.03.33 3.89.26.63.57.06.69-.61.57-3.06.53-.64 1.5.23 1.19-2.09.91-3.13.93-1.76-.14-.93-1.05.61-1.98-.33-1.48-6.35-.74-.38 2.34-1.96 2.99-6.13-.51-.26-.24.97-.55.01-.38-1.46-1.38-2.58 2.1-.4 2.46-1.4 1.91-.43.33-.83-.48-1.91.07-1.08.88-1.57 2.07.21 1.93-.37.9-1.21.67.5 1.02-1.59 1.66-.51 1.15-3.41.18-.97-.67-1.05-.07.24-1.19-.48-.31-1.27.26-1.08 1.28-1.37-.12-1.11-.57-.1-1.26-.55-.31-1.96.14-1.38 1.43-3.72 1.47-2.01-1.31-.87.24-1.39-.5 1.68-1.9-.54-.64-2.96-1.21.2-2.12-1.51-.9-.75-.02-.57-1.38-1.67-.62.16-2.6-2.88-2.36-.43-2.43-1.05-1.65-2.8-1.38-1.35-.07-4.08-5.24-.57-1.79-1.48-.33-.36-1.8-.57-.65.19-1.41-.77-1.8-.95.05-.83.77-.9.24-1-.96-.7.07-.54-1.03-.47-.21.11-.75-.54-1.75 1.96-2.57.04-3.12 1.28-1.66 2.48-1.2.75-2.01-1.72-1.31-1.61-2.24-.38-2.27-3.54-1.86-.23-1.62-.61-.97-1.62-.19-.27-1.28-2.39 1.11-.67-.1-.65-1.57-1.79-.17-.64-.97.54-1.38-.46-.34-.46-1.79-1.32-.27-2.38.65-1.11-.17-.5-.63-.06-2.13-.43-.7-2.63-1.53-1.32-1.43-.33-1.28.2-1.99 1.47-.8.37-1 2.99-3.98.3-1.14 2.41.17.91-1.17 1.55-.78 1.18.85 1.01-.22.48-1.92-.57-1.41.27-3.43-.34-.83-1.45-1.07-.31-.71 3.27-2.85-.63-3.07.97-1.56 1.64-1.1 2.59.12 1.32-1.15.67.35.83.53 2.01-1.61 2.78-1.03 1.98.63 2.61 1.59 1.31-.02 4.08-2.27.06-1.13.71-.98.58.15 1.91 1.86 1.02-2.84.01-1.3.93-.17 1.24.49.57-.59 2.63.08 1.03.66.63 1.32 1.52-.37.48.34.67 1.66 2.32 2.15.63-.12-.27-1.25 1.57.17 1.17 2.71.61.56.57-.24.16-.59-1.05-2.79-.01-1 .38-.39.64.07.77 1.46.78.3.43-1.29 1.04.32.31-.41.63.41.4 1.88h1.47l.34.46 4.01-2.22.68-1.08 1.71-.54 4.48.69 2.04-.61 2.32 1.1 2.72-.66 1.07.22 1.17.95 2.65-.81 2.18.76.03-2.52.43-1.25.75-.93 1.35-.59.49-.89h.07z" fill="#045a8d" />
  </g>
  <g id="north-west-england" data-region-key="north-west-england" aria-label="North West England">
    <path id="GB-UKD" class="region-shape" d="M534.79 812.32l.17.24-.71.61.85 1.79.17 2.54.88.48.26 1.43.68.56.31 1.21.4.22.97-.53.2.34.03.36-1.82.02-2.59-4.16-.71-1.89-.2-2.42zm29.19-91.83l1.61 4.3.68.99 2.21.77.53 1.84 1.67 1.22.4.84 2.15-.62 1.03.67-.54.67.06 1.24.65 1.69-4 2.43-.36.54-.04 1.76-1.24 1.73 1.38.79.4 1.81.8 1.29-.91.64-.56 2.03-1.2.91 1.39 2.17.16 1.01-.36.94.34 1.13 1.54 1.38 1.72.25 3.54-2.47.95-1.11.63-.15 1.95 3.23 2.92 2.44-1.14 4.94-1.37 3.25.47.76 2.76 1.45.53.71-.29 1.55-1 1.1 1.04 3.51 3.89 3.16.91 1.84 1.47.29.26 3.74.4 1.1-.25 1.53-.67-.35-1.32 1.15-2.59-.12-1.64 1.1-.97 1.56.63 3.07-3.27 2.85.31.71 1.45 1.07.34.83-.27 3.43.57 1.41-.48 1.92-1.01.22-1.18-.85-1.55.78-.91 1.17-2.41-.17-.3 1.14-2.99 3.98-.37 1-1.47.8-.2 1.99.33 1.28 1.32 1.43 2.63 1.53.43.7.06 2.13.5.63 1.11.17 2.38-.65 1.32.27.46 1.79.46.34-.54 1.38.64.97 1.79.17.65 1.57.67.1 2.39-1.11.27 1.28 1.62.19.61.97.23 1.62 3.54 1.86.38 2.27 1.61 2.24 1.72 1.31-.75 2.01-2.48 1.2-1.28 1.66-.04 3.12-1.96 2.57.54 1.75-.11.75.47.21.54 1.03.7-.07 1 .96.9-.24.83-.77.95-.05.77 1.8-.19 1.41.57.65.36 1.8 1.48.33.57 1.79 4.08 5.24-1.11 2.77-.7.43-1.59.1-.97 4.37-1.37 1.41-.2.64.07.64 1.08.52.47.69-1.18 2.07-.63.32-.1.61.9 1.38.16.97.38 8.05 1.01.97-.31 1.96-1.47 1.82-1.28.12-1.94 1.61h-1.71l-1.2-.78-.67.1.37 1.37-.2.64-1.18.24-4.54 5.42-1.32.54-1.71-.14-1.54 1.96-1.55.33-.41 1.28.38 3.14-.63.91-2.3.93-.37 1.16-.95.68-1.51.24-1.74-.64-.74 1.23-1.58-.78-1.01.24-.6-1.98-1.71-.75-5.38 1.63-2.39-1.56-1.96.07-.75-1.53-1.69-1.67.18-.9-.38-1.79-1.51-4.3-2.28-1.75-1.07-1.92.08-.38 2.48-1.68-.17-1.28-4.56-4.53-1.84-1-2.25.05-1.13-1.75.57.14.26-.29-.71-.14.34-.4-.29-.21-.28-.26-.26-.26-.11-.55-.03-.14-.48-.78-.54-1.9.34.02-2.25-2.21-1.54-2.93 1.59-1.41 6.38-3.26.57.31 1 2.83-.85.1.54.5.51-.12.68 2.59 1.14 1.07.88 2.12 1.59 2.09.8.14 1.76 1.4 1.65-.26 1.65-1.09 1.85.19 1.22-.9-.57-1.24-.8-.02-.83.5-1.22-.88-.97.5-2.08-.45-2.5-2.38-2.79-1.88-1.05-2.45-.63-2.98-.03-.1-.26-.43.37-.38-.8.05-.74-.95.23-.38-1.2-2.65-.17-1.98-1.68-1.43-.31-.86.68-2.51 2.42-4.48 1.37-1.75.11-.12 1.08-.98-.03-1.05 1.08-1.44 1.03-.55.37-.79-.4-.46.77-.65-.23-.84-.46-.19-2.5-.17-1.28-.58-1.45-2.21-.17-5.39.51-3.95-.23-3.74.71-.58 1.62-.31v2.8l.63 1.04.77 1.25.08.77.23-.19.43-.84-1.42-1.88-.31-2.72 3.79-1.69 1.42.43 2.22-2.1-1.08-.51-1.54-4.3-.97-.85-.03-.29.91-.43-.03-.77.43-.07.54-1.45.51-.22-.1-.7 1.65-.15 1.54-1.07.29-1.53.77-.92.31-1.19-.43.29-.77-.53-.4-1.24.23-.48h-.51l-.37-.61-.2-1.33-1.37-.68v-.73l1.62-1.04h.6l1.77-2.26-.63-1.46-.71-.07.26.39.42.18-.19 1.3-1.48.63-.48 1.12-1.42.15-.77.39-.26.17-.77.39-.46.75-.14 1.53-.06.19-.06.46-.6.68-.4-.66-2.16.85-1.14-.95.37-1.38-1.96-1.75 1.05-.78-.94-2.02-.8-.12-.31.78.8.29.2.44-.26.8-.68.41.03.87-.54.68.11 1.65-.88.8-1.39 2.93-3.08 3.08.03.75.94.75-.48.24-.83-.77-.29-.12.26-.82-.63-.51-.11-.87-.77-.85-.57.27.17.53-.51.63-.97-.87-.37-2.3.46-2.3-.63-.07-.46-.75.2-.46 1.4-.07.48-.49.11-.68.06-.29.43-1.07-.34-.8.37-.02 1.02-2.36-.71.71-.14-1.02-.57-.63v-.66l-.74-.46.23-.51-.29-.29-.26.73.54.54-.09 1.09-1.48 2.16.68 1.12-.31.75-.91.51-.94-.61-.97.83-1.08-.19-5.01-8.21-.14-.97.37-.9-.48-2.07.11-1.05.63-.83.11 1.17.48.12.68-.58-.14-.22-.94.44-.2-1.54.51-.66-.65.07v.58l-.54-.19-.34.29-.54-.97v.68l1.05.68-.4.61-.54-.19-2.53-4.51-3.81-4.66-1.65-2.91-.66-.61-.65.02-1.03-2.15 1.48-.98 1.65-4.02-.17-1.69.66-1.52-.46-3.88.6.32.26-1.15 1.99-2.24.71-2.68.37.12.4-.89 1.71-1.25 1.31-1.77.28-2.09-.43-1.75 1.45-3.45.6-2.42 1.48-1.93 1.31-.81.54.1-.51.27.34.32 2.05.76.85.99-.17-1.41-.34-.27 1.42-.15.63-.79.09-.77 1.22.69.14-.3-1.37-.67-1.11.99h-.71l-.74-.37-.06-1.36.63-.99 2.88-1.63 1.42-.25.8.3.57.87 1 .27.26.49 1.96.49 2.25-1.01.34-.64 1.2.03-1.54-.79-.94.42-.08-.62 1-.96 1.08-1.58.21-1.47.75-1.34-.13-3.2.94.02 1.91 1.09 1.4-.05 1.14-2.75 2.26-.89.74-1.89 1.75-1.57.8-1.76 2.51-.57 1.28-.72 2.39-2.06z" fill="#2b8cbe" />
  </g>
  <g id="east-midlands" data-region-key="east-midlands" aria-label="East Midlands">
    <path id="GB-UKF" class="region-shape" d="M604.38 866.03l1.35.07 2.8 1.38 1.05 1.65.43 2.43 2.88 2.36-.16 2.6 1.67.62.57 1.38.75.02 1.51.9-.2 2.12 2.96 1.21.54.64-1.68 1.9 1.39.5.87-.24 2.01 1.31 3.72-1.47 1.38-1.43 1.96-.14.55.31.1 1.26 1.11.57 1.37.12 1.08-1.28 1.27-.26.48.31-.24 1.19 1.05.07.97.67 3.41-.18.51-1.15 1.59-1.66-.5-1.02 1.21-.67.37-.9-.21-1.93 1.57-2.07 1.08-.88 1.91-.07.83.48.43-.33 1.4-1.91.4-2.46 2.58-2.1 1.46 1.38-.01.38-.97.55.26.24 6.13.51 1.96-2.99.38-2.34 6.35.74.33 1.48-.61 1.98.93 1.05 1.76.14 3.13-.93 2.09-.91-.23-1.19.64-1.5 3.06-.53.61-.57-.06-.69-.63-.57-3.89-.26-.03-.33 3.09-2.39 3.29.89 1.28-.19 1.88-2.15.21-2.15 2.52 1.58 1.48 2.03 1.94.12.03.62-1.41 1.89.7 2.94-.33 2.05 1.31 1.12.33.72.84.45.27.83 1.2 1.21.61-.05 1.48-1.29-.91-1.05-.1-.62 1.76-4.15.71-.48 1.04.24 2.09-.81.88 1.06 1.34-.19 1.17 1.65 1.34.6.37-.31.97 1.07 1.14.31.97 2.79 1.25 1.41.09.6.6.12.23 1.86 1.85 3.07 1.82 4.61 1.31 2.33 1.17 3.37.06 1.49.85 3.08-.57 6.2-.48 1.7-2.02.59-1.54 1.8-1.02.62-.06.42-.6.12-.63.87-1.85 1.18v.42l-.65.21-.29.69-.71.26.26.47-.91.31-.09.66-.48.14-.23.83-.46.09.23.47-1.62 1.96-.43 1.51-.48.71.2.54-.4.96.65-.16-.06.47.63.07.23.45 1.4-.38.68 1.04.4-.21.08.8.68.42.8-.17.65 1.06-.26.38 1.25 1.22.54 1.69.88.56.11-.31 1.39.45 1.27-.33-1.33 3.93.84 1.13-.13.52-3.93 2.93-2.58-.3-2.66 1.45-1.91.21-.38.42.23 2.53-.47 1.17-.81.73-1.65.04-2.63-.91-1.61.7-.95-.16-1.85 1.12-1.17-.49-1.17.21-.84-1.21-3.2.74-2.72-1.36-4.45 2.25-1.72.02-1.59-.56-1.23.57.82.97.44 1.33-.4 3.46.67.51 2.41-.34-.07 1.33.86 1.08-.45 2.15 3.03 1.83.64 2.89-2.42 3.63-1.72 1.37-.48 1.12-3 1.42-.06 1.42 1.24 2.09.14 1.24-2.27.48-1.14 1.65-.34 2.81-.47.33-.9-.19-.97-1.3-.67-.21-2.6.58.36 3.59-1.02 1.97-3.82 2.57-1.69-.07-.73 1.3-1.57-.44-.98 2.06-2.69.95.03.83 2.56 2.82.01.65-1.45.48-.03 1.5-1.73 1.7-.58.12-2.01-4.43-.48-.16-2.09.9-1.67-.14-.68.92-3.07.81-1.14.74-1.17 1.43 1.72.71-1.55 1.62-1.22.14-1.1.81-2.59-.16-1.13.32-.46-.28-1.62-4.91.14-2.7-.66-.51 1.69-.88 1.54-.21.33-.46-4.3-5.45.93-1.63 2.79-1.18.17-.88-1.03-1.25-.03-.58 2.96-1.85-.04-1.88-.78-.83 1.11-1.58-.28-.42-1.72-.39-.4-.72.83-.65 2.68-.91.81-.81-.1-.91-2.28-4.77-1.51-.86-2.68-4.47-5.25-2.78-1.1-1.91-3.99-1.78-1.17-1.52-1.44-.54.19-1.68-.85-1.75 1.14-.7.14-.98-2.36-2.97-.16-.68-.85-.05-.41-.7-.73.87-.92-.12-.3-1.83-1.82-.68-.97-.97 1.43-2.71 2.22-1.17.73-2.18 1.24-1.08-.9-1.67-1.14-.89-4.63-.35-1.75-1.76-1.68-.05-.63-.59-1.22-.17-.16-1.27-.71-1.2.03-1.67.84-.05.36-.42.24-2.66 2.79-1.79.63-1.49-.1-1.89-.84-.83-.27-.83-.36-2.48.23-1.65-1.42-2.41-.21-2.56-1.05-1.23-1.67-1.14-3.87-1.59-1.04-1.61-1.25.56.31-1.96-1.01-.97-.38-8.05-.16-.97-.9-1.38.1-.61.63-.32 1.18-2.07-.47-.69-1.08-.52-.07-.64.2-.64 1.37-1.41.97-4.37 1.59-.1.7-.43z" fill="#4575b4" />
  </g>
  <g id="west-midlands" data-region-key="west-midlands" aria-label="West Midlands">
    <path id="GB-UKG" class="region-shape" d="M600.3 893.93l1.24-.55 1.04 1.61 3.88 1.59 1.66 1.13 1.05 1.24.22 2.55 1.42 2.42-.23 1.65.36 2.48.27.83.84.82.1 1.89-.63 1.49-2.79 1.79-.24 2.66-.36.43-.84.04-.02 1.67.71 1.21.15 1.27 1.23.16.63.59 1.68.05 1.75 1.76 4.62.35 1.14.9.9 1.66-1.24 1.08-.73 2.19-2.22 1.17-1.43 2.71.98.97 1.82.68.3 1.83.92.12.73-.87.41.7.86.05.15.68 2.37 2.97-.15.98-1.14.71.86 1.75-.19 1.68 1.44.54 1.17 1.52 3.98 1.77 1.1 1.92 5.25 2.77 2.68 4.48 1.51.86 2.28 4.77.09.9-.81.82-2.67.9-.83.65.4.72 1.72.4.29.42-1.11 1.58.78.83.04 1.88-2.96 1.85.03.58 1.03 1.25-.18.89-2.79 1.18-.93 1.62-.63.78-.4 1.48-1.65 1.35 1.15 1.15-.34.76-1.11.28-1.44-1.32-.95-.09-.59.12-.15 1.38-1.53.19-.24.99-1.04 1.32-.74 5.19-.42.83-1.41.3-.22 1.29-1.86.16-.37.95-.54.07-2.49-2.41 2.06-3.54-.45-.32-1.86.3-.88-.35-1.65-2.84-.47-1.64-1.08-.37-1.07-1.36-1.05.57-1.82 2.5-1.5-.35-1.04.86-.04.37.8.41 1.07 1.57.12 1.25-.34.94-.6.03-1.8-1.69-3.25-.18-1.47.34-3.07 2.17-2.09-.64h-1.75l-1.24 1.03-.68-.91 1.45-2.98-2.55.13-.6 2.76.85 1.03-.76.6-1.71-.26-1.34 2.22-.9.11-2.87-.9-1.74-3.43-1.39.23-1.26 1.45-1.01.44-.84-.42-.61-1.56-.99-.54-1.06 5.12 1.08.86.29 1.47 1.07 1.2-.03 1.56-1.84 1.15-1.82.23-.71 1.75-1.58-.23-1.44.6-.35.8-.65-.16-1.12.74-.48-1.31h-.35l-.58 2.59-.56.61-.33-.72-.89-.19-.8-1.12h-2.02l-1.51-2.23-.61-1.61-2.16-1.31-2.34-2.26-1.49.21-2.48 1.63-.88-.25-.33-.81-1.09-.5-.29-1.48-1.76-1.65-1.16-1.66-1.81-3.23.39-1.13-.16-.9-1.55-1.9-.76-.09.59-2.3.81-1.19-1.39-.6-.13-.6 2.77-1.76-.02-.81-1.46.3-.47-.99 2.67-4.08.34-1.34 1.34-.93.81-1.11 3.03-.49-.26-.77-1.61-.44-.55-.95.45-1.93 1.81-1.2.19-.63-.21-.76-.93-.43-2.38.51-2.35-.39-1.85-1.98-1.86-1.28-1.34-1.65-1.52-.56-.93-1.77v-1.65l.93-1.35 2.39-.93 2.09-1.36 4.06-.21.5-1.4 1.45-.46.87-1.92-1.87-2.33-2.93 1.98-.94 1.45-1.21.26-.47-.26.58-1.4-.88-1.73.04-1.35 2.24-1.59.85-3.14 1.78-1.26-.18-2.44 1.11-2.48 2.16-.37.66-.9-.06-.51-1.8-1.06-.45-1.05-2.96-.68-.85-1.32-1.97-.26-.91-.37-.47-.64-.77-2.16.23-1.01 1.65-1.88-.64-2.3 1.79-.92.37-1.6 1.25-1.09.32.12 3.33-2.47 1.6.07 1.76 1.7 2.52-.78 1.31.19 3.6 3.48 1.71-1.36 1.55-.21.14-2.45-.55-1.74 5.38-1.64 1.7.76.6 1.98 1.01-.24 1.58.78.74-1.22 1.74.63 1.51-.23.95-.69.37-1.15 2.3-.94.63-.9-.38-3.14.41-1.28 1.56-.33 1.53-1.96 1.71.14 1.32-.54 4.55-5.42 1.18-.24.2-.64-.37-1.37.67-.09 1.19.78h1.71l1.93-1.61 1.29-.12z" fill="#74a9cf" />
  </g>
  <g id="south-east-england" data-region-key="south-east-england" aria-label="South East England">
    <path id="GB-UKH" class="region-shape" d="M751.23 1011.41l1.96.73-.09.3-2.96 1.79-2.48-.07.2-.99L749 1012zm-14.29-98.82l2.79.59.34.99.08-.68 1.03-.26 2.16.33-.11.54.57-.45 1 .02.11.4-.37.28.65.85-.03-.57 1.05-1.41.6.33-.14.49 1.48-.21.43.47.43-.19.37.54.85-.12.65.33.31-.35 2.99-.09-.57-.35-1.48.14-.48-.26.91-.52 6.89 2.33 4.19.35 4.53 1.06 6.49 4.1 2.51 2.56 7.86 6.67 3.59 4.62 2.42 7.96-.63 6.12 1.59 6.25-1.39 2.31-.48 4.84-1.79 3.58-.51 2.3-.4.88-1.42 1.37-.71 1.72-.46 7.37-.71 1.58-1.59 7.08-5.41 2.91-1.54 1.99-.68 1.84-1.85 1.43-.2-.99-1.28-.83-.11-1.11-1-.83.43-.51v-.65l-.54-.55.11-.97L769 989l-.11.02 1.14 1.59-.03.88.68.53-.37 1.04.91.81.23 1.29.8.37.66 1.06-1.05 1.98-1.39.6-1.28 2.05-.06-1.52-1.79-1.52.03-2-4.84-1.82-.94-1.22-.54-.16-.23.02 1.31 1.78.97.23.57.81 2.93.78.48 2.54-.51.21-1.14-.51-1.42.67-1.59-.23-.48-.83-.8-.14-1.65 1.11-1.54-.02-.74-.37-.94.8 2.71.72 2.5-.69 1.14.65 1.39-.35.54.21 1.4-.51 1.05.78.06-.51.77-.35-.03 1.01-1.05.69-1.28 3.29-.65.21-.14.14-.94.39.65-.02-.06.55.43-.69 1.4-.14.31 1.75.31-.28-.43-1.56 1.45 1.01-.14.97-2.36 3.15-1.71 1.47-2.65 1.47-.29.14-1.91 1.1-3.53.25-.68-.64-.03-.78.26-.28-.97-.94 1.31-.12 1.08-.94-1.22.71-1.59-.09-1.34-1.72.06-.76.34-.12-.68-.87-.03.21-.14 1.38.37.96-.8-.34-.14-.02-.66-.09 2.08 1.33-1.14-.5-2.25.46-.34.69-1.14 1.35-.14.71-.63-.69-1.65-.16-.17.23 1.62.16.94 1.12-.63.23-1.14-.37-.2-.09-.09.12.23.23-.2.28 1.39.3-1.59 1.35-1.99.28-1-.44-.11.23-.14.32-1.31-.32-1.37.94-1.03-.6-.46 1.03-.71-.85-.14.6.43.05.65.94 2.93.53-.85.66.06.48-.83.46.74.07.71-1.17.28-.14 1.11-.39-.03-.73.66.16.63-.41.85.5 1.25-.25.77-.34 1.11-1.81 1.77-.28.91 1.05.11 1.05-.46 1.58.43 1.63-.65 3.85-.37.53.51.82 1.05-.07-.2.55-1.94 2.33-2.76 2.26-1.11-.16.43.59-3.22 2.58-1.25-.52-5.01-.89-1.22-.14.17.3-.88.43-1.39-.32.31.53.71-.05.71.66-.94.62-1.37.27-.29-.32-.48.55-1.11-.18-.4-.57.03-.11-.91.04-.51-.98-.54-.04.46.25.23.96.94.34-1.51.53-2.88-.02-.68 1.12-.26 2.39-1.25.61.14.42-2.46.55-1.27-.25-1.5-1.57-2.39.73-2.15-1.37-.36-.37.11-.66 1.2-1.07.29-1.73 1.28.27.37-.84 2.88-1.07-1.42-3.2-1.22-.41-.71-.8-1.15-2.79-.85-.14-2.39.8-3.71.32-.85 1.05-.6.14-2.72-1.65-.48-1.3-1.75-1.07.3-1.33-.22-.92-7.01-.98-1.3 1.88-1.39.34-.87.66-1.07-1.49-.81 2.31-3.42.8-2.72 1.65-2.97-.07-1.38.37-.57-.55-.58.11-.62 2.07-1.29-1.38-.36-1.42.09-1.33 1.38-2.84-.5-.3-1.57.34-.11-1.53-.58-1.24.13-.64 1.27-.99-.16-.55-.75-.34-1.2.57-1.24-1.4-2.18.02-1.57-.8-.6-.89-.24-2.18-.94-1.01-.67-.09-1.04-1.54.87-1.7.6-.12 1.38.55-.1 1.15 1.15 1.47 2.05.14 1.76.69 1.41-1.68.94.18-.03-.62-1.38-2.3-2.15-2.09-1.15.3-1.82-1.66-1.38-.53.91-2.76 1.47-2.14-.64-2.17 1.01-1.36.23-1.98-.41-.72-1.04-.16.94-1.41 1.28-.58-.17-.95 2.29-1.87-.74-1.78-2.23-2.37.53-2.37-1.7-1.47 1.02-1.97-.36-3.59 2.6-.58.67.21.97 1.3.9.19.47-.33.34-2.81 1.14-1.65 2.27-.48-.14-1.24-1.24-2.09.06-1.42 3-1.42.48-1.12 1.72-1.37 2.42-3.63-.64-2.89-3.03-1.83.45-2.15-.86-1.08.07-1.33-2.41.34-.67-.51.4-3.46-.44-1.33-.82-.97 1.23-.57 1.59.56 1.72-.02 4.46-2.25 2.72 1.36 3.2-.74.84 1.21 1.17-.21 1.17.49 1.85-1.12.95.16 1.61-.7 2.63.91 1.65-.04.81-.73.47-1.17-.23-2.53.38-.42 1.91-.21 2.66-1.45 2.58.3 3.93-2.93.13-.52-.84-1.13 1.33-3.93 2.26.28-.43.23 1.42.96.31-.82.48.16 1.96-2.21 1.03-.12.26-.68.51.21.37-1.03-.11-1.46 1.25-2.5.91-3.72 2.08-2.26 1.91.02.31.33.88-.45 2.08.21 1.17-.54 1.08.31-.26.71 1.59-.99-1.05.33.03-.78-1.05.38-.11-.57z" fill="#4eb3d3" />
    <path id="GB-UKI" class="region-shape" d="M676.31 1029.36l.62-2.06.58-.12.57.55 1.38-.36 2.98.06 2.72-1.64 3.41-.8.81-2.31 1.07 1.48.87-.66 1.39-.34 1.3-1.88 7.01.98.22.92-.3 1.33 1.75 1.07.49 1.31 2.72 1.64.59-.14.86-1.05 3.71-.32 2.4-.8.85.14 1.15 2.79.71.8 1.23.41 1.42 3.2-2.87 1.07-.37.84-1.29-.27-.28 1.73-1.2 1.08-.11.66.36.36-.63 1.35-1.55 1.57-1.04 1.68.43 2.35-.72 2.77-3 3.57-.14 1.86-1.28.48-1.06-1.02-1.32.43-.31-2.36-.84-.89-1.37-.11-1.02 1.25-.97-.07-.98.43-.89 1.5-1.33.29-1.19-1.13-1.39-2.96-.53-.04-1.58.93.07-2.02-1.28-1.68-1.29.97-1.28 2.68-.97.39-.14-1.88.86-1.91-.69-1.8-1.63-.14-1.62-1.05-1.29-1.47-1.61-.44-.44-.63-.06-1.3-1.65-.41-1.21-1.56.65-1.36.67-4.56z" fill="#4eb3d3" />
    <path id="GB-UKJ" class="region-shape" d="M634.8 1096.49l.63.61.83-.54 1.88 1.86 1.25.38-.08.34 2.65.11.28-.02 2.51.94.65 1.3.03.96.2-.2 1.14.67.03.43-1.37.99-.08.54-1.79.16-1.54 1.23-.6 1.99.06 1.23-.57.83-3.3 1.32-2.56.45-4.67-4.25-2.76-1.14-2.08-1.99-1.37-.27-3.02.9-1.17-.27 1.22-.31-.03-.65 1.14-.4.71-1.25-.09-.49.63-.58 2.76-.2 2.25-1.37.66.13-.08.79.51-.45.51.36-.17-.74h-.6l2.82-1.05.46-.99 1.14-1.1zm18.02-4.92l.14.61.17 1.42-.48-.07-.31-.52-.34.38 1.17.72-.57.07.31.22-.51.29.74.27.14-.07.4.4-.11.43-4.44-.81-.08-.76 1.14.18.68-.7.31-1.46-.37-.4 1.14-.72zm87-50.52l1.05.62 1.22.11 1.74 1.16 3.99.71.46.89 1.37 1.21.65 1.39-.23.66-.43-.14-.88.86-1.31.3-2.16-.86-2.79-.32-.43-.39-.6.46-.63-.18.08-1.16-1.88-1.37-.48-1.05.51.36.57-.27-.37-1.14zm-71.76-61.5l1.7 1.47-.53 2.37 2.23 2.37.74 1.78-2.29 1.87.17.95-1.28.58-.94 1.41 1.04.16.41.72-.23 1.98-1.01 1.36.64 2.17-1.47 2.14-.91 2.76 1.38.53 1.82 1.66 1.15-.3 2.15 2.09 1.38 2.3.03.62-.94-.18-1.41 1.68-1.76-.69-2.05-.14-1.15-1.47.1-1.15-1.38-.55-.6.12-.87 1.7 1.04 1.54.67.09.94 1.01.24 2.18.6.89 1.57.8 2.18-.02 1.24 1.4 1.2-.57.75.34.16.55-1.27.99-.13.64.58 1.24.11 1.53 1.57-.34.5.3-1.38 2.84-.09 1.33.36 1.42 1.29 1.38 1.13 3.37-.67 4.56-.65 1.36 1.21 1.56 1.65.41.06 1.3.44.64 1.61.43 1.3 1.47 1.62 1.05 1.62.14.7 1.8-.87 1.91.14 1.89.97-.39 1.28-2.68 1.3-.98 1.28 1.68-.07 2.02 1.58-.93.53.05 1.39 2.95 1.18 1.14 1.34-.29.88-1.5.98-.43.97.07 1.02-1.25 1.37.11.84.89.31 2.36 1.32-.43 1.05 1.02 1.28-.48.14-1.86 3-3.57.71-2.77-.43-2.34 1.04-1.68 1.55-1.57.63-1.34 2.15 1.37 2.39-.73 1.5 1.57 1.27.25 2.46-.55.23.47 2.02-.8-.23-.89.23-.14.14-.64 1.05-1.07 2.11.25 1.31-.25.29.46.88-.23.68.34.11-.32 1.42.75 1.62-.3 1.34.59.6-.3.88.21 1.14 1.48.03.93-.43.59-2.08.3.03-.55-.97-.84-.31.43.57.59-.8.11-.17-.14-.28-.27-.66.27-.29.66.31.41-.97.64v.46l-.46-.46-1.03.05-.65.52-1.28-.34-.48.27.85.11.37.75 1.2.71 1.31.02-.14.25.68.73.46-.27-.2-.52.85-.02-.48 1.05.8-.91v-.68l.43-.14 1.28 1.73.65-1.3.85-.02-.37.8 1.17-.5-.48-.09.11-.25-.65-.55-.14-1.66 1.62-.3.23.66-.66-.11-.14.34.51 1.12 1.91 1.21-.2 1.05.26.7 2.19.21.29.48 3.25.02 1.05.79-.06.23 1.02-.32 4.33-.2 1.59-1.48 6.43-.59 2.53-.61 3.62.25.6-.41 1.34.16.94-.46 2.28-.07.4-.48 2.05-.09.85.59.37 1.09-.31 1.96-1.2 1.64.2.41-2.42-.34-.74.7.46.5.29 2.07 1.4 4.4.08 5.05-.37 1.16-1.2 1.58-1.62.66v.61l-1.45.11.06.7.37.25-1.11-.23-1.68.97-2.25.18-1.99 1.58.28.29-6.01 1.04-1.48.79-2.05 1.81-1.42 2.12-.71 3 .97 4.06-.2.52-1.74.09-8.65-1.76v.5l-1.22.29-1.82 1.35-2.53 2.84-3.56 1.39-3.7.43-2.5.99-3.08.47-2.79 1.24-.97.9-.54 1.24.03.11-.2.25-1.14.56-1.82 2.09-.51 1.1-1.02.36-1.71-.34-2.93-1.64-.6.25-1-.22-2.45-1.86-1.02-.02.28.47-7.63-2.9-.85.22-.34-.49-1.08-.31-.08-.02-1.05-.29-4.21-.61-.26-.04-.31.07.08.32-1.71-.04-5.58 1.66-7.63.31-7.83 1.84-2.33.99-2.56 3.61-2.93-2.62-3.64-2.04.06-.79.37.18-.06.45.77-.81.48-1.3.83-.07 1.28.7.91-.38.63-.83.11-1.24-.51 1.28-1.08.81-.43-.04-1.05-.63-.09-.04-1.34.67-.08-.56.57-.22-.37-1.1.2-.72-1.03-.16.37 1.42-.28 1.5-1.68-1.21.57-2.07-.94.05-.14.65-.97-.56-.28.58-1.03-.63-1.03-.04.17.54-.4.22-.06.58h-.4l-.23-.65-.63.16.46.67.11 2.4.37-.2.17.7-3.19.9-1.02-1.06-.17-.9.37-.74.2-.16.17-.65-.09-.52.57-.25-.91-.63.17-.72-.54.02.17.7-.31.2-2.25-.72-.71.43 1.34.25-.06.67.65 1.06.83.56-.17.52.37.09.03.11.26.72-1.51 1.37-.91-.85-1.65-.52-1.71-1.91-1.22-.31-.68-.67-2.13-.97-.14-1.12-.28.27-.66-.31-.06-.11-3.05-2.99-.06-1.04.71-.63-.23-.43-.54.07.54.43-.63.45-.23 1.8-1.02-1.37-1.34-.7-.4.34-.54-.13-.83-1.17-.26.34.71.99 1.17.11.08.32 1.08.29 1.03 1.89.8.07-.23.38.48.61 2.65 1.6h-.17l-.28.29.68.72v.61l.65.27-1.62 2.36-1.82.07-1.11.47.11.13.8-.18-1.74 1.03-3.53.88-.23.07-.8.13-.68.27-.17.22-.85.25.28.65-1.68 1.12.2.81-.8-.29-.48-.25-4.42-1.3-.26-1.54h-2.95l-.04-1.91-2.64.75-.68-1.11-.5-1.59.14-1.37.54-1.01-.49-2.92-1.39.15-.33-2.07 1.42-1.15.33-1.94-1.64-.34-1.31.88-.88-.16-1.41-1.55-2.19-3.61 1.21-.91 2.95-.51.01.79.56.11.54-1.02.5-.16 1.37 1.33 2.26.5 1.34.7 2.18.25 1.39 1.65.81.36 2.28-.77.56-1.4-1.11-1.44.3-.86.97-.99-.31-.72-.98-.63.09-1.63-.57-2.6.48-1.81-.36-.72-1.22-.75.26-1.92-.37-1.74-1.55-2.76-.57-2.56.81-.27 2.69.48.68-.36.75-1.13 1.04-.43 2.12 1.04.54-.61-.58-1.88.98-2.2-.34-2.23 2.04-.23.06-.93-.57-.86-.06-.96-1.81-.93-1.54-2.84.51-.66 1.61-.46-.33-2.1-1.14-.82-1.32-2.26-.41-2.34-.94-.23-2.25-3.97-1.11.04-.36-.39-.13-2.22.92-.94.27-1.71-1.51-1.53-.14-1.53.17-.78 1.75.4.26-.49-1.64-2.06-.84-4.77-.85-1.03 1.54-1.84.17-4.8.92-2.3 1.04-.9-.44-1.34 1.71-1.79-.31-1.11-1.95-1.17.23-2.06 2.49 2.41.54-.07.37-.94 1.86-.16.21-1.29 1.41-.3.43-.83.74-5.19 1.04-1.32.24-.99 1.52-.18.16-1.39.58-.12.95.09 1.44 1.32 1.11-.28.34-.76-1.15-1.16 1.65-1.34.4-1.48.64-.78 4.3 5.45-.33.46-1.54.21-1.69.88.66.51-.14 2.7 1.62 4.91.46.28 1.13-.32 2.59.16 1.1-.81 1.22-.14 1.55-1.62-1.72-.71 1.17-1.43 1.14-.74 3.07-.81.68-.92 1.67.14 2.09-.9.48.16 2.01 4.43.58-.12 1.73-1.7.03-1.5 1.45-.48-.01-.65-2.56-2.82-.03-.83 2.69-.95.98-2.06 1.57.44.73-1.3 1.69.07z" fill="#4eb3d3" />
  </g>
  <g id="south-england" data-region-key="south-england" aria-label="South England">
    <path id="GB-UKK" class="region-shape" d="M376.18 1166.04l1.15.33-.07.48-.46-.33-.04.77-.36-.53-.37.18.17-.53-.13-.11zm2.79-3.03l1.01.62-.24.18.31.46-.19.53-.07.11-.34.33-.83-.18-.06.68-.56-.86-.33.44-.34-.4.95-.31-.26-.77.21-.57zm-3.23-2.4l.57.99-.11.77-.63.26-.1-.44-.1-.33zm.64-.09l1.14.75.34 1.3-1.05.35.19-.49-.44-.64.24-.15-.7-.88zm2.28-.9l.78 1.15 1.14-.18.17.4-1.18.55-.27-.49-.8-.15.34-.49zm187.27-149.33l.58-2.6h.34l.48 1.31 1.13-.73.65.16.35-.81 1.44-.6 1.58.23.71-1.75 1.82-.23 1.84-1.15.03-1.56-1.07-1.2-.29-1.47-1.08-.85 1.05-5.12 1 .53.61 1.57.84.42 1.01-.44 1.25-1.45 1.39-.23 1.74 3.44 2.88.9.9-.11 1.34-2.21 1.71.25.76-.6-.84-1.03.59-2.76 2.55-.14-1.45 2.98.68.92 1.24-1.04h1.75l2.09.65 3.07-2.17 1.47-.35 3.25.18 1.81 1.68.6-.02.34-.95-.13-1.25-1.07-1.57-.8-.42.04-.37 1.04-.86 1.5.35 1.82-2.5 1.05-.58 1.07 1.36 1.08.37.47 1.64 1.65 2.84.88.35 1.85-.3.46.32-2.07 3.54-.23 2.06 1.95 1.17.31 1.11-1.71 1.79.44 1.34-1.04.9-.92 2.3-.17 4.8-1.54 1.84.85 1.03.84 4.77 1.64 2.06-.26.49-1.75-.4-.17.78.14 1.53 1.51 1.53-.27 1.71-.92.94.13 2.22.36.39 1.11-.04 2.25 3.97.94.23.41 2.34 1.32 2.26 1.14.82.33 2.1-1.61.46-.51.66 1.54 2.84 1.81.93.06.96.57.86-.06.93-2.04.23.34 2.23-.98 2.2.58 1.88-.54.61-2.12-1.04-1.04.43-.75 1.13-.68.36-2.69-.48-.81.27.57 2.56 1.55 2.76.37 1.74-.26 1.92 1.22.75.36.72-.48 1.81.57 2.6-.09 1.63.98.63.31.72-.97.99-.3.86 1.11 1.44-.56 1.4-2.28.77-.81-.36-1.39-1.65-2.18-.25-1.34-.7-2.26-.5-1.37-1.33-.5.16-.54 1.02-.56-.11-.01-.79-2.95.51-1.21.91 2.19 3.61 1.41 1.55.88.16 1.31-.88 1.64.34-.33 1.94-1.42 1.15.33 2.07 1.39-.15.49 2.92-.54 1.01-.14 1.37.5 1.59.68 1.11 2.64-.75.04 1.91h2.95l.26 1.54-2.58.04-.91.83-.43 1.01-4.16-.72-2.88.56-1.54.83-1.54 1.7-.34-.34 1.05-.76-.8-.83-.06-.2-.68-.02.23-.49-.77.43-.74-.16-.31.43-2.48-1.03-.17.36-.91-.11-.37.61.4.18-.63.13-.34 1.41.83-.04.43-.9.8-.63.71-.04.43.43-.68.04.34 1.14-.09.29.23.22.54-.13.14.58.37.29.28.4.83-.78-.23.58.57.31-.26.34.46-.09-.06-.54 1.03-.78.43.54-.57 1.75.57.76.94-.02-.46.87-.83.34-.43.69.06.72.66.09-.37.29-.06.85-3.84.42-1.42.98-.43-.36-.06-1.01-2.65-.45-.97-1.1-.66.34-.54-.56-1.51.04.11-.29-.54-.31-2.48.51-.17-.29-3.96-.42-.68-.58-4.41-.31-1.48 1.79.09.36.4-.02-.26.67-.11.04-1.02 1.25.37.98.68.42.83-.36.57.22-.29.25.68 1.3-.14.63-1.96 2.35-.29-.27.2-2.1.46-1.32-2.28-2.53-6.63-5.46-5.95-3.58-2.76-1.26-6.04-1.28-.83.31-.46.87-3.79 1.59-3.47-.27-.74.58-.2.85-4.64.02-2.42.49-1.59.63-1.82 3.22-2.71.96-.26 1.01-.34-.27-1.14.22-2.02-.83.46-.29v-.81l-.83-1.19-.91-2.44-.48.04-.34-.49.03 1.63.77 1.01.37 3.54.94-.69-.06.6-1.88 1.99-.26 1.52-1.37 1.53-.28-.19-1.62-.13-2.59.6 3.93-.2.54.29-.8 2.19-.17 2.32.91.51-.2.33 1.02.8-1.85.65-1-.69-1.08 1.47-.14.6.4.67-.37.18.2 1.49.54.38.85-.2.77.49 1.62-.02-1.08.89.37.6-1 .65-.06 2.03-1.42 1-1.36-1.22-.38-2.03-.56-.74.58-.57-1.71-.02-1.17-.65.09.18.37.47.83.51.74-.38-.14.56.6 1.05.06.6.37 1.27.63.38.06.53-.4.8-2.08.62-1.48 1.96-.91 4.15.11.84.8.84-.88.22-1.25-.29-1.28 1.33-.8.27-.77-1.04-1.71-.58.43-1.2 1.57-.13-.17-.36-1 .27-.14-.91.51-.16.09-.6-.51.49.06-.51-.4-.02.08-.98-.28.13-.34-.4.34 1.18-.97.51 1.11.09.28 1.18-.51-.31-.65 1.09-.11 1.6-2.02-.58-.6-.8-1.76-.95-.11-.35.6.04.11-1.44-.6-.24-.74-1.04.2-.4.03-.2-.85.22-.06-.47-1.05-.64-1.42-.07-.14-.82-.68.29-1.62-.31-2.13 1.16-2.11-.96.68-.6-.4.02-.71-.49-1.39.18-.54-.75.06-.89-.37-.04.31-1.11-.54-.8 1.14-.07.54-1.47.77-.58-.88.36-.77 1.38-.79-.09-.14.31-1.59-.07-1.03-.29.09-1.02-1.03-1.63.6-1.98.71.13-.57-.51.85-.51.97-1.92-1.65 2.05-1.57-2.79-.54.45.06.45.54-.54.34 1.47.57.71-.29.65-.28.22.2 1.54-.31.67-1.37.49-.8.78-.71-.31-.23.85-.79-.78-.04-.67-.48.38-.23.09 1.34 1.14 1.62-.27.66-1.02 1-.22.54.36-.34.25.57.27-.31.22.46.13v.51l-2.02.6.85.09.17.62.37-.51.54.16v.56l.8-.65.51.18.23 1.04-1.71.96.57 1.29-1.03-.04-.8.58-.17-.71.4-.4-.37-.58-3.33-2.13-3.84-.11-1.03-.36-2.53.29-.85.73.11.62-1.14.47-.06.47-1.25-.31-.14.47-1.88.56-2.45-.69-.63.69-.29-.4-1.45.36.09-.85.08-1-.4-.02-.85 1.91-.74.04-.2.71-.66-.47.11-1.47-.43-.67-3.59 1.45-.23 1.25.54.51.08.69-.6-.18-1.02 1.11.34.58-.4 1.35 1.05.42-1.05.89.23.67-.88.53v.89l-.37.11-.43-.95-1.28-.16-.23-.4-1.57.51-2.39 2.84-.65-.95-.77.09-1.31 1.71.06 1.62-.6.51.14.49-.71.22-.68.8-.4-.11-.08-.75.4-.38.26.24.6-.8-.48-.58-.09-.16.03 1.11-.48-.15-.6.33-.17-.4.57-1.95-.43.15-.4-1.6-.77-.07-.91-.44-.51.16 1.08 1.33.03.82.43.24.08.35-.48.87-1.11-.18.63.84.74-.24.4 1-.65-.35-.77.55-.51-.29.34.82-1.08.69.26.09-.08.82.48.38-.88.8-.66-.33-.65.4-.85-.13-2.73.89.17.4 2.53-1.02.34.27 1.51-.11.63.53-.88.31 1.79-.13-.23 1.42.68.16.08.84.46.29-.57.35-.14 1.11-1.34.51.23.97-.31.07-.17.82-.65.11-.46-.49-2.08.22-.35 1.19-.78.91-.01 1.35-.61-.02-.04.35-1.04.22-.08-1.19-1.48-.4.13-.68-.58-.38.06-.6-.57-.22-.09-.57.54-.57.11-.75-.46-.4-.08-.77-.77-.4.31-.51-.85-1.37.51-.4-.08-1.06-.46.13.14.6-.43.38-1.79-1.55-1.51.16-1.34-1.17-.46.24-.66-.31-.91.58-.31-.91-1-.44-.37-.69-.71.02-.28-.35-.94-.16-1.57.38.03.64-.91.66.8 1.46-.51 1.39-.46.84-.65-.09-.68.88-2.36.13-.71.8-.74-.27-.08.46-1.25.2-.48-.26-.43-1.28-.83-.27-.34-.95 1.45-1.55-.48-.91-.11-1.55-.51-.67.37-.07-.06-.55.54-.2.08-1.02.94-1.22 2.19-.09.65-1 .57-.11-.14-.33.54-.67.46.33.74-.91.54.07 1.37-1.29.68.16 1.34-.47.68.38.63-.27-.26.47.57.53v.51l1.57.44.17.13.2-.47.91-.67 1.05-1.66-.2-1.02.94-.31.43.6 2.08-.49 1.34-1.62.43.11.97-1.11 1.45-.71.63-1.29v-1.51l1.77-.11.97-1.09-.03-.51 1.39-.62.37-2.14-.46-.31.26-.22-.37-.53.77-.47-.2-.89.37.11.23-.38.83.25.23-.2-.54-.36 1.22-.07.11-1 .68.78.65-.22 1.62-2-.06-1.58.57-.31-.43-.47.2-1.61-.51-.33 1-.96-.2-.98.29-.4.03-1.05-.8-.38.17-.4.6-.2.37.56.71-.13.14.51.88-.18.6-1.23.51-.13.46-.76h.48l-.23 1.05.71.51-.17.67.37.89.46-.11 1.14.42 1.05-.36 1.54.29-.03-.4-.54-.29-1.54.02-.34.45-.94-.58.08-.4-.71-.31.09-1.21-.29-.25.83-.89-1.03-1.03.88-.54.51.78 1.2.18.77-1.03.57.16.51-.42.37.38.83-.02 1.54-.36 1.2-1.9.17-1.68.37-.11.06-.63-.37-.29.17-1.17.88-.07.23-.45.43.38.48-1.1.94-.02.37-.67.88-.13v-.7l.68-.18.68-.74.28-1.23-.23-.7.68.11.28-.22-.23-.36 1-.45.37-.83 1.11-.36 1.51-1.28.2-3.82.31-.13-.43-3.94-.4-.47.34-.52-.43-1.04.77-1.78.43-.2-.17-.99.85-2.03-.14-1.06.31-.56-.28-1.85.43-.23.06-.92 1.14.32 1.71-.23 1.05.56 1.22.04 1.82 1.6 2.42.45 2.22-.88 2.08-3.16 1.17-.38.74-1.76.71.29-.03.68.48-.43.48.32v.79l-.65.88.17.16.97-1.36-.03-1.33 1.37-1.22 1.45.18.6-.99 1.79 1.08.74-.23h-.63l-2.16-1.22-.8.79-1.14-.04-1.45.77-.17.86-1.17-.7-.54-.97.03-2.51-1.2-.43.37-.84-1.31-.81.29-.43 1.76.23.37-.43.34-1.81-.29-.75-.8-.57 1-.18.46-.82 1.39.18 2.71-1.13.71.23 1.11-.66.68-.02 1.59.84.65-.7 3.64-.27 1.65-1.02 1.65.63 2.25-.88 2.14.25 1.14-1.16.8.68 7.09 1.16.68.54 1.51-.57.57-.66 1.74-.07 2.5.7 1.45 1.41 1.05-.16 1.88 2.08h4.16l.74.36 2.02-.11 3.81-1.79 1.05.18 1.28-.72 1.37-.16 1.51.2 1.05.59 1.11-.13 1.28-1.18.66-.11-.56 1.71-.78.24-.48.86 1.59-.93 1.22-3.33-1.05-2.7.46-4.25 1.02.02.46-2.2-.68-.75 1.48-.55.23-.84v-.64l-.97-.52 1.99-.82 1.42.11.71-.57.77-1.32-.03-.68.37-.02 1.34-2.14 1.54-1.16 1.05-1.39 1.05-.25.4-.52 2.05.02.6-.3-.09-.27.71.36-.31-.89 1.82-2.37.54-1.05.2-1.85 1.17-1.12.66-1.35-.8-.8-.48.39-.32-.78-.15.27-.57-1.98.27-1.24-.68-.11-.26-.48 1.51-1.08-.91-1.33.16-1.26-.65-1.19.07-.66.9-1.08-.83-2.11.36-1.99 1.44-1.87z" fill="#9ebcda" />
  </g>
  </g>
</svg>
